<svg width="361" height="361" viewBox="0 0 361 361" fill="none" xmlns="http://www.w3.org/2000/svg">
<circle cx="180.5" cy="180.5" r="180.5" fill="#D9D9D9" fill-opacity="0.25"/>
<path d="M297.927 293.186L293.748 293.185L291.761 277.069H297.928L297.927 293.186Z" fill="#9E616A"/>
<path d="M298.993 297.236L285.521 297.236V297.065C285.521 295.674 286.073 294.341 287.057 293.357C288.04 292.374 289.374 291.821 290.765 291.821L298.994 291.822L298.993 297.236Z" fill="#2F2E41"/>
<path d="M281.912 293.186L277.734 293.185L275.746 277.069H281.913L281.912 293.186Z" fill="#9E616A"/>
<path d="M282.978 297.236L269.505 297.236V297.065C269.505 295.674 270.057 294.341 271.041 293.357C272.024 292.374 273.358 291.821 274.749 291.821L282.978 291.822L282.978 297.236Z" fill="#2F2E41"/>
<path d="M101.393 296.611V167.164C101.393 166.367 101.709 165.603 102.273 165.039C102.837 164.475 103.601 164.158 104.399 164.158H117.813C118.611 164.158 119.375 164.475 119.939 165.039C120.503 165.603 120.819 166.367 120.819 167.164V296.949L101.393 296.611Z" fill="#3F3D56"/>
<path d="M145.7 297.018V194.091C145.7 193.293 146.017 192.529 146.581 191.965C147.144 191.401 147.909 191.084 148.706 191.084H162.121C162.918 191.084 163.683 191.401 164.246 191.965C164.81 192.529 165.127 193.293 165.127 194.091V296.797L145.7 297.018Z" fill="#3F3D56"/>
<path d="M66.9655 174.73C66.7681 174.73 66.5749 174.673 66.4092 174.566C66.2436 174.458 66.1126 174.305 66.0321 174.125C65.9517 173.944 65.9251 173.745 65.9557 173.55C65.9863 173.355 66.0727 173.172 66.2046 173.025L111.058 122.996L155.201 147.784L199.606 71.2705L244.842 108.503C244.946 108.589 245.032 108.694 245.095 108.812C245.158 108.931 245.198 109.061 245.211 109.194C245.224 109.328 245.21 109.463 245.171 109.591C245.132 109.72 245.068 109.839 244.982 109.943C244.897 110.047 244.792 110.133 244.674 110.196C244.555 110.259 244.425 110.298 244.291 110.311C244.158 110.324 244.023 110.311 243.894 110.271C243.766 110.232 243.646 110.168 243.543 110.082L200.166 74.3798L155.957 150.554L111.487 125.582L67.7271 174.39C67.6313 174.498 67.5139 174.583 67.3827 174.642C67.2514 174.7 67.1093 174.731 66.9655 174.73Z" fill="#3F3D56"/>
<path d="M66.7949 183.251C72.0654 183.251 76.3379 178.979 76.3379 173.708C76.3379 168.438 72.0654 164.165 66.7949 164.165C61.5245 164.165 57.252 168.438 57.252 173.708C57.252 178.979 61.5245 183.251 66.7949 183.251Z" fill="white"/>
<path d="M111.104 133.833C116.375 133.833 120.647 129.56 120.647 124.29C120.647 119.019 116.375 114.747 111.104 114.747C105.834 114.747 101.562 119.019 101.562 124.29C101.562 129.56 105.834 133.833 111.104 133.833Z" fill="#CCCCCC"/>
<path d="M155.41 158.714C160.681 158.714 164.953 154.441 164.953 149.171C164.953 143.9 160.681 139.628 155.41 139.628C150.14 139.628 145.867 143.9 145.867 149.171C145.867 154.441 150.14 158.714 155.41 158.714Z" fill="#E6E6E6"/>
<path d="M199.718 82.3691C204.988 82.3691 209.261 78.0966 209.261 72.8262C209.261 67.5557 204.988 63.2832 199.718 63.2832C194.447 63.2832 190.175 67.5557 190.175 72.8262C190.175 78.0966 194.447 82.3691 199.718 82.3691Z" fill="white"/>
<path d="M284.924 153.443C290.194 153.443 294.467 149.17 294.467 143.9C294.467 138.629 290.194 134.357 284.924 134.357C279.653 134.357 275.381 138.629 275.381 143.9C275.381 149.17 279.653 153.443 284.924 153.443Z" fill="white"/>
<path d="M281.55 218.239C285.121 218.669 294.255 215.411 294.75 220.368C299.451 234.207 299.312 287.256 299.312 287.256L292.154 287.597C292.154 287.597 286.435 245.446 283.731 236.429C282.374 247.389 282.611 289.301 282.611 289.301L276.136 289.642C276.136 289.642 270.327 253.952 270.294 243.477C269.588 235.804 271.32 224.433 270.579 217.016C274.12 218.138 277.848 218.554 281.55 218.239Z" fill="#3F3D56"/>
<path d="M234.313 296.559V147.363C234.313 145.45 235.659 143.899 237.32 143.899H250.734C252.394 143.899 253.74 145.45 253.74 147.363V296.949L234.313 296.559Z" fill="#3F3D56"/>
<path d="M269.399 178.091C267.966 175.163 266.216 172.4 264.181 169.854C263.755 169.356 263.368 168.828 263.022 168.272C262.289 167.001 262.071 165.508 261.607 164.118C260.312 160.219 257.081 157.086 256.294 153.055C256.008 151.589 253.589 155.849 254.225 157.666C255.36 160.955 255.507 164.438 256.952 167.614C258.397 170.791 260.094 173.838 261.342 177.086C262.05 178.93 262.616 180.835 263.656 182.539C264.695 184.243 266.318 185.671 268.277 185.927C268.264 184.691 268.452 183.462 268.833 182.287C269.259 180.944 270.015 179.362 269.399 178.091Z" fill="#9E616A"/>
<path d="M290.841 180.298C290.753 177.888 291.129 175.484 291.948 173.216C292.262 172.347 292.63 171.464 292.599 170.54C292.555 169.681 292.146 168.894 291.775 168.117C290.493 165.442 289.593 162.606 288.707 159.777L287.003 154.443C286.448 154.036 289.692 153.895 290.384 154.852C292.647 157.995 294.361 161.604 296.154 165.036C296.611 165.854 297.001 166.708 297.32 167.589C297.758 169.017 297.965 170.506 297.933 171.999C297.933 174.79 297.565 177.571 297.183 180.339C296.941 182.074 296.624 183.962 295.312 185.11C293.949 183.365 292.579 181.661 290.841 180.298Z" fill="#9E616A"/>
<path d="M281.827 177.537C285.733 177.537 288.899 174.371 288.899 170.465C288.899 166.559 285.733 163.393 281.827 163.393C277.921 163.393 274.755 166.559 274.755 170.465C274.755 174.371 277.921 177.537 281.827 177.537Z" fill="#9E616A"/>
<path d="M276.079 163.41C276 163.196 275.982 162.963 276.028 162.739C276.073 162.515 276.181 162.308 276.338 162.141C276.515 162.002 276.749 161.95 276.939 161.817C277.208 161.591 277.428 161.312 277.586 160.998C278.069 160.322 278.776 159.839 279.581 159.635C280.387 159.43 281.239 159.518 281.986 159.882C283.154 160.493 283.86 161.718 284.899 162.543C285.427 162.97 286.039 163.287 286.57 163.715C287.633 164.633 288.389 165.856 288.736 167.218C289.08 168.57 289.282 169.955 289.336 171.35C289.391 171.768 289.375 172.193 289.288 172.606C289.18 172.952 289.02 173.28 288.812 173.577C287.744 175.196 286.335 176.666 284.571 177.501C282.806 178.337 280.66 178.473 278.92 177.598C278.745 177.528 278.594 177.407 278.486 177.252C278.387 177.016 278.364 176.755 278.418 176.504C278.513 175.515 278.317 174.519 277.855 173.639C277.531 172.992 277.046 172.435 276.787 171.765C276.546 171.015 276.443 170.227 276.482 169.441C276.451 167.402 276.59 165.372 276.079 163.41Z" fill="#2D293D"/>
<path d="M57.0859 296.761V224.732C57.0859 223.808 58.4318 223.059 60.092 223.059H73.5067C75.1668 223.059 76.5127 223.809 76.5127 224.732V296.949L57.0859 296.761Z" fill="#3F3D56"/>
<path d="M319.801 297.7H40.6113C40.5209 297.7 40.4342 297.664 40.3703 297.6C40.3064 297.536 40.2705 297.45 40.2705 297.359C40.2705 297.269 40.3064 297.182 40.3703 297.118C40.4342 297.054 40.5209 297.018 40.6113 297.018H319.8C319.891 297.018 319.977 297.054 320.041 297.118C320.105 297.182 320.141 297.269 320.141 297.359C320.141 297.45 320.105 297.536 320.041 297.6C319.977 297.664 319.891 297.7 319.8 297.7H319.801Z" fill="#E6E6E6"/>
<path d="M190.007 296.508V127.198C190.007 125.027 191.353 123.267 193.013 123.267H206.428C208.088 123.267 209.434 125.027 209.434 127.198V296.949L190.007 296.508Z" fill="white"/>
<path d="M254.026 156.793C255.72 156.793 257.094 155.42 257.094 153.726C257.094 152.032 255.72 150.658 254.026 150.658C252.332 150.658 250.959 152.032 250.959 153.726C250.959 155.42 252.332 156.793 254.026 156.793Z" fill="#A0616A"/>
<path d="M288.108 155.428C289.802 155.428 291.176 154.055 291.176 152.361C291.176 150.667 289.802 149.293 288.108 149.293C286.414 149.293 285.041 150.667 285.041 152.361C285.041 154.055 286.414 155.428 288.108 155.428Z" fill="#A0616A"/>
<path d="M295.562 190.332C295.862 190.058 298.302 175.788 298.287 175.466C298.25 173.708 292.885 171.7 291.812 172.399C290.799 173.058 289.035 180.621 287.9 181.998L286.7 179.897H277.157L276.578 180.971C275.326 180.217 274.2 179.521 273.798 179.291C273.66 179.197 273.509 179.123 273.351 179.071C272.359 178.849 271.428 178.412 270.624 177.79C269.841 177.186 266.203 170.868 265.228 171.035C264.127 171.22 260.414 174.43 260.456 177.511C260.924 177.501 267.005 189.66 267.09 190.114C267.557 192.029 269.099 219.963 269.597 221.265C271.889 221.043 270.079 220.648 272.298 221.265C274.687 221.929 277.209 221.21 279.673 220.944C280.699 220.843 281.73 220.797 282.761 220.808C286.51 220.825 291.861 221.033 295.491 221.963C295.511 219.584 293.422 214.438 292.648 212.192C292.547 211.521 292.55 210.838 292.658 210.168C292.757 209.346 294.753 191.24 295.562 190.332Z" fill="#E6E6E6"/>
</svg>
