<svg width="361" height="361" viewBox="0 0 361 361" fill="none" xmlns="http://www.w3.org/2000/svg">
<circle cx="180.5" cy="180.5" r="180.5" fill="#D9D9D9" fill-opacity="0.25"/>
<path d="M172.213 289.404C172.305 289.408 172.397 289.384 172.475 289.335C172.553 289.285 172.614 289.213 172.65 289.128C172.686 289.042 172.694 288.948 172.674 288.858C172.655 288.767 172.608 288.685 172.54 288.622L172.509 288.5L172.521 288.47C172.614 288.25 172.77 288.063 172.97 287.931C173.169 287.8 173.402 287.73 173.641 287.731C173.88 287.732 174.113 287.803 174.311 287.936C174.509 288.069 174.664 288.258 174.755 288.478C175.121 289.358 175.586 290.24 175.7 291.17C175.751 291.582 175.729 291.998 175.637 292.402C176.496 290.531 176.941 288.496 176.944 286.437C176.944 285.92 176.916 285.403 176.858 284.89C176.811 284.469 176.745 284.051 176.66 283.636C176.2 281.384 175.213 279.274 173.779 277.478C173.085 277.099 172.524 276.516 172.171 275.809C172.043 275.555 171.952 275.283 171.902 275.003C172.054 274.602 172.134 274.177 172.139 273.748C172.248 273.582 172.443 273.5 172.562 273.338C173.155 272.535 173.971 272.675 174.398 273.767C175.308 274.226 175.317 274.989 174.758 275.722C174.403 276.188 174.354 276.819 174.042 277.318C174.074 277.359 174.107 277.399 174.14 277.44C174.726 278.195 175.237 279.005 175.666 279.859C175.562 278.902 175.686 277.934 176.029 277.035C176.376 276.197 177.027 275.491 177.601 274.766C177.753 274.572 177.959 274.426 178.193 274.349C178.427 274.271 178.679 274.265 178.917 274.33C179.155 274.396 179.368 274.531 179.529 274.717C179.691 274.904 179.793 275.134 179.823 275.379L179.827 275.411C179.742 275.459 179.658 275.51 179.577 275.564C179.474 275.633 179.395 275.73 179.349 275.845C179.303 275.959 179.293 276.085 179.319 276.205C179.346 276.325 179.408 276.435 179.498 276.519C179.588 276.603 179.702 276.658 179.823 276.677L179.836 276.679C179.806 276.986 179.752 277.29 179.675 277.589C180.411 280.434 178.823 281.47 176.555 281.517C176.505 281.542 176.456 281.568 176.406 281.593C176.837 282.813 177.107 284.084 177.21 285.374C177.268 286.135 177.265 286.899 177.2 287.66L177.203 287.633C177.368 286.787 177.819 286.024 178.48 285.473C179.463 284.665 180.852 284.368 181.912 283.719C182.025 283.647 182.156 283.608 182.29 283.608C182.424 283.607 182.555 283.645 182.668 283.717C182.781 283.789 182.871 283.892 182.928 284.013C182.984 284.134 183.005 284.269 182.987 284.402L182.983 284.43C182.825 284.495 182.671 284.569 182.522 284.652C182.437 284.701 182.354 284.752 182.272 284.805C182.17 284.874 182.09 284.972 182.044 285.086C181.998 285.201 181.988 285.326 182.015 285.446C182.041 285.567 182.104 285.676 182.194 285.761C182.284 285.845 182.397 285.9 182.519 285.919L182.531 285.921L182.557 285.924C182.287 286.569 181.908 287.163 181.436 287.679C180.976 290.163 179.001 290.398 176.888 289.675H176.886C176.654 290.683 176.318 291.663 175.884 292.601H172.303C172.29 292.562 172.278 292.521 172.267 292.481C172.598 292.502 172.931 292.482 173.258 292.422C172.992 292.096 172.726 291.767 172.461 291.441C172.455 291.435 172.449 291.429 172.444 291.422C172.309 291.255 172.173 291.089 172.038 290.923C172.031 290.411 172.09 289.901 172.213 289.404Z" fill="#F2F2F2"/>
<path d="M82.9874 289.404C82.8951 289.408 82.8036 289.384 82.7255 289.335C82.6474 289.285 82.5864 289.213 82.5507 289.128C82.515 289.042 82.5064 288.948 82.5261 288.858C82.5458 288.767 82.5927 288.685 82.6606 288.622L82.6915 288.5L82.6792 288.47C82.5862 288.25 82.4303 288.063 82.231 287.931C82.0318 287.8 81.7982 287.73 81.5595 287.731C81.3208 287.732 81.0877 287.803 80.8895 287.936C80.6912 288.069 80.5367 288.258 80.4453 288.478C80.0799 289.358 79.6147 290.24 79.5002 291.17C79.4498 291.582 79.471 291.998 79.5631 292.402C78.7049 290.531 78.2593 288.496 78.2565 286.437C78.2563 285.92 78.285 285.403 78.3425 284.89C78.39 284.469 78.4559 284.051 78.5401 283.636C79.0001 281.384 79.9876 279.274 81.4217 277.478C82.1157 277.099 82.677 276.516 83.0299 275.809C83.1578 275.555 83.2481 275.283 83.2982 275.003C83.1461 274.602 83.0662 274.177 83.062 273.748C82.9529 273.582 82.7576 273.5 82.6385 273.338C82.0458 272.535 81.2293 272.675 80.803 273.767C79.8924 274.226 79.8836 274.989 80.4423 275.722C80.7978 276.188 80.8466 276.819 81.1585 277.318C81.1265 277.359 81.0931 277.399 81.061 277.44C80.4744 278.195 79.9632 279.005 79.5346 279.859C79.6388 278.902 79.5144 277.934 79.1716 277.035C78.8242 276.197 78.173 275.491 77.5996 274.766C77.448 274.572 77.242 274.426 77.0078 274.349C76.7735 274.271 76.5216 274.265 76.2837 274.33C76.0458 274.396 75.8327 274.531 75.6714 274.717C75.51 274.904 75.4076 275.134 75.3771 275.379L75.3736 275.411C75.4588 275.459 75.5422 275.51 75.6238 275.564C75.7262 275.633 75.8056 275.73 75.8516 275.845C75.8975 275.959 75.9078 276.085 75.8811 276.205C75.8545 276.325 75.7921 276.435 75.7022 276.519C75.6122 276.603 75.4989 276.658 75.3771 276.677L75.3647 276.679C75.395 276.986 75.4486 277.29 75.5251 277.589C74.7895 280.434 76.3777 281.47 78.6454 281.517C78.6954 281.542 78.7442 281.568 78.7943 281.593C78.3637 282.813 78.0936 284.084 77.9908 285.374C77.9326 286.135 77.936 286.899 78.001 287.66L77.9972 287.633C77.8329 286.787 77.3818 286.024 76.7201 285.473C75.7373 284.665 74.3487 284.368 73.2885 283.719C73.1758 283.647 73.0447 283.608 72.9108 283.608C72.7769 283.607 72.6457 283.645 72.5327 283.717C72.4197 283.789 72.3295 283.892 72.2729 284.013C72.2163 284.134 72.1955 284.269 72.2131 284.402L72.2175 284.43C72.3755 284.495 72.5294 284.569 72.6782 284.652C72.7634 284.701 72.8468 284.752 72.9284 284.805C73.0308 284.874 73.1102 284.972 73.1562 285.086C73.2021 285.201 73.2124 285.326 73.1857 285.446C73.1591 285.567 73.0967 285.676 73.0068 285.761C72.9168 285.845 72.8035 285.9 72.6817 285.919L72.6692 285.921L72.6436 285.924C72.9136 286.569 73.2927 287.163 73.7641 287.679C74.2241 290.163 76.1997 290.398 78.313 289.675H78.3142C78.5461 290.683 78.8821 291.663 79.3167 292.601H82.8977C82.9106 292.562 82.9221 292.521 82.9337 292.481C82.6022 292.502 82.2695 292.482 81.9428 292.422C82.2085 292.096 82.4742 291.767 82.7399 291.441C82.7458 291.435 82.7514 291.429 82.7566 291.422C82.8913 291.255 83.0274 291.089 83.1622 290.923C83.1693 290.411 83.1106 289.901 82.9874 289.404Z" fill="#F2F2F2"/>
<path d="M137.11 96.9854C137.835 95.5267 138.993 94.3156 139.701 92.849C140.409 91.3824 140.547 89.4194 139.367 88.2968C138.365 87.3437 136.796 87.3303 135.597 86.6399C132.544 84.8809 132.548 79.2941 129.058 78.8113C127.361 78.5766 125.825 79.8493 124.8 81.2215C123.774 82.5938 122.956 84.1951 121.534 85.1498C119.923 86.2305 117.842 86.2775 116.053 87.0282C112.625 88.4675 110.827 92.1684 109.324 95.5696C108.356 97.7606 107.366 100.124 107.815 102.477C106.838 103.084 107.273 104.719 108.248 105.329C109.223 105.939 110.447 105.926 111.566 106.19C113.919 106.746 115.845 108.619 116.758 110.856C117.47 112.601 117.615 114.516 117.752 116.395C117.991 119.655 118.229 122.915 118.467 126.176C118.573 127.626 118.712 129.168 119.595 130.323C120.478 131.479 122.39 131.963 123.383 130.9C124.331 129.884 123.904 128.276 123.885 126.886C123.865 125.496 125.122 123.766 126.306 124.493L126.724 123.545C129.43 122.576 131.799 120.848 133.548 118.568C135.297 116.287 136.352 113.551 136.587 110.687C136.889 106.073 135.053 101.126 137.11 96.9854Z" fill="#E6E6E6"/>
<path d="M139.875 126.241C140.136 125.995 140.321 125.679 140.409 125.331C140.497 124.983 140.483 124.616 140.37 124.276C140.256 123.935 140.047 123.634 139.768 123.408C139.489 123.182 139.151 123.04 138.794 123L138.799 123.157C138.29 123.454 137.709 123.607 137.119 123.598C136.532 123.589 135.947 123.681 135.391 123.872C135.115 123.972 134.875 124.154 134.704 124.393C134.533 124.633 134.438 124.918 134.433 125.212C134.465 125.437 134.551 125.652 134.684 125.837C134.817 126.022 134.992 126.172 135.195 126.274C135.603 126.475 136.042 126.608 136.493 126.668C137.654 126.887 139.014 127.052 139.875 126.241Z" fill="#E6E6E6"/>
<path d="M162.534 97.0623C163.021 96.7313 163.434 96.3034 163.747 95.8055C163.9 95.5536 163.972 95.2615 163.955 94.9677C163.938 94.6739 163.833 94.3921 163.653 94.1593C163.286 93.8414 162.815 93.6711 162.33 93.6814C161.013 93.5831 159.69 93.7391 158.432 94.1411C159.723 95.2854 161.015 96.4298 162.307 97.5741L162.534 97.0623Z" fill="#E6E6E6"/>
<path d="M156.074 100.038C156.596 100.615 156.43 101.508 156.282 102.272C156.134 103.035 156.115 103.989 156.772 104.406C157.341 104.767 158.14 104.472 158.556 103.942C158.928 103.377 159.155 102.728 159.216 102.054C159.421 101.075 159.513 100.075 159.491 99.0746C159.467 98.0666 159.111 97.0947 158.48 96.3088C158.031 95.7978 157.434 95.4398 156.772 95.2851C156.11 95.1304 155.416 95.1868 154.788 95.4464L155.388 95.4168C154.952 95.9769 154.621 96.6117 154.412 97.2902C154.312 97.631 154.305 97.9925 154.391 98.337C154.478 98.6815 154.655 98.9965 154.905 99.2493C155.261 99.5591 155.757 99.6886 156.074 100.038Z" fill="#E6E6E6"/>
<path d="M185.517 90.374L185.624 90.0454C185.178 90.3036 184.834 90.7072 184.649 91.1886C184.465 91.6701 184.452 92.2002 184.612 92.6903C184.955 92.4196 185.22 92.0622 185.379 91.6551C185.538 91.2479 185.586 90.8057 185.517 90.374Z" fill="#E6E6E6"/>
<path d="M179.718 95.0772C180.286 94.7555 180.771 94.3051 181.134 93.7622C181.496 93.2192 181.727 92.5988 181.807 91.9508C181.868 91.5478 181.822 91.1357 181.672 90.7567C181.594 90.5686 181.472 90.4024 181.315 90.2729C181.159 90.1434 180.972 90.0547 180.773 90.0146L180.53 90.3972C180.181 90.0972 179.596 90.4057 179.449 90.8415C179.355 91.2941 179.394 91.7643 179.562 92.1949C179.73 92.6281 179.723 93.1097 179.541 93.5373C179.345 93.7888 179.125 94.0202 178.883 94.2283C178.765 94.3357 178.688 94.4808 178.665 94.6387C178.642 94.7966 178.675 94.9576 178.758 95.0941C178.986 95.3554 179.414 95.2457 179.718 95.0772Z" fill="#E6E6E6"/>
<path d="M177.244 92.9405C177.452 92.5661 177.551 92.1407 177.527 91.7131L176.996 91.5464C176.656 91.6841 176.355 91.902 176.118 92.1815C176.046 92.2537 175.991 92.341 175.956 92.437C175.922 92.533 175.909 92.6354 175.919 92.7369C175.929 92.8384 175.961 92.9365 176.014 93.0241C176.066 93.1117 176.137 93.1866 176.221 93.2436C176.306 93.3006 176.402 93.3382 176.503 93.3537C176.604 93.3691 176.706 93.3621 176.804 93.3332C176.902 93.3042 176.992 93.254 177.068 93.1861C177.144 93.1182 177.205 93.0343 177.244 92.9405Z" fill="#E6E6E6"/>
<path d="M203.222 90.251C203.27 90.2911 203.317 90.3324 203.365 90.3729C203.407 90.364 203.448 90.3481 203.491 90.3428L203.222 90.251Z" fill="#E6E6E6"/>
<path d="M202.371 94.915C202.859 94.5203 203.347 94.1256 203.835 93.7308C204.094 93.5474 204.315 93.3152 204.485 93.0471C204.601 92.7934 204.652 92.5142 204.631 92.2358C204.61 91.9574 204.52 91.6888 204.367 91.4549C204.097 91.0403 203.759 90.6745 203.367 90.373C202.936 90.475 202.557 90.7315 202.303 91.0939C202.048 91.4563 201.935 91.8995 201.986 92.3395C202.074 92.8991 202.425 93.4976 202.138 93.9861C202.027 94.1764 201.834 94.3059 201.706 94.485C201.577 94.6641 201.535 94.9494 201.712 95.0811C201.908 95.2273 202.18 95.0691 202.371 94.915Z" fill="#E6E6E6"/>
<path d="M203.437 97.3311C203.619 97.3408 203.8 97.3114 203.969 97.2449C204.138 97.1783 204.291 97.0762 204.417 96.9454C205.07 96.4109 205.64 95.784 206.111 95.0845C205.013 95.4322 203.915 95.78 202.817 96.1277L203.16 96.528C202.856 96.7265 203.081 97.2628 203.437 97.3311Z" fill="#E6E6E6"/>
<path d="M206.514 99.5911C206.581 99.7623 206.702 99.9069 206.859 100.003C207.016 100.099 207.2 100.14 207.383 100.122C207.565 100.097 207.74 100.033 207.894 99.9344C208.049 99.8353 208.18 99.7035 208.279 99.5482C208.446 99.3021 208.544 99.0159 208.563 98.7192C208.582 98.4224 208.522 98.126 208.388 97.8604C208.254 97.5949 208.052 97.3699 207.802 97.2088C207.552 97.0476 207.264 96.9562 206.967 96.9438L207.27 97.407C207.347 98.1975 206.272 98.8345 206.514 99.5911Z" fill="#E6E6E6"/>
<path d="M227.837 108.249C228.134 108.471 228.495 108.59 228.865 108.589C229.235 108.588 229.596 108.467 229.891 108.244C230.083 108.081 230.239 107.879 230.349 107.652C230.46 107.425 230.522 107.178 230.532 106.926C230.543 106.674 230.501 106.422 230.409 106.187C230.318 105.952 230.179 105.738 230.001 105.559L229.44 105.872C229.129 105.672 228.753 105.601 228.39 105.673C228.028 105.745 227.707 105.955 227.496 106.258C227.307 106.577 227.237 106.952 227.3 107.317C227.362 107.681 227.553 108.012 227.837 108.249Z" fill="#E6E6E6"/>
<path d="M234.357 108.987C234.63 108.908 234.878 108.76 235.078 108.557C235.277 108.354 235.421 108.104 235.496 107.829L234.406 107.686C234.103 107.457 233.75 107.303 233.376 107.236C233.188 107.208 232.997 107.245 232.833 107.342C232.67 107.438 232.544 107.587 232.478 107.765C232.455 107.916 232.471 108.071 232.524 108.214C232.578 108.357 232.667 108.485 232.784 108.584C232.99 108.78 233.242 108.92 233.518 108.991C233.793 109.061 234.082 109.06 234.357 108.987Z" fill="#E6E6E6"/>
<path d="M229.856 111.166C229.875 111.344 229.944 111.512 230.055 111.651C230.166 111.791 230.315 111.896 230.484 111.954C230.668 112.041 230.874 112.071 231.076 112.04C231.277 112.009 231.465 111.918 231.614 111.779C231.68 111.704 231.727 111.615 231.752 111.519C231.776 111.423 231.777 111.322 231.755 111.226C231.733 111.129 231.688 111.039 231.624 110.963C231.56 110.887 231.479 110.827 231.388 110.789L230.57 110.64C230.254 110.477 229.85 110.811 229.856 111.166Z" fill="#E6E6E6"/>
<path d="M182.422 116.915L181.789 116.337C181.957 116.572 182.173 116.769 182.422 116.915Z" fill="#E6E6E6"/>
<path d="M177.588 113.513C177.978 115.322 179.926 116.796 181.695 116.252L181.788 116.337C181.225 115.567 181.13 114.426 181.261 113.434C181.505 111.735 182.173 110.124 183.204 108.751C184.234 107.378 185.594 106.286 187.158 105.577C187.586 105.444 187.969 105.194 188.265 104.856C188.517 104.488 188.423 103.855 187.988 103.751C187.752 103.724 187.514 103.779 187.314 103.907L184.027 105.525C182.367 106.342 180.673 107.183 179.369 108.496C178.065 109.809 177.199 111.704 177.588 113.513Z" fill="#E6E6E6"/>
<path d="M124.526 175.717C121.463 173.525 118.109 171.772 114.56 170.509C112.379 169.734 110.035 169.142 107.763 169.583C106.516 169.84 105.348 170.389 104.354 171.183C103.359 171.976 102.566 172.994 102.038 174.152C101.53 175.319 101.291 176.585 101.339 177.856C101.387 179.128 101.721 180.372 102.315 181.497C103.363 183.461 105.178 185.025 105.785 187.167C106.194 188.611 106 190.148 105.803 191.636C105.401 194.676 104.999 197.716 104.596 200.757C104.23 203.525 103.873 206.405 104.749 209.056C105.626 211.707 108.126 214.044 110.904 213.762L111.455 213.721C109.617 212.471 109.102 209.885 109.649 207.731C110.197 205.577 111.585 203.751 112.941 201.99C116.965 196.765 120.988 191.541 125.012 186.316C126.64 184.202 128.362 181.589 127.494 179.067C127 177.632 125.759 176.6 124.526 175.717Z" fill="#E6E6E6"/>
<path d="M97.1066 162.509C96.6991 162.371 96.2687 162.677 96.0291 163.035C95.8354 163.419 95.6079 163.784 95.3492 164.128C94.7224 164.774 93.5802 164.645 92.9042 164.051C92.2282 163.457 91.9353 162.537 91.8041 161.647C91.6467 160.578 91.7146 159.386 92.4198 158.568C93.1458 157.726 94.3391 157.5 95.4371 157.325C96.5713 157.144 97.842 156.994 98.7712 157.669C99.3564 158.094 99.6976 158.78 100.24 159.259C100.782 159.738 101.746 159.919 102.154 159.322C102.261 159.11 102.315 158.876 102.312 158.639C102.308 158.402 102.248 158.169 102.135 157.96C101.905 157.545 101.767 157.085 101.73 156.612C101.757 155.955 102.285 155.434 102.824 155.058C103.364 154.683 103.973 154.359 104.327 153.805C104.762 153.124 104.716 152.247 104.986 151.485C105.64 149.641 107.973 148.82 108.652 146.986C108.816 146.6 108.834 146.167 108.704 145.769C108.419 145.038 107.651 145.182 107.604 144.288C107.558 143.434 108.271 142.596 108.995 142.239C109.994 141.747 111.158 141.787 112.271 141.757C113.383 141.727 114.582 141.579 115.399 140.823C115.663 140.551 115.867 140.225 115.997 139.869C116.127 139.512 116.18 139.132 116.153 138.753C116.126 138.375 116.019 138.006 115.84 137.672C115.66 137.337 115.412 137.044 115.112 136.812C114.503 136.392 113.734 136.246 113.142 135.803C112.405 135.251 112.056 134.332 111.481 133.612C111.003 133.064 110.457 132.579 109.855 132.172C109.362 131.806 108.869 131.44 108.376 131.075C107.485 130.413 106.558 129.736 105.474 129.5C104.39 129.264 103.099 129.598 102.556 130.565C102.342 130.996 102.225 131.469 102.213 131.951C102.164 133.084 102.211 134.219 102.355 135.344C102.444 136.25 102.534 137.156 102.623 138.061C102.703 138.873 102.617 139.944 101.829 140.155C100.08 140.622 100.67 138.037 100.283 137.245C99.6891 136.032 96.9619 135.45 95.796 134.945C95.0678 134.629 94.2994 134.281 93.8597 133.62C93.3125 132.798 93.4248 131.679 93.854 130.789C94.2831 129.9 94.9822 129.176 95.6174 128.419C96.2649 127.648 96.8544 126.831 97.4433 126.014C98.1263 125.067 98.8093 124.12 99.4923 123.173C100.368 121.958 101.289 120.476 100.792 119.063C100.684 118.874 100.523 118.721 100.328 118.624C100.134 118.526 99.9149 118.488 99.6989 118.514C99.4829 118.54 99.2794 118.629 99.1138 118.77C98.9483 118.911 98.8281 119.098 98.7682 119.307C98.5501 120.07 99.1319 121.044 98.5754 121.609C98.3847 121.762 98.1462 121.844 97.9014 121.839C97.6567 121.835 97.4213 121.744 97.2365 121.584C96.8761 121.251 96.6015 120.836 96.4363 120.374C95.762 118.875 95.1051 117.367 94.413 115.877C94.1942 115.406 93.9658 114.599 93.3027 114.679C92.7271 114.748 92.4162 115.587 92.4362 116.074C92.4653 116.782 92.857 117.415 93.1563 118.058C93.4556 118.701 93.665 119.473 93.3363 120.102C92.9202 120.897 91.8662 121.076 90.9687 121.05C89.2769 120.999 87.6192 120.561 86.1223 119.771C86.0832 120.603 86.0441 121.434 86.005 122.266C84.8137 121.767 83.6223 121.268 82.431 120.77C82.1996 120.673 81.9682 120.576 81.7368 120.479C80.7319 120.058 79.7257 119.637 78.6911 119.296C78.1038 119.102 77.5083 118.934 76.913 118.766C76.5512 118.664 76.1893 118.562 75.8275 118.46C75.1134 118.207 74.3561 118.099 73.5997 118.143C72.8051 118.242 72.0964 118.669 71.3615 118.988C69.7219 119.7 67.6013 118.984 65.8443 118.971C65.1473 117.954 64.2064 117.127 63.1076 116.567C62.0088 116.007 60.7871 115.732 59.5543 115.766C58.3215 115.8 57.1169 116.143 56.0508 116.763C54.9846 117.383 54.0909 118.26 53.4514 119.315C53.1425 119.849 52.8674 120.402 52.6277 120.971C52.3893 121.505 52.1509 122.039 51.9125 122.574C51.5628 123.357 51.2053 124.183 51.2741 125.038C51.3428 125.894 51.9986 126.768 52.8568 126.76C50.8332 127.676 50.4121 130.882 52.1305 132.29C52.6063 132.68 53.1898 132.934 53.618 133.376C53.9416 133.71 54.1581 134.133 54.2398 134.59C54.3214 135.048 54.2643 135.52 54.076 135.945C53.8877 136.37 53.5766 136.729 53.1828 136.976C52.7889 137.223 52.3302 137.347 51.8656 137.331C53.0645 137.794 54.385 137.838 55.6116 137.453C56.8381 137.069 57.8981 136.28 58.6184 135.216C59.3531 134.066 59.6724 132.629 60.6718 131.699C61.9954 130.468 64.1817 130.564 65.7083 131.532C67.2348 132.499 68.2006 134.148 68.8648 135.829C69.7353 138.032 70.2925 140.549 72.147 142.023C73.0438 142.735 74.1794 143.136 74.972 143.963C76.1007 145.14 76.296 146.917 76.2706 148.548C76.2451 150.179 76.0695 151.871 76.6636 153.39C77.2576 154.909 78.9608 156.159 80.4881 155.586C80.0505 156.884 80.064 158.292 80.5261 159.581C80.9883 160.871 81.8722 161.967 83.0347 162.691C82.7564 160.965 82.4782 159.24 82.1999 157.514C83.5868 157.904 84.4856 159.249 85.0047 160.593C85.5238 161.937 85.7981 163.391 86.5505 164.619C87.7354 166.554 89.881 167.387 92.0637 167.38C94.4216 167.372 95.3168 166.248 96.8707 164.592C97.1829 164.31 97.4198 163.954 97.5601 163.557C97.6236 163.357 97.6126 163.141 97.5293 162.948C97.4459 162.755 97.2958 162.599 97.1066 162.509Z" fill="#E6E6E6"/>
<path d="M103.782 162.423C102.464 162.216 101.146 162.009 99.8281 161.802C100.519 162.217 101.21 162.632 101.901 163.048C102.477 163.431 103.103 163.733 103.762 163.945C104.093 164.049 104.441 164.083 104.786 164.047C105.13 164.011 105.463 163.904 105.765 163.734L105.596 163.411C105.33 162.739 104.496 162.535 103.782 162.423Z" fill="#E6E6E6"/>
<path d="M102.887 169.749L102.896 169.726C102.817 169.594 102.699 169.489 102.559 169.424C102.419 169.359 102.263 169.337 102.111 169.362C101.807 169.416 101.497 169.421 101.191 169.377C100.998 169.301 100.825 169.18 100.687 169.024C100.55 168.867 100.452 168.681 100.401 168.479C100.27 168.084 100.231 167.663 100.082 167.275C99.9744 166.969 99.7842 166.698 99.5323 166.492C99.2805 166.287 98.9769 166.155 98.6549 166.111C98.3318 166.085 98.0115 166.187 97.7632 166.396C97.5149 166.604 97.3586 166.902 97.3281 167.224C97.3535 167.557 97.4591 167.878 97.6358 168.16C97.7779 168.434 97.9201 168.707 98.0623 168.981C98.1821 169.226 98.3199 169.462 98.4746 169.686C98.7262 170.033 99.0552 170.316 99.4355 170.513C99.8158 170.711 100.237 170.817 100.665 170.823C101.094 170.829 101.517 170.735 101.903 170.549C102.289 170.362 102.626 170.088 102.887 169.749Z" fill="#E6E6E6"/>
<path d="M95.1911 99.6139C96.1947 100.206 97.4514 100.613 97.9282 101.676L98.2033 101.765C97.9032 102.138 97.6032 102.511 97.3031 102.884C96.9323 103.344 96.5424 103.858 96.5511 104.449C96.563 105.264 97.3465 105.878 98.1381 106.07C98.9828 106.244 99.862 106.098 100.605 105.66C101.348 105.222 101.902 104.523 102.159 103.7C102.253 103.357 102.292 103.001 102.374 102.654C102.615 101.833 102.978 101.053 103.452 100.34C106.116 95.8567 108.781 91.3734 111.446 86.8901C111.778 86.3318 112.12 85.6639 111.871 85.0642C111.737 84.8106 111.531 84.6026 111.279 84.4672C111.026 84.3317 110.739 84.2749 110.454 84.3042C109.885 84.3732 109.337 84.5578 108.842 84.8464C108.622 84.4602 108.312 84.1331 107.938 83.8932C107.564 83.6534 107.137 83.5079 106.694 83.4693C105.809 83.401 104.918 83.4786 104.058 83.6989C102.115 83.9921 100.241 84.6359 98.5278 85.5988C97.5905 86.0726 96.5591 86.6577 96.2872 87.6721C95.9527 88.9199 97.0307 90.1916 98.2717 90.5502C99.5128 90.9088 100.837 90.6076 102.094 90.3058C102.236 90.9147 102.176 91.5532 101.925 92.1257C101.673 92.6981 101.243 93.1736 100.699 93.481C100.154 93.7883 99.5248 93.9109 98.9048 93.8304C98.2848 93.7499 97.7075 93.4707 97.2596 93.0345C96.3592 92.1578 95.9182 90.6358 94.682 90.4096C93.4498 90.184 92.4703 91.4983 92.1984 92.7212C91.9324 94.0382 92.0766 95.4052 92.6118 96.6377C93.1469 97.8702 94.0472 98.909 95.1911 99.6139Z" fill="#E6E6E6"/>
<path d="M110.646 121.186C110.052 119.514 109.273 117.913 108.321 116.415C107.599 115.231 106.709 114.158 105.678 113.23C104.736 112.417 103.652 111.782 102.482 111.358C101.345 110.947 100.08 110.744 98.9314 111.119C97.7826 111.493 96.8052 112.562 96.8285 113.77C96.8543 115.106 98.0231 116.15 99.2412 116.699C100.459 117.248 101.814 117.487 102.964 118.168C103.745 118.642 104.398 119.301 104.865 120.086C105.333 120.872 105.6 121.76 105.643 122.673L105.933 123.151C105.277 123.369 104.666 123.702 104.127 124.135C103.861 124.355 103.657 124.641 103.536 124.965C103.416 125.289 103.383 125.639 103.441 125.98C103.642 126.789 104.468 127.253 105.215 127.623C106.595 128.306 107.975 128.99 109.355 129.673C108.653 127.578 110.953 125.628 111.08 123.422C111.085 122.655 110.938 121.895 110.646 121.186Z" fill="#E6E6E6"/>
<path d="M75.9447 115.529C76.7819 116.179 78.069 115.875 78.836 115.144C79.6029 114.412 79.9764 113.371 80.3248 112.37C80.1975 113.361 80.2096 114.364 80.3606 115.352C80.4392 115.846 80.6195 116.318 80.89 116.738C81.1606 117.159 81.5155 117.519 81.9322 117.795C82.3107 118.003 82.7186 118.151 83.1419 118.235C85.1098 118.683 87.1663 118.536 89.0505 117.813L89.0674 117.169C88.1208 117.277 87.4045 116.239 87.3421 115.288C87.2796 114.338 87.6246 113.405 87.6549 112.453C87.6852 111.501 87.2263 110.388 86.2888 110.219C86.4529 110.549 86.5127 110.92 86.4604 111.285C86.408 111.649 86.2459 111.989 85.9956 112.259C85.7454 112.529 85.4189 112.716 85.0595 112.796C84.7001 112.876 84.3249 112.844 83.9839 112.706C82.8988 112.264 82.5046 110.942 81.666 110.125C81.1478 109.664 80.505 109.366 79.8183 109.27C79.1315 109.173 78.4316 109.282 77.8064 109.582C77.1892 109.897 76.6477 110.342 76.2193 110.887C75.791 111.431 75.486 112.063 75.3255 112.737C75.0708 113.715 75.1464 114.909 75.9447 115.529Z" fill="#E6E6E6"/>
<path d="M101.784 108.745L101.823 108.682C101.589 108.007 100.864 107.611 100.157 107.511C99.4446 107.464 98.7289 107.487 98.0207 107.581C97.3061 107.674 96.5816 107.514 95.9719 107.13C95.4851 106.766 95.2078 106.194 94.8187 105.727C94.4296 105.26 93.7999 104.876 93.2346 105.099C92.6227 105.341 92.4595 106.199 92.7564 106.786C93.1062 107.349 93.634 107.78 94.2561 108.01C96.6121 109.091 99.2631 109.35 101.784 108.745Z" fill="#E6E6E6"/>
<path d="M93.7399 110.768C93.5442 110.911 93.4115 111.125 93.3696 111.364C93.3277 111.603 93.3798 111.849 93.5151 112.05C93.6504 112.251 93.8583 112.393 94.0953 112.444C94.3324 112.496 94.5802 112.454 94.787 112.327L94.9934 112.531C95.268 112.039 95.3812 111.38 95.0301 110.94C94.874 110.757 94.656 110.639 94.4179 110.607C94.1798 110.575 93.9384 110.633 93.7399 110.768Z" fill="#E6E6E6"/>
<path d="M91.3243 112.532C91.3273 112.356 91.2771 112.184 91.1802 112.037C91.0833 111.891 90.9444 111.777 90.7816 111.711C90.6707 111.692 90.5572 111.695 90.4478 111.721C90.3385 111.747 90.2355 111.795 90.1451 111.862C90.0547 111.929 89.9788 112.014 89.9219 112.111C89.8651 112.208 89.8284 112.315 89.8142 112.427C89.7972 112.654 89.827 112.882 89.902 113.097C89.9769 113.312 90.0952 113.51 90.2496 113.678C90.3395 113.812 90.4569 113.927 90.5942 114.013C90.7315 114.099 90.8855 114.156 91.046 114.178C91.3696 114.188 91.6995 113.85 91.5683 113.554L91.0743 113.545C91.2265 113.228 91.3116 112.883 91.3243 112.532Z" fill="#E6E6E6"/>
<path d="M81.6639 107.472C81.8453 107.619 82.0267 107.766 82.2082 107.913C82.5225 108.185 82.862 108.426 83.2221 108.633C83.8519 108.982 84.5926 109.073 85.288 108.886C85.6314 108.788 85.9445 108.605 86.1986 108.355C86.4528 108.104 86.6397 107.793 86.7421 107.451C86.959 106.634 86.6052 105.785 86.2589 105.013C86.1798 104.792 86.0494 104.594 85.8784 104.433C85.7908 104.356 85.679 104.311 85.562 104.306C85.4451 104.301 85.3301 104.337 85.2367 104.408C85.1689 104.492 85.1239 104.593 85.1058 104.699C85.0877 104.806 85.0972 104.916 85.1334 105.018C85.2078 105.221 85.2419 105.437 85.2336 105.653C85.1991 105.866 84.9751 106.068 84.7778 105.98L84.7464 106.706C83.8044 106.229 83.3062 104.961 82.2577 104.836C82.0224 104.808 81.7839 104.845 81.5683 104.943C81.3526 105.041 81.168 105.197 81.0347 105.393C80.9014 105.589 80.8245 105.817 80.8123 106.054C80.8001 106.291 80.8531 106.526 80.9656 106.735C81.1476 107.024 81.3849 107.275 81.6639 107.472Z" fill="#E6E6E6"/>
<path d="M79.419 104.336C79.6369 104.187 79.8093 103.98 79.9172 103.739C80.0252 103.498 80.0644 103.232 80.0306 102.97C80.0045 102.843 79.9508 102.723 79.8732 102.619C79.7957 102.515 79.6962 102.43 79.5819 102.369C79.4676 102.308 79.3412 102.273 79.2118 102.266C79.0824 102.26 78.9531 102.282 78.8332 102.331C78.564 102.532 78.3749 102.822 78.2995 103.149C78.0513 103.85 77.803 104.55 77.5547 105.251L77.972 104.947C78.4883 104.836 78.9791 104.629 79.419 104.336Z" fill="#E6E6E6"/>
<path d="M84.2549 100.039C84.3295 99.9449 84.3825 99.8357 84.4103 99.719C84.4381 99.6022 84.44 99.4808 84.4158 99.3633C84.3916 99.2458 84.342 99.135 84.2704 99.0387C84.1987 98.9425 84.1069 98.8631 84.0013 98.8061L83.4795 98.7573C83.3609 98.7874 83.2509 98.8448 83.1585 98.925C83.0661 99.0052 82.9937 99.106 82.9473 99.2192C82.9008 99.3324 82.8816 99.4549 82.891 99.5769C82.9005 99.699 82.9384 99.817 83.0018 99.9218C83.0651 100.026 83.1521 100.115 83.2558 100.18C83.3595 100.245 83.477 100.285 83.5988 100.296C83.7207 100.307 83.8435 100.29 83.9574 100.245C84.0714 100.201 84.1733 100.13 84.2549 100.039Z" fill="#E6E6E6"/>
<path d="M89.0561 100.844C89.543 101.077 90.1594 101.299 90.5829 100.964C90.7084 100.851 90.8017 100.706 90.8535 100.545C90.9053 100.384 90.9137 100.212 90.8778 100.047C90.8018 99.7167 90.6549 99.4073 90.4473 99.1398C89.7995 98.2098 88.9765 97.4151 88.0244 96.8003L87.789 97.1062C87.4602 97.96 87.1427 98.9567 87.6013 99.7485C87.9106 100.282 88.4997 100.578 89.0561 100.844Z" fill="#E6E6E6"/>
<path d="M92.6816 101.604L93.5921 102.016C93.5029 101.86 93.3669 101.737 93.2034 101.663C93.04 101.589 92.8574 101.568 92.6816 101.604Z" fill="#E6E6E6"/>
<path d="M90.2294 104.469L89.7991 104.61C89.4333 105.212 89.592 105.98 89.7622 106.663C89.8698 107.095 90.1018 107.626 90.5462 107.606C90.9787 107.587 91.1701 107.063 91.2531 106.638C91.3827 106.176 91.3967 105.69 91.294 105.222C91.2354 104.99 91.0959 104.787 90.9007 104.649C90.7055 104.511 90.4675 104.447 90.2294 104.469Z" fill="#E6E6E6"/>
<path d="M83.3676 102.445L83.6859 102.573C83.7606 102.562 83.8296 102.527 83.8823 102.473C83.9351 102.42 83.9686 102.35 83.9777 102.275C83.9867 102.2 83.9708 102.124 83.9325 102.059C83.8941 101.995 83.8354 101.944 83.7655 101.916C83.6956 101.888 83.6183 101.883 83.5457 101.904C83.473 101.924 83.4091 101.967 83.3638 102.028C83.3184 102.088 83.2942 102.161 83.2949 102.237C83.2956 102.312 83.3212 102.385 83.3676 102.445Z" fill="#E6E6E6"/>
<path d="M99.4167 126.787C99.2624 126.79 99.1113 126.831 98.9758 126.904C98.8403 126.978 98.7244 127.083 98.6378 127.211C98.5511 127.338 98.4962 127.485 98.4777 127.638C98.4592 127.791 98.4775 127.946 98.5313 128.091C98.8439 128.764 99.9205 128.767 100.399 128.2C100.522 128.039 100.609 127.854 100.657 127.657C100.704 127.46 100.711 127.255 100.675 127.056C100.64 126.857 100.563 126.667 100.451 126.499C100.338 126.33 100.192 126.187 100.021 126.078L99.4167 126.787Z" fill="#E6E6E6"/>
<path d="M114.923 142.733C114.798 142.767 114.681 142.825 114.579 142.904C114.476 142.983 114.391 143.083 114.328 143.196C114.264 143.309 114.224 143.433 114.21 143.562C114.196 143.691 114.207 143.821 114.244 143.945L115.138 144.007C115.441 143.855 115.743 143.703 116.046 143.551C116.028 143.423 115.984 143.3 115.917 143.189C115.85 143.078 115.762 142.981 115.657 142.905C115.553 142.829 115.434 142.774 115.308 142.745C115.182 142.715 115.051 142.711 114.923 142.733Z" fill="#E6E6E6"/>
<path d="M111.289 143.839C111.034 144.021 110.828 144.264 110.693 144.547C110.557 144.83 110.496 145.143 110.515 145.456C110.544 145.768 110.672 146.063 110.88 146.298C111.088 146.533 111.365 146.696 111.671 146.763C111.981 146.811 112.297 146.74 112.556 146.565C112.815 146.389 112.998 146.121 113.067 145.816C113.218 144.891 112.225 144.214 111.868 143.348L111.289 143.839Z" fill="#E6E6E6"/>
<path d="M146.006 137.733C146.1 138.427 145.475 139.035 145.452 139.735C145.424 140.566 146.328 141.212 147.155 141.131C147.566 141.059 147.954 140.894 148.29 140.647C148.626 140.401 148.9 140.08 149.09 139.709L149.108 139.631C148.705 139.176 148.302 138.721 147.9 138.265C147.405 137.706 146.881 137.07 146.9 136.323C146.909 135.956 147.054 135.599 147.046 135.231C147.027 134.966 146.968 134.706 146.871 134.459C146.762 134.134 146.613 133.767 146.288 133.657C145.881 133.519 145.47 133.88 145.276 134.263C145.101 134.617 145.016 135.008 145.029 135.402C145.041 135.796 145.15 136.181 145.347 136.523C145.582 136.923 145.943 137.274 146.006 137.733Z" fill="#E6E6E6"/>
<path d="M142.207 140.175C142.295 140.223 142.392 140.251 142.492 140.257C142.592 140.263 142.692 140.248 142.786 140.212C143.145 140.151 143.49 140.026 143.804 139.842C143.96 139.748 144.089 139.615 144.176 139.455C144.264 139.295 144.307 139.115 144.302 138.933C144.248 138.704 144.127 138.496 143.954 138.336C143.782 138.175 143.566 138.07 143.333 138.033C143.172 137.976 142.999 137.96 142.83 137.986C142.661 138.011 142.501 138.078 142.364 138.181C142.063 138.462 142.099 138.94 142.158 139.348L142.095 139.454C142.038 139.705 142.002 140.018 142.207 140.175Z" fill="#E6E6E6"/>
<path d="M205.614 169.836C205.526 169.619 205.439 169.403 205.352 169.186C205.233 169.48 205.277 169.781 205.614 169.836Z" fill="#E6E6E6"/>
<path d="M257.917 124.261C256.799 123.048 256.114 122.349 255.408 120.845C255.024 120.016 254.44 119.295 253.709 118.746C252.978 118.197 252.123 117.838 251.219 117.7C248.9 117.318 246.529 117.923 244.182 117.802C240.421 117.607 237.03 115.59 233.429 114.49C231.412 113.925 229.359 113.502 227.283 113.223C226.088 113.034 224.892 112.844 223.696 112.655C219.776 112.035 215.831 111.414 211.863 111.496C210.719 111.52 209.125 111.176 209.217 110.035C209.331 108.618 211.88 108.804 212.37 107.47C212.673 106.645 211.947 105.778 211.151 105.405C210.355 105.032 209.436 104.92 208.713 104.419C207.991 103.918 207.595 102.756 208.259 102.18C206.418 103.124 204.578 104.067 202.737 105.011C201.207 105.795 199.497 106.816 199.227 108.514C198.304 108.758 197.497 109.319 196.947 110.098C195.912 110.103 195.098 111.097 194.928 112.119C194.757 113.14 195.067 114.173 195.374 115.162C194.999 114.443 194.6 113.696 193.938 113.227C193.276 112.757 192.268 112.668 191.704 113.251C191.125 113.849 191.26 114.853 191.67 115.578C192.079 116.303 192.709 116.888 193.095 117.626C194.303 119.929 192.115 123.173 189.527 122.916C189.7 120.537 189.874 118.159 190.048 115.78C190.158 115.048 190.096 114.301 189.868 113.597C189.586 112.916 188.863 112.357 188.143 112.518C186.85 112.807 186.96 114.702 187.498 115.913C188.036 117.124 188.573 118.809 187.474 119.55C186.765 120.03 185.803 119.734 185.038 119.351C184.272 118.969 183.453 118.498 182.616 118.676C181.778 118.855 181.252 120.135 181.992 120.565C180.765 120.352 179.539 120.139 178.312 119.926C178.251 120.287 178.116 120.631 177.913 120.937C177.711 121.242 177.447 121.501 177.139 121.698C176.83 121.895 176.484 122.025 176.122 122.08C175.76 122.134 175.39 122.113 175.037 122.015C174.917 121.516 174.796 121.017 174.676 120.518C174.496 120.469 174.317 120.419 174.137 120.369C174.701 120.525 173.819 122.901 173.029 124.716C171.967 124.592 170.414 124.568 170.237 124.263C169.389 122.806 169.49 119.333 168.016 118.513C167.277 118.102 166.519 117.727 165.742 117.389C165.334 117.195 164.903 117.053 164.459 116.968C163.554 116.825 162.642 117.106 161.768 117.383C160.736 117.711 159.68 118.051 158.826 118.716C158.096 119.349 157.471 120.093 156.972 120.92C155.285 123.417 153.598 125.914 151.911 128.411C151.409 129.078 151.013 129.819 150.739 130.608C150.61 131 150.567 131.415 150.613 131.826C150.659 132.236 150.793 132.631 151.006 132.985C151.23 133.332 151.565 133.593 151.956 133.727C152.347 133.86 152.771 133.859 153.161 133.722C153.65 133.51 154.14 133.03 154.624 133.252C154.991 133.42 155.083 133.902 155.044 134.304C154.951 134.697 154.944 135.106 155.023 135.502C155.244 136.127 156.092 136.345 156.697 136.074C157.286 135.753 157.727 135.216 157.928 134.576C158.511 133.081 158.451 131.425 158.597 129.826C158.742 128.228 159.179 126.517 160.44 125.523C160.817 125.225 161.371 125.011 161.76 125.294C161.905 125.426 162.006 125.6 162.048 125.793C162.089 125.985 162.07 126.185 161.992 126.365C161.83 126.723 161.618 127.055 161.363 127.354C160.932 127.96 160.631 128.648 160.477 129.375C160.324 130.103 160.322 130.854 160.472 131.582L160.729 131.742C161.712 131.487 163.028 131.943 164.333 132.381C163.386 132.663 162.551 133.236 161.95 134.02C160.441 136.137 159.349 138.14 156.365 138.114C155.657 138.109 154.955 137.969 154.247 137.967C153.533 137.923 152.829 138.157 152.284 138.621C151.747 139.147 151.581 139.947 151.122 140.541C150.518 141.323 149.509 141.641 148.587 141.996C147.914 142.255 147.204 142.605 146.894 143.257C146.7 143.792 146.655 144.369 146.765 144.928C146.868 145.915 147.052 147.038 147.89 147.571C148.203 147.735 148.546 147.834 148.898 147.864C149.25 147.894 149.604 147.853 149.941 147.745C150.812 147.533 151.664 147.134 152.559 147.193C153.964 147.287 155.121 148.636 155.135 150.044C155.142 150.756 154.934 151.574 155.407 152.108C155.851 152.609 156.731 152.52 157.191 152.033C157.405 151.774 157.552 151.466 157.619 151.137C157.687 150.808 157.673 150.468 157.578 150.146C157.383 149.504 157.083 148.898 156.69 148.355C157.157 148.233 157.652 148.278 158.091 148.481C158.529 148.683 158.884 149.032 159.095 149.466C159.407 150.16 159.306 150.96 159.405 151.714C159.505 152.467 159.964 153.305 160.723 153.348C160.971 153.355 161.214 153.275 161.409 153.122C161.605 152.969 161.74 152.752 161.792 152.509C161.8 152.127 161.779 151.744 161.73 151.365C161.756 150.991 161.924 150.642 162.199 150.388C162.474 150.134 162.836 149.996 163.211 150C162.98 150.427 162.905 150.921 162.998 151.397C163.091 151.873 163.348 152.302 163.723 152.609C164.3 153.056 165.064 153.156 165.784 153.281C166.503 153.406 167.271 153.604 167.735 154.167C168.509 155.106 167.562 155.529 167.415 156.325C167.234 157.301 168.049 158.743 168.363 159.676C169.802 161.69 171.241 163.704 172.681 165.717C173.002 166.207 173.381 166.656 173.809 167.055C175.23 168.276 177.573 168.155 178.935 166.87C179.596 166.202 180.025 165.339 180.159 164.409C180.293 163.479 180.126 162.53 179.682 161.702C178.84 160.17 177.171 159.22 176.347 157.678C177.718 158.813 179.402 159.505 181.175 159.663C184.313 160.301 187.294 161.551 189.947 163.342C190.072 166.114 191.136 168.762 192.964 170.85C193.292 168.484 194.395 166.293 196.101 164.62C197.209 163.539 198.725 162.667 200.246 162.958C201.767 163.249 202.921 165.189 202.001 166.435C202.772 166.492 203.543 166.549 204.314 166.607C204.66 167.466 205.006 168.326 205.352 169.186C205.413 169.005 205.531 168.849 205.688 168.74C205.845 168.631 206.032 168.576 206.223 168.581C206.945 168.69 207.451 169.362 208.138 169.61C209.432 170.077 210.815 168.782 210.983 167.416C211.15 166.051 210.5 164.732 209.869 163.509C211.264 163.767 212.703 163.613 214.012 163.066C215.32 162.519 216.44 161.602 217.235 160.428C218.031 159.253 218.466 157.873 218.489 156.455C218.512 155.037 218.12 153.643 217.363 152.444C218.863 150.868 220.629 149.568 222.58 148.603C224.385 147.711 226.359 147.099 227.937 145.848C229.514 144.597 230.621 142.425 229.862 140.56C229.326 139.243 227.982 138.349 227.579 136.985C226.997 135.01 228.766 132.967 230.765 132.474C232.764 131.98 234.851 132.587 236.82 133.189C236.518 131.162 238.866 129.263 240.784 129.982C241.588 129.657 242.391 129.332 243.194 129.007C242.263 131.06 240.245 132.366 238.762 134.063C237.278 135.76 236.394 138.524 237.944 140.162C240.166 138.148 242.387 136.134 244.609 134.121C246.933 132.015 249.257 129.908 251.58 127.802C251.469 127.476 251.358 127.15 251.248 126.824C253.446 125.989 255.814 125.298 257.917 124.261Z" fill="#E6E6E6"/>
<path d="M142.524 151.361C142.435 151.491 142.387 151.644 142.388 151.802C142.388 151.959 142.438 152.112 142.529 152.241C142.648 152.342 142.799 152.399 142.956 152.401C143.112 152.403 143.265 152.35 143.387 152.252C143.625 152.048 143.812 151.791 143.93 151.5C144.045 151.723 144.227 151.906 144.449 152.022C144.672 152.139 144.925 152.184 145.174 152.152C145.672 152.077 146.144 151.88 146.547 151.579C146.867 151.392 147.15 151.146 147.381 150.856C147.495 150.71 147.574 150.539 147.61 150.357C147.646 150.175 147.64 149.987 147.591 149.808C147.471 149.533 147.285 149.293 147.049 149.108C146.461 148.565 145.873 148.022 145.285 147.479L145.086 147.42C144.982 147.309 144.857 147.221 144.719 147.16C144.58 147.099 144.431 147.067 144.279 147.065C144.128 147.064 143.978 147.093 143.838 147.151C143.698 147.209 143.571 147.294 143.465 147.402C143.1 147.811 143.099 148.421 143.154 148.966C143.21 149.512 143.297 150.092 143.054 150.584C142.915 150.865 142.679 151.088 142.524 151.361Z" fill="#E6E6E6"/>
<path d="M176.631 169.91C174.346 169.402 172.255 168.25 170.605 166.591C168.954 164.932 167.813 162.835 167.316 160.548C167.099 159.468 167.001 158.289 166.283 157.455C165.588 156.647 164.452 156.355 163.387 156.355C162.321 156.356 161.271 156.601 160.207 156.667C158.347 156.783 156.377 156.292 155.047 154.987C154.417 154.369 153.941 153.584 153.205 153.096C152.217 152.441 150.906 152.442 149.78 152.813C148.526 153.227 147.521 154.358 146.15 154.202C144.723 154.04 143.07 153.536 142.511 155.414C142.349 155.955 142.404 156.548 142.2 157.075C141.886 157.886 141.052 158.343 140.392 158.909C139.062 160.05 138.356 161.784 138.118 163.519C137.88 165.255 138.064 167.018 138.248 168.76C138.348 169.699 138.479 170.711 139.124 171.401C140.024 172.363 141.534 172.326 142.846 172.217C144.371 172.091 145.897 171.965 147.422 171.839C148.244 171.772 149.18 171.743 149.766 172.324C150.116 172.672 150.265 173.176 150.573 173.563C150.85 173.891 151.23 174.117 151.652 174.201C152.073 174.286 152.511 174.226 152.893 174.03C152.584 174.583 152.415 175.203 152.403 175.836C152.39 176.469 152.534 177.096 152.821 177.66C153.109 178.224 153.531 178.709 154.05 179.071C154.569 179.433 155.17 179.662 155.799 179.737L155.916 179.811C154.94 181.483 153.927 183.36 154.332 185.254C154.679 186.877 156.023 188.179 156.243 189.824C156.445 191.334 155.657 192.878 156.006 194.361C156.359 195.862 157.875 196.909 159.413 197.021C160.952 197.133 162.463 196.45 163.655 195.471C164.847 194.492 165.768 193.23 166.676 191.983C167.237 191.213 167.812 190.412 168.004 189.479C168.209 188.487 167.972 187.387 168.454 186.495C169.011 185.468 170.332 185.082 170.999 184.123C171.863 182.88 171.354 181.187 171.545 179.686C172.017 175.97 176.738 173.654 176.631 169.91Z" fill="#E6E6E6"/>
<path d="M175.951 182.595C175.822 183.175 175.278 183.557 174.761 183.849C174.243 184.141 173.674 184.435 173.41 184.968C173.14 185.514 173.263 186.164 173.405 186.756C173.699 187.988 174.045 189.205 174.443 190.409C175.216 188.949 175.89 187.44 176.462 185.891C176.704 185.314 176.854 184.702 176.905 184.079C176.929 183.767 176.887 183.453 176.782 183.159C176.677 182.864 176.512 182.594 176.296 182.367L175.951 182.595Z" fill="#E6E6E6"/>
<path d="M207.719 176.132C207.071 175.383 206.422 174.635 205.773 173.886C205.33 173.374 204.824 172.827 204.152 172.741L203.875 172.918C204.437 174.257 205 175.596 205.562 176.936C205.761 177.547 206.112 178.099 206.581 178.538C207.085 178.934 207.901 179.01 208.321 178.527C208.456 178.345 208.542 178.132 208.569 177.907C208.595 177.682 208.563 177.455 208.474 177.247C208.29 176.833 208.035 176.456 207.719 176.132Z" fill="#E6E6E6"/>
<path d="M214.005 177.566C214.25 177.481 214.475 177.346 214.664 177.169C214.854 176.992 215.005 176.777 215.107 176.539C215.308 176.061 215.441 175.557 215.502 175.042C215.613 174.371 215.723 173.701 215.834 173.03L215.689 172.993C215.548 172.925 215.388 172.911 215.237 172.953C215.087 172.994 214.956 173.089 214.87 173.22C214.707 173.486 214.583 173.775 214.503 174.077C214.462 174.228 214.388 174.368 214.285 174.486C214.182 174.604 214.054 174.697 213.911 174.758C213.39 174.916 212.897 174.364 212.353 174.385C212.134 174.413 211.93 174.515 211.776 174.673C211.621 174.832 211.525 175.038 211.503 175.258C211.471 175.703 211.597 176.144 211.859 176.505C212.322 177.225 213.182 177.803 214.005 177.566Z" fill="#E6E6E6"/>
<path d="M217.592 178.838L219.086 174.9C218.481 175.34 218.017 175.946 217.751 176.646C217.485 177.345 217.43 178.107 217.592 178.838Z" fill="#E6E6E6"/>
<path d="M225.221 175.664L224.919 175.677C224.784 175.944 224.712 176.239 224.709 176.538C224.706 176.838 224.772 177.134 224.902 177.404C225.168 177.941 225.554 178.411 226.03 178.775C226.769 179.384 227.612 179.855 228.518 180.164C229.848 180.552 231.222 180.763 232.606 180.793C233.398 180.845 234.189 180.897 234.981 180.949C235.358 180.974 235.845 180.926 235.95 180.563C236.037 180.263 235.781 179.981 235.543 179.78C233.449 178.018 230.911 176.866 228.206 176.45C227.18 176.294 226.091 176.23 225.221 175.664Z" fill="#E6E6E6"/>
<path d="M233.668 186.113C233.099 185.561 232.53 185.009 231.961 184.457C231.407 183.921 230.578 183.352 229.944 183.79C229.579 184.042 229.467 184.533 229.158 184.851C228.97 185.02 228.742 185.139 228.496 185.197C228.25 185.256 227.994 185.252 227.75 185.186C227.264 185.05 226.804 184.832 226.391 184.542L224.978 183.666C224.491 183.363 224.004 183.061 223.516 182.758L222.417 183.827C222.464 183.301 221.763 182.959 221.278 183.167C221.047 183.297 220.848 183.477 220.697 183.693C220.545 183.91 220.444 184.158 220.402 184.42C220.321 184.942 220.18 185.453 219.981 185.942C219.423 187.011 218.067 187.328 216.874 187.507C215.681 187.686 214.33 187.938 213.692 188.961C213.16 189.814 213.319 190.908 213.497 191.897L214.169 195.638C214.201 196.091 214.383 196.521 214.686 196.859C215.276 197.38 216.191 197.064 216.912 196.746C218.419 196.021 220.035 195.552 221.696 195.359C223.371 195.172 225.057 195.603 226.436 196.573C227.291 197.224 227.943 198.125 228.848 198.703C229.472 199.078 230.174 199.306 230.899 199.37C231.624 199.433 232.354 199.33 233.034 199.068C234.396 198.526 235.523 197.521 236.217 196.23C236.833 195.091 237.143 193.812 237.114 192.518C237.086 191.223 236.722 189.958 236.056 188.848C235.377 187.841 234.575 186.922 233.668 186.113Z" fill="#E6E6E6"/>
<path d="M231.99 201.353C231.854 201.519 231.774 201.724 231.762 201.939C231.751 202.153 231.808 202.366 231.926 202.546C232.174 202.901 232.552 203.144 232.979 203.223C233.401 203.298 233.831 203.318 234.258 203.282L234.271 202.962C234.157 202.402 233.899 201.882 233.522 201.452C233.109 201.06 232.381 200.94 231.99 201.353Z" fill="#E6E6E6"/>
<path d="M246.646 201.695L246.442 201.62C245.957 202.352 245.471 203.084 244.985 203.816C244.724 204.21 244.451 204.683 244.611 205.128C244.8 205.654 245.497 205.809 246.039 205.67C246.452 205.557 246.825 205.33 247.114 205.013C247.402 204.696 247.595 204.304 247.668 203.881C247.728 203.457 247.663 203.025 247.482 202.636C247.3 202.248 247.01 201.921 246.646 201.695Z" fill="#E6E6E6"/>
<path d="M250.348 199.372L249.007 198.306C248.989 198.801 248.972 199.295 248.954 199.79L248.903 199.79C249.212 200.062 249.504 200.352 249.777 200.66C250.091 200.926 250.618 201.048 250.886 200.736C250.966 200.624 251.012 200.491 251.017 200.353C251.022 200.216 250.987 200.079 250.915 199.962C250.767 199.729 250.575 199.529 250.348 199.372Z" fill="#E6E6E6"/>
<path d="M226.125 152.999C225.563 152.982 224.94 152.947 224.504 153.303C224.361 153.432 224.235 153.578 224.13 153.74L223.976 153.955C223.746 154.256 223.546 154.579 223.377 154.918C223.289 155.077 223.237 155.253 223.223 155.435C223.208 155.616 223.233 155.798 223.296 155.969C223.332 156.05 223.385 156.123 223.453 156.182C223.52 156.24 223.599 156.284 223.685 156.308C223.771 156.333 223.861 156.338 223.949 156.324C224.037 156.31 224.121 156.277 224.195 156.227C224.435 156.004 224.379 155.6 224.561 155.327C224.641 155.225 224.744 155.142 224.861 155.086C224.979 155.03 225.108 155.001 225.238 155.004C225.498 155.01 225.756 155.039 226.011 155.091C226.716 155.188 227.435 155.08 228.081 154.782C228.727 154.484 229.274 154.006 229.658 153.407C230.042 152.807 230.246 152.11 230.247 151.399C230.247 150.687 230.044 149.989 229.661 149.389L229.616 149.251C229.226 149.236 228.844 149.358 228.535 149.596C228.226 149.834 228.011 150.173 227.926 150.554C227.8 151.209 228.067 151.971 227.67 152.507C227.335 152.959 226.688 153.017 226.125 152.999Z" fill="#E6E6E6"/>
<path d="M231.162 146.05L231.076 146.043C230.573 146.135 230.09 146.315 229.65 146.575C229.505 146.642 229.39 146.759 229.325 146.904C229.306 146.982 229.306 147.062 229.326 147.139C229.345 147.216 229.384 147.287 229.438 147.346C229.547 147.461 229.675 147.557 229.817 147.63C230.027 147.771 230.259 147.875 230.504 147.938C230.627 147.968 230.755 147.968 230.878 147.936C231 147.904 231.113 147.843 231.206 147.757C231.293 147.637 231.353 147.5 231.381 147.355C231.41 147.209 231.406 147.06 231.371 146.916C231.33 146.621 231.261 146.331 231.162 146.05Z" fill="#E6E6E6"/>
<path d="M222.491 153.166C222.625 152.951 222.721 152.713 222.773 152.465C222.826 152.272 222.878 152.079 222.931 151.886L222.37 151.545C222.102 151.684 221.855 151.861 221.636 152.068C221.527 152.173 221.441 152.299 221.383 152.439C221.325 152.578 221.296 152.728 221.299 152.879C221.307 153.03 221.365 153.174 221.465 153.288C221.565 153.401 221.701 153.478 221.85 153.504C221.977 153.508 222.102 153.479 222.215 153.42C222.327 153.36 222.422 153.273 222.491 153.166Z" fill="#E6E6E6"/>
<path d="M161.398 101.016C161.176 101.154 161.238 101.488 161.328 101.734C161.432 102.015 161.535 102.297 161.638 102.579L161.783 102.032C161.91 101.82 161.966 101.573 161.943 101.327C161.893 101.086 161.606 100.886 161.398 101.016Z" fill="#E6E6E6"/>
<path d="M301.414 151.756H207.616C205.355 151.754 203.188 150.854 201.589 149.256C199.991 147.657 199.091 145.49 199.089 143.229V76.1243C199.091 73.8635 199.991 71.6961 201.589 70.0975C203.188 68.499 205.355 67.5997 207.616 67.5972H301.414C303.675 67.5997 305.843 68.499 307.441 70.0975C309.04 71.6961 309.939 73.8635 309.941 76.1243V143.229C309.939 145.49 309.04 147.657 307.441 149.256C305.843 150.854 303.675 151.754 301.414 151.756Z" fill="white"/>
<path d="M301.414 151.756H207.616C205.355 151.754 203.188 150.854 201.589 149.256C199.991 147.657 199.091 145.49 199.089 143.229V76.1243C199.091 73.8635 199.991 71.6961 201.589 70.0975C203.188 68.499 205.355 67.5997 207.616 67.5972H301.414C303.675 67.5997 305.843 68.499 307.441 70.0975C309.04 71.6961 309.939 73.8635 309.941 76.1243V143.229C309.939 145.49 309.04 147.657 307.441 149.256C305.843 150.854 303.675 151.754 301.414 151.756ZM207.616 68.3387C205.552 68.341 203.573 69.162 202.113 70.6216C200.654 72.0812 199.833 74.0601 199.83 76.1243V143.229C199.833 145.293 200.654 147.272 202.113 148.732C203.573 150.191 205.552 151.012 207.616 151.015H301.414C303.479 151.012 305.457 150.191 306.917 148.732C308.377 147.272 309.198 145.293 309.2 143.229V76.1243C309.198 74.0601 308.377 72.0812 306.917 70.6216C305.457 69.162 303.479 68.341 301.414 68.3387H207.616Z" fill="#3F3D56"/>
<path d="M233.136 77.8141H218.306C217.913 77.8141 217.536 77.6579 217.258 77.3797C216.979 77.1016 216.823 76.7244 216.823 76.3311C216.823 75.9378 216.979 75.5606 217.258 75.2825C217.536 75.0044 217.913 74.8481 218.306 74.8481H233.136C233.529 74.8481 233.906 75.0044 234.185 75.2825C234.463 75.5606 234.619 75.9378 234.619 76.3311C234.619 76.7244 234.463 77.1016 234.185 77.3797C233.906 77.6579 233.529 77.8141 233.136 77.8141Z" fill="#CCCCCC"/>
<path d="M265.391 111.181H218.306C217.913 111.181 217.536 111.025 217.258 110.747C216.979 110.469 216.823 110.092 216.823 109.698C216.823 109.305 216.979 108.928 217.258 108.65C217.536 108.372 217.913 108.215 218.306 108.215H265.391C265.784 108.215 266.161 108.372 266.439 108.65C266.717 108.928 266.874 109.305 266.874 109.698C266.874 110.092 266.717 110.469 266.439 110.747C266.161 111.025 265.784 111.181 265.391 111.181Z" fill="#CCCCCC"/>
<path d="M226.646 101.82C232.137 101.82 236.589 97.3679 236.589 91.8766C236.589 86.3852 232.137 81.9336 226.646 81.9336C221.155 81.9336 216.703 86.3852 216.703 91.8766C216.703 97.3679 221.155 101.82 226.646 101.82Z" fill="white"/>
<path d="M219.048 139.502H216.823V140.243H219.048V139.502Z" fill="#3F3D56"/>
<path d="M284.362 140.243H279.697V139.502H284.362V140.243ZM275.032 140.243H270.366V139.502H275.032V140.243ZM265.701 140.243H261.036V139.502H265.701V140.243ZM256.371 140.243H251.705V139.502H256.371L256.371 140.243ZM247.04 140.243H242.375V139.502H247.04V140.243ZM237.71 140.243H233.044V139.502H237.71L237.71 140.243ZM228.379 140.243H223.714V139.502H228.379V140.243Z" fill="#3F3D56"/>
<path d="M291.252 139.502H289.027V140.243H291.252V139.502Z" fill="#3F3D56"/>
<path d="M254.581 126.382H252.728V138.987H254.581V126.382Z" fill="white"/>
<path d="M273.489 126.382H271.636V138.987H273.489V126.382Z" fill="white"/>
<path d="M282.757 133.427H280.903V138.988H282.757V133.427Z" fill="white"/>
<path d="M263.849 120.821H261.995V138.987H263.849V120.821Z" fill="white"/>
<path d="M84.4081 151.593C85.6366 151.593 86.6325 150.597 86.6325 149.369C86.6325 148.14 85.6366 147.144 84.4081 147.144C83.1795 147.144 82.1836 148.14 82.1836 149.369C82.1836 150.597 83.1795 151.593 84.4081 151.593Z" fill="white"/>
<path d="M90.3407 140.841C91.5692 140.841 92.5651 139.845 92.5651 138.617C92.5651 137.388 91.5692 136.392 90.3407 136.392C89.1121 136.392 88.1162 137.388 88.1162 138.617C88.1162 139.845 89.1121 140.841 90.3407 140.841Z" fill="white"/>
<path d="M155.591 132.315C156.819 132.315 157.815 131.319 157.815 130.09C157.815 128.862 156.819 127.866 155.591 127.866C154.362 127.866 153.366 128.862 153.366 130.09C153.366 131.319 154.362 132.315 155.591 132.315Z" fill="white"/>
<path d="M104.531 289.105L107.886 289.104L109.482 276.163L104.53 276.163L104.531 289.105Z" fill="#FFB6B6"/>
<path d="M104.412 292.604L114.73 292.604V292.473C114.73 291.408 114.307 290.387 113.554 289.634C112.8 288.881 111.779 288.458 110.714 288.458L108.829 287.028L105.313 288.458L104.412 288.458L104.412 292.604Z" fill="#2F2E41"/>
<path d="M129.74 289.105L133.095 289.104L134.691 276.163L129.739 276.163L129.74 289.105Z" fill="#FFB6B6"/>
<path d="M129.623 292.604L139.941 292.604V292.473C139.941 291.408 139.518 290.387 138.765 289.634C138.011 288.881 136.99 288.458 135.925 288.458L134.04 287.028L130.524 288.458L129.623 288.458L129.623 292.604Z" fill="#2F2E41"/>
<path d="M104.4 183.828L110.355 182.975C112.369 186.342 113.084 195.305 113.084 195.305L118.912 209.156C119.298 209.418 119.608 209.777 119.811 210.197C120.014 210.617 120.102 211.083 120.068 211.549C120.033 212.014 119.877 212.462 119.615 212.847C119.352 213.233 118.992 213.543 118.572 213.745C118.152 213.948 117.686 214.036 117.22 214.001C116.755 213.966 116.307 213.809 115.922 213.546C115.537 213.283 115.228 212.923 115.026 212.503C114.824 212.082 114.736 211.616 114.772 211.15L105.204 195.029L104.4 183.828Z" fill="#FFB6B6"/>
<path d="M107.626 167.297C106.704 167.44 105.826 167.784 105.052 168.305C104.279 168.826 103.629 169.511 103.151 170.312C102.672 171.112 102.376 172.008 102.283 172.936C102.19 173.864 102.302 174.801 102.613 175.681L103.876 179.262C103.876 179.262 102.284 190.046 104.908 193.09L112.957 192.361C112.957 192.361 111.485 186.921 112.615 184.288C113.307 182.676 113.269 177.108 112.587 172.579C112.066 169.12 111.083 166.762 107.626 167.297Z" fill="#3F3D56"/>
<path d="M135.386 199.79C135.386 199.79 141.591 205.84 140.266 207.238C138.941 208.636 135.91 210.593 138.723 210.912C141.536 211.231 142.703 211.922 140.266 212.503C137.829 213.084 138.205 214.577 138.205 214.577C138.205 214.577 141.874 232.044 139.094 243.537C139.094 243.537 137.546 274.929 136.575 277.374C135.604 279.818 135.233 278.335 135.604 279.818C135.975 281.301 136.716 278.706 135.975 281.301C135.57 282.657 135.25 284.036 135.016 285.432L127.763 284.319C127.763 284.319 126.595 280.639 127.763 279.672C128.931 278.706 129.978 279.302 128.713 277.15C127.448 274.999 127.077 277.965 127.448 274.999C127.818 272.033 126.271 255.992 128.713 247.514L124.2 223.726L117.034 248.357C117.034 248.357 113.234 278.439 111.999 279.5C110.764 280.56 108.91 278.706 110.764 280.56C112.618 282.414 112.586 282.095 112.618 282.414C112.963 285.814 102.349 282.095 102.349 282.095C102.408 281.231 102.408 280.364 102.349 279.5C102.237 278.706 103.573 278.452 102.349 277.652C101.125 276.852 102.946 277.646 102.946 277.646C102.946 277.646 105.683 255.453 107.766 248.728L110.176 215.978C110.176 215.978 110.329 216.631 110.176 215.043C110.023 213.455 108.91 214.567 110.023 213.455C111.135 212.343 111.876 211.776 111.135 210.947C110.393 210.118 108.348 208.442 109.556 207.426C110.764 206.411 113.142 199.79 113.142 199.79L136.313 199.975" fill="#2F2E41"/>
<path d="M126.674 163.021L122.496 158.316L115.894 159.05L111.667 164.965C109.417 165.482 107.451 166.842 106.173 168.765C104.896 170.687 104.403 173.027 104.798 175.301C106.438 184.746 112.012 193.906 110.172 198.566C107.378 205.64 107.207 208.525 113.895 207.533C120.583 206.542 142.989 204.255 138.645 199.911C134.301 195.567 133.347 188.308 133.347 188.308L133.172 171.701C133.357 170.7 133.333 169.671 133.1 168.679C132.868 167.687 132.433 166.754 131.822 165.939C131.212 165.124 130.439 164.444 129.553 163.941C128.667 163.439 127.687 163.126 126.674 163.021Z" fill="#3F3D56"/>
<path d="M125.532 181.232L131.487 180.379C133.5 183.747 134.216 192.71 134.216 192.71L140.043 206.56C140.429 206.822 140.739 207.181 140.942 207.602C141.145 208.022 141.234 208.488 141.2 208.953C141.165 209.418 141.009 209.866 140.746 210.252C140.484 210.637 140.124 210.947 139.704 211.149C139.284 211.352 138.817 211.44 138.352 211.405C137.887 211.37 137.439 211.213 137.054 210.95C136.669 210.687 136.359 210.327 136.157 209.907C135.955 209.486 135.868 209.02 135.903 208.555L126.335 192.433L125.532 181.232Z" fill="#FFB6B6"/>
<path d="M128.76 164.702C127.838 164.845 126.959 165.189 126.186 165.71C125.412 166.231 124.763 166.916 124.284 167.716C123.806 168.517 123.509 169.413 123.416 170.341C123.323 171.269 123.436 172.206 123.746 173.085L125.01 176.667C125.01 176.667 123.418 187.451 126.041 190.495L134.091 189.766C134.091 189.766 132.619 184.326 133.749 181.693C134.441 180.081 134.402 174.513 133.721 169.984C133.2 166.525 132.216 164.167 128.76 164.702Z" fill="#3F3D56"/>
<path d="M117.379 157.912C121.786 157.912 125.359 154.339 125.359 149.932C125.359 145.525 121.786 141.953 117.379 141.953C112.972 141.953 109.399 145.525 109.399 149.932C109.399 154.339 112.972 157.912 117.379 157.912Z" fill="#FFB6B6"/>
<path d="M115.911 157.743C118.134 157.187 118.209 156.552 120.432 155.995C121.139 155.817 121.959 155.538 122.169 154.839C122.219 154.584 122.209 154.32 122.139 154.069C122.07 153.818 121.943 153.587 121.769 153.393C121.419 153.01 121.091 152.607 120.787 152.186C120.585 151.848 120.469 151.466 120.448 151.073C120.428 150.68 120.503 150.288 120.667 149.93C120.832 149.573 121.081 149.261 121.394 149.021C121.706 148.782 122.072 148.622 122.46 148.556C123.147 148.438 123.856 148.62 124.548 148.532C125.497 148.411 126.893 144.891 126.284 144.152C125.692 143.434 124.72 143.005 124.394 142.133C124.18 141.563 124.297 140.925 124.202 140.323C124.061 139.432 122.256 141.901 122.496 141.031C123.086 138.895 113.115 138.559 112.077 141.298C111.689 142.322 110.639 142.485 109.831 143.224C109.302 143.708 108.035 145.258 107.852 146.093C107.7 146.938 107.729 147.805 107.937 148.638C108.766 152.54 110.134 155.999 113.777 157.625" fill="#2F2E41"/>
<path d="M52.9857 293.11L197.474 293.224C197.532 293.225 197.59 293.213 197.644 293.191C197.697 293.169 197.746 293.137 197.787 293.096C197.828 293.055 197.861 293.006 197.883 292.952C197.906 292.899 197.917 292.841 197.917 292.783C197.917 292.725 197.906 292.667 197.883 292.614C197.861 292.56 197.828 292.511 197.787 292.47C197.746 292.429 197.697 292.397 197.644 292.375C197.59 292.353 197.532 292.341 197.474 292.341L52.9857 292.228C52.9276 292.227 52.8701 292.239 52.8164 292.261C52.7627 292.283 52.7138 292.315 52.6727 292.356C52.6316 292.397 52.599 292.446 52.5767 292.5C52.5544 292.553 52.543 292.611 52.543 292.669C52.543 292.727 52.5544 292.785 52.5767 292.838C52.599 292.892 52.6316 292.941 52.6727 292.982C52.7138 293.023 52.7627 293.055 52.8164 293.077C52.8701 293.099 52.9276 293.111 52.9857 293.11Z" fill="#CACACA"/>
</svg>
