<svg width="32" height="33" viewBox="0 0 32 33" fill="none" xmlns="http://www.w3.org/2000/svg">
<g clip-path="url(#clip0_87_883)">
<path d="M16 32.234C24.8366 32.234 32 25.0182 32 16.117C32 7.21583 24.8366 0 16 0C7.16344 0 0 7.21583 0 16.117C0 25.0182 7.16344 32.234 16 32.234Z" fill="white"/>
<path d="M20.022 16.748H17.167V27.2839H12.8414V16.748H10.7842V13.0452H12.8414V10.6491C12.8414 8.93567 13.6495 6.25256 17.2055 6.25256L20.4096 6.26607V9.8602H18.0848C17.7035 9.8602 17.1673 10.0521 17.1673 10.8695V13.0487H20.3999L20.022 16.748Z" fill="#177C2C"/>
</g>
<defs>
<clipPath id="clip0_87_883">
<rect width="32" height="32.234" fill="white"/>
</clipPath>
</defs>
</svg>
