<svg width="32" height="33" viewBox="0 0 32 33" fill="none" xmlns="http://www.w3.org/2000/svg">
<path d="M19.0625 16.117C19.0625 17.8208 17.6914 19.2019 16 19.2019C14.3086 19.2019 12.9375 17.8208 12.9375 16.117C12.9375 14.4132 14.3086 13.0321 16 13.0321C17.6914 13.0321 19.0625 14.4132 19.0625 16.117Z" fill="white"/>
<path d="M23.1621 10.6589C23.0149 10.257 22.78 9.89332 22.4749 9.59477C22.1785 9.28736 21.8176 9.05078 21.4185 8.90249C21.0947 8.77583 20.6084 8.62508 19.7126 8.58401C18.7437 8.5395 18.4531 8.52991 16 8.52991C13.5466 8.52991 13.2561 8.53925 12.2874 8.58377C11.3916 8.62508 10.905 8.77583 10.5815 8.90249C10.1824 9.05078 9.82129 9.28736 9.52515 9.59477C9.21997 9.89332 8.98511 10.2568 8.83765 10.6589C8.71191 10.985 8.56226 11.4751 8.52148 12.3774C8.47729 13.3533 8.46777 13.6459 8.46777 16.1172C8.46777 18.5883 8.47729 18.8809 8.52148 19.857C8.56226 20.7593 8.71191 21.2492 8.83765 21.5753C8.98511 21.9774 9.21973 22.3409 9.5249 22.6394C9.82129 22.9468 10.1821 23.1834 10.5813 23.3317C10.905 23.4586 11.3916 23.6094 12.2874 23.6504C13.2561 23.6949 13.5464 23.7043 15.9998 23.7043C18.4534 23.7043 18.7439 23.6949 19.7124 23.6504C20.6082 23.6094 21.0947 23.4586 21.4185 23.3317C22.2197 23.0204 22.853 22.3824 23.1621 21.5753C23.2878 21.2492 23.4375 20.7593 23.4785 19.857C23.5227 18.8809 23.532 18.5883 23.532 16.1172C23.532 13.6459 23.5227 13.3533 23.4785 12.3774C23.4377 11.4751 23.2881 10.985 23.1621 10.6589ZM16 20.8693C13.3943 20.8693 11.282 18.7417 11.282 16.117C11.282 13.4922 13.3943 11.3647 16 11.3647C18.6055 11.3647 20.7178 13.4922 20.7178 16.117C20.7178 18.7417 18.6055 20.8693 16 20.8693ZM20.9043 12.2874C20.2954 12.2874 19.8018 11.7902 19.8018 11.1768C19.8018 10.5635 20.2954 10.0662 20.9043 10.0662C21.5132 10.0662 22.0068 10.5635 22.0068 11.1768C22.0066 11.7902 21.5132 12.2874 20.9043 12.2874Z" fill="white"/>
<path d="M16 0C7.16479 0 0 7.21719 0 16.117C0 25.0168 7.16479 32.234 16 32.234C24.8352 32.234 32 25.0168 32 16.117C32 7.21719 24.8352 0 16 0ZM25.1321 19.9326C25.0876 20.9177 24.9321 21.5903 24.7051 22.1791C24.2278 23.4223 23.2522 24.405 22.0181 24.8858C21.4338 25.1145 20.7659 25.2709 19.7881 25.3159C18.8083 25.3609 18.4954 25.3717 16.0002 25.3717C13.5049 25.3717 13.1921 25.3609 12.2122 25.3159C11.2344 25.2709 10.5664 25.1145 9.98218 24.8858C9.3689 24.6534 8.81372 24.2891 8.35474 23.8182C7.88745 23.3561 7.52588 22.7966 7.29517 22.1791C7.06811 21.5906 6.9126 20.9177 6.86816 19.9328C6.823 18.9457 6.8125 18.6304 6.8125 16.117C6.8125 13.6037 6.823 13.2884 6.86792 12.3015C6.91235 11.3163 7.06763 10.6437 7.29468 10.0549C7.52539 9.43742 7.88721 8.87793 8.35474 8.41584C8.81348 7.94489 9.3689 7.58067 9.98193 7.34827C10.5664 7.11956 11.2341 6.96315 12.2122 6.91815C13.1919 6.87314 13.5049 6.86232 16 6.86232C18.4951 6.86232 18.8081 6.87314 19.7878 6.91839C20.7659 6.96315 21.4336 7.11956 22.0181 7.34803C22.6311 7.58043 23.1865 7.94489 23.6455 8.41584C24.1128 8.87818 24.4746 9.43742 24.7051 10.0549C24.9324 10.6437 25.0876 11.3163 25.1323 12.3015C25.177 13.2884 25.1875 13.6037 25.1875 16.117C25.1875 18.6304 25.177 18.9457 25.1321 19.9326Z" fill="white"/>
</svg>
