<svg width="32" height="33" viewBox="0 0 32 33" fill="none" xmlns="http://www.w3.org/2000/svg">
<rect width="32" height="32.2287" rx="16" fill="white"/>
<path d="M11.4155 14.8589C10.8741 14.8589 10.4401 14.7142 10.1135 14.4249C9.78679 14.1356 9.62346 13.7716 9.62346 13.3329C9.62346 12.8849 9.78679 12.5162 10.1135 12.2269C10.4401 11.9282 10.8741 11.7789 11.4155 11.7789C11.9475 11.7789 12.3768 11.9282 12.7035 12.2269C13.0301 12.5162 13.1935 12.8849 13.1935 13.3329C13.1935 13.7716 13.0301 14.1356 12.7035 14.4249C12.3768 14.7142 11.9475 14.8589 11.4155 14.8589ZM12.9555 15.4889V23.3849H9.84746V15.4889H12.9555ZM19.8892 15.4329C20.7945 15.4329 21.4992 15.7362 22.0032 16.3429C22.5165 16.9496 22.7732 17.7709 22.7732 18.8069V23.3849H19.6792V19.1989C19.6792 18.8256 19.5765 18.5316 19.3712 18.3169C19.1752 18.0929 18.9092 17.9809 18.5732 17.9809C18.2278 17.9809 17.9572 18.0929 17.7612 18.3169C17.5652 18.5316 17.4672 18.8256 17.4672 19.1989V23.3849H14.3592V15.4889H17.4672V16.6929C17.7098 16.3196 18.0318 16.0162 18.4332 15.7829C18.8438 15.5496 19.3292 15.4329 19.8892 15.4329Z" fill="#177C2C"/>
</svg>
