<svg width="195" height="38" viewBox="0 0 195 38" fill="none" xmlns="http://www.w3.org/2000/svg">
<mask id="path-1-inside-1_52_136" fill="white">
<path d="M27.6398 7.89893C28.1996 7.9905 28.7564 8.12181 29.3199 8.16416C30.1244 8.22463 30.8212 8.60511 31.5482 8.8738C32.1441 9.09404 32.683 9.48036 33.2275 9.82414C33.5836 10.049 33.9047 10.3293 34.2665 10.6047C34.3187 10.6414 34.3458 10.6581 34.3729 10.6748C34.3953 10.6748 34.4132 10.6837 34.4364 10.7384C34.5301 10.8251 34.6141 10.8751 34.6981 10.925C34.6981 10.925 34.694 10.9259 34.6902 10.9456C34.7116 10.9737 34.7367 10.9821 34.7619 10.9905C34.7619 10.9905 34.7563 10.9906 34.7536 11.0095C34.7755 11.0368 34.8002 11.0453 34.8249 11.0538C34.8249 11.0538 34.8192 11.0538 34.8168 11.0725C34.8389 11.0998 34.8635 11.1084 34.888 11.1171C34.888 11.1171 34.8821 11.1171 34.8799 11.1357C34.9021 11.1629 34.9266 11.1716 34.951 11.1802C34.951 11.1802 34.9451 11.1803 34.943 11.1986C34.9653 11.2259 34.9896 11.2348 35.014 11.2437C35.014 11.2437 35.0077 11.2438 35.0066 11.2616C35.0293 11.2887 35.0532 11.2979 35.0771 11.307C35.0771 11.307 35.0707 11.307 35.0695 11.3249C35.0923 11.3518 35.1162 11.361 35.1401 11.3701C35.1401 11.3701 35.1337 11.3701 35.1326 11.3879C35.1554 11.4149 35.1793 11.4241 35.2032 11.4332C35.2032 11.4332 35.1968 11.4332 35.1957 11.4509C35.2183 11.4781 35.242 11.4875 35.2658 11.4969C35.2658 11.4969 35.2591 11.4969 35.2595 11.5139C35.2829 11.5406 35.306 11.5503 35.329 11.56C35.329 11.56 35.3224 11.5601 35.3216 11.578C35.3446 11.6045 35.3686 11.6131 35.3925 11.6217C35.3925 11.6217 35.3869 11.6217 35.3836 11.6412C35.4055 11.6681 35.4307 11.6755 35.4559 11.6829C35.4559 11.6829 35.4516 11.6832 35.4458 11.7037C35.4663 11.7314 35.4924 11.7385 35.5186 11.7455C35.5186 11.7455 35.5145 11.7468 35.5068 11.7678C35.5234 11.8083 35.5477 11.8277 35.572 11.8471C35.572 11.8471 35.5708 11.8453 35.5869 11.8596C35.6176 11.8963 35.6323 11.9188 35.6469 11.9413C35.669 11.9421 35.6851 11.9522 35.7099 11.997C35.7532 12.0525 35.7819 12.0828 35.8106 12.1131C36.2172 12.6944 36.684 13.2434 37.0173 13.864C37.6223 14.9906 38.181 16.146 38.2949 17.4565C38.358 18.183 38.4721 18.9052 38.5295 19.632C38.5547 19.9513 38.5125 20.2794 38.4718 20.5997C38.3607 21.4743 38.3056 22.3681 37.9577 23.1877C37.5899 24.0544 37.2121 24.9269 36.7313 25.7327C36.3083 26.4416 35.7845 27.1066 35.217 27.7078C34.7179 28.2365 34.1196 28.6822 33.5231 29.1053C32.8924 29.5526 32.212 29.9299 31.511 30.2998C31.5839 29.1741 32.1693 28.2807 32.7565 27.4112C33.3553 26.5245 34.1007 25.7536 35.0256 25.1704C35.0023 25.1328 34.979 25.0951 34.9556 25.0575C34.5274 25.2075 34.0842 25.325 33.6739 25.5141C32.7383 25.9453 31.9234 26.5579 31.2744 27.3576C30.4792 28.3375 29.9514 29.4574 29.7169 30.7026C29.6614 30.9973 29.4445 31.014 29.2369 31.0408C29.196 31.0461 29.0758 30.8713 29.0891 30.797C29.2622 29.8353 29.6152 28.9341 30.0068 28.0416C30.4548 27.0202 30.9838 26.0474 31.6499 25.1562C32.0916 24.5652 32.5764 24.0054 33.0591 23.4465C33.4044 23.0467 33.7553 22.6463 34.1458 22.2926C34.5324 21.9424 34.9683 21.6458 35.389 21.3344C35.6783 21.1203 35.9787 20.921 36.2741 20.7151C36.2658 20.6889 36.2575 20.6626 36.2491 20.6364C36.0038 20.6795 35.7565 20.7139 35.5134 20.7672C34.5182 20.9855 33.5396 21.2795 32.6656 21.8015C31.8515 22.2877 31.0637 22.8332 30.3286 23.4316C29.7683 23.8877 29.2854 24.4476 28.812 24.999C28.4864 25.3781 28.2098 25.8065 27.9579 26.24C27.5471 26.9473 27.1147 27.6519 26.8016 28.4035C26.4648 29.2124 26.2546 30.074 25.9903 30.913C25.978 30.9523 25.9828 30.9969 25.9705 31.0362C25.9066 31.2397 25.7386 31.2964 25.574 31.2282C25.4995 31.1974 25.4292 31.0123 25.4499 30.9176C25.6881 29.8298 25.9788 28.7509 26.5326 27.7796C26.8149 27.2845 26.793 26.9019 26.4707 26.4541C25.9052 25.6684 25.3729 24.8636 24.6862 24.1681C23.9971 23.4703 23.2659 22.8299 22.4386 22.3083C21.154 21.4983 19.7706 20.924 18.2695 20.6548C18.1791 20.6386 18.0832 20.6527 17.9554 20.7084C18.1392 20.8472 18.3217 20.9879 18.5072 21.1245C18.8909 21.4068 19.3029 21.6571 19.6558 21.9736C20.6175 22.8361 21.5141 23.7583 22.303 24.7912C23.1614 25.915 23.8328 27.1401 24.3861 28.427C24.7129 29.1872 24.9183 30.0007 25.1554 30.797C25.186 30.8996 25.0789 31.0433 25.0357 31.1679C24.8765 31.0937 24.668 31.1551 24.6224 30.8502C24.5206 30.1698 24.3008 29.518 23.9356 28.9227C23.652 28.4603 23.4307 27.9506 23.0946 27.5319C22.7241 27.0703 22.2859 26.6479 21.8184 26.2838C21.3804 25.9427 20.8791 25.6734 20.3799 25.4239C20.0577 25.2628 19.6892 25.1943 19.3414 25.0842C19.3255 25.1173 19.3096 25.1503 19.2937 25.1834C19.5896 25.4334 19.8841 25.6849 20.1818 25.9326C20.3128 26.0415 20.4763 26.1217 20.5803 26.251C20.9912 26.762 21.4556 27.2484 21.7669 27.817C22.1954 28.5997 22.5091 29.4462 22.8588 30.2709C22.9471 30.4792 22.8327 30.5955 22.612 30.5372C22.4322 30.4897 22.2506 30.4304 22.0867 30.3442C21.2428 29.9006 20.383 29.4813 19.6505 28.8552C19.1775 28.4509 18.6767 28.0737 18.2431 27.6308C17.8634 27.243 17.5448 26.7914 17.2276 26.3477C16.952 25.9623 16.6982 25.5585 16.4687 25.144C16.2953 24.8308 16.174 24.4885 16.0319 24.1581C15.8931 23.8351 15.7266 23.5199 15.6277 23.1849C15.4977 22.7443 15.4162 22.2889 15.3244 21.8377C15.2453 21.449 15.1485 21.0597 15.1183 20.6661C15.0799 20.1665 15.098 19.6624 15.0981 19.1602C15.0981 19.0466 15.1389 18.9325 15.1355 18.8194C15.1133 18.0708 15.3343 17.359 15.4469 16.6303C15.5922 15.6897 16.0419 14.8702 16.4355 14.0347C16.6937 13.4869 17.097 13.0069 17.4415 12.5008C17.4788 12.446 17.5577 12.4195 17.6425 12.4008C17.9545 12.6575 18.24 12.8947 18.5283 13.1283C19.1636 13.643 19.8616 14.0974 20.4206 14.6844C21.0987 15.3965 21.6839 16.2024 22.2637 17.0009C22.6834 17.5789 23.0533 18.1972 23.4023 18.8217C24.1554 20.1695 24.6846 21.5985 24.8611 23.1443C24.8688 23.2125 24.918 23.276 24.9567 23.3611C24.9951 23.2989 25.0217 23.2742 25.0261 23.246C25.2536 21.8011 25.6658 20.4162 26.3954 19.1409C26.5202 18.9229 26.4891 18.7633 26.3668 18.5784C26.1912 18.313 26.039 18.0308 25.8487 17.7769C25.5324 17.3548 25.2033 16.9414 24.862 16.5393C24.4986 16.1111 24.1567 15.6499 23.7301 15.2934C23.0658 14.7382 22.3721 14.2005 21.6267 13.7653C20.9542 13.3726 20.2091 13.0891 19.4707 12.8293C18.8863 12.6237 18.2637 12.5272 17.658 12.3822C17.5699 12.0893 17.8384 11.9756 17.9717 11.8131C18.2325 11.4952 18.5163 11.1885 18.8299 10.9236C19.2421 10.5753 19.6746 10.244 20.1303 9.95596C20.7416 9.56956 21.3648 9.19219 22.0166 8.88202C22.9563 8.43493 23.954 8.14839 24.992 8.02176C25.2863 7.98585 25.5812 7.95464 25.9266 7.91868C26.4473 7.93264 26.9171 7.95288 27.387 7.96237C27.4708 7.96406 27.5555 7.92121 27.6398 7.89893ZM33.6543 14.2762C33.6725 14.2558 33.6906 14.2354 33.7279 14.1773C33.8911 14.0401 34.051 13.8986 34.2182 13.7664C34.5451 13.5079 34.875 13.2532 35.2057 12.9995C35.4176 12.8369 35.6333 12.679 35.8473 12.519C35.7315 12.4533 35.6558 12.4397 35.5867 12.4555C35.093 12.568 34.6021 12.6937 34.1074 12.8016C33.2095 12.9975 32.431 13.4783 31.6608 13.9269C30.9083 14.3651 30.2285 14.9476 29.5769 15.5336C29.0817 15.9791 28.6534 16.5084 28.2464 17.0396C27.8962 17.4967 27.6226 18.0121 27.3074 18.4967C26.6727 19.4724 26.2497 20.5434 25.9294 21.6524C25.723 22.3671 25.5821 23.1015 25.4327 23.8313C25.39 24.0402 25.4138 24.243 25.5755 24.4445C25.9697 24.9362 26.3304 25.4558 26.6854 25.9772C26.8141 26.1663 26.8883 26.3926 26.9723 26.5702C27.4409 25.9017 27.9015 25.2505 28.354 24.5937C28.4298 24.4837 28.5005 24.3548 28.5228 24.2259C28.6215 23.6547 28.6791 23.0758 28.7935 22.5081C29.0173 21.3977 29.3588 20.3246 29.8909 19.3176C30.1242 18.8761 30.3084 18.406 30.5689 17.9821C30.8947 17.4521 31.2594 16.9434 31.6387 16.4497C31.9361 16.0625 32.2813 15.7121 32.6436 15.3251C32.6514 15.2878 32.6591 15.2506 32.6696 15.2172C32.6696 15.2172 32.665 15.216 32.7071 15.2224C32.7159 15.1982 32.7247 15.1741 32.7338 15.1546C32.7338 15.1546 32.7291 15.1548 32.7705 15.157C32.779 15.1334 32.7875 15.1097 32.7961 15.0909C32.7961 15.0909 32.7912 15.0909 32.8333 15.0952C32.8419 15.0711 32.8504 15.047 32.8588 15.0275C32.8588 15.0275 32.8542 15.0274 32.8964 15.0324C32.905 15.0084 32.9136 14.9843 32.9222 14.9648C32.9222 14.9648 32.9177 14.9648 32.9593 14.9686C32.9681 14.9448 32.9769 14.921 32.9853 14.9017C32.9853 14.9017 32.9808 14.9013 33.0254 14.91C33.0751 14.8426 33.1248 14.7753 33.1749 14.7128C33.1749 14.7128 33.17 14.7132 33.2108 14.7146C33.2201 14.6914 33.2293 14.6682 33.2385 14.6503C33.2385 14.6503 33.2332 14.6502 33.2739 14.6515C33.2832 14.6283 33.2924 14.6051 33.3017 14.5872C33.3017 14.5872 33.2964 14.5872 33.3371 14.5884C33.3463 14.5651 33.3555 14.5419 33.3647 14.5241C33.3647 14.5241 33.3593 14.5241 33.3999 14.5252C33.4093 14.5022 33.4188 14.4791 33.4282 14.4616C33.4282 14.4616 33.4226 14.4616 33.4622 14.4608C33.4721 14.4383 33.482 14.4158 33.492 14.3991C33.492 14.3991 33.4862 14.3991 33.5253 14.3971C33.5353 14.3748 33.5452 14.3525 33.5551 14.336C33.5551 14.336 33.5493 14.336 33.5889 14.3344C33.5984 14.3118 33.6079 14.2892 33.6174 14.2718C33.6174 14.2718 33.6122 14.2717 33.6543 14.2762Z"/>
</mask>
<path d="M27.6398 7.89893C28.1996 7.9905 28.7564 8.12181 29.3199 8.16416C30.1244 8.22463 30.8212 8.60511 31.5482 8.8738C32.1441 9.09404 32.683 9.48036 33.2275 9.82414C33.5836 10.049 33.9047 10.3293 34.2665 10.6047C34.3187 10.6414 34.3458 10.6581 34.3729 10.6748C34.3953 10.6748 34.4132 10.6837 34.4364 10.7384C34.5301 10.8251 34.6141 10.8751 34.6981 10.925C34.6981 10.925 34.694 10.9259 34.6902 10.9456C34.7116 10.9737 34.7367 10.9821 34.7619 10.9905C34.7619 10.9905 34.7563 10.9906 34.7536 11.0095C34.7755 11.0368 34.8002 11.0453 34.8249 11.0538C34.8249 11.0538 34.8192 11.0538 34.8168 11.0725C34.8389 11.0998 34.8635 11.1084 34.888 11.1171C34.888 11.1171 34.8821 11.1171 34.8799 11.1357C34.9021 11.1629 34.9266 11.1716 34.951 11.1802C34.951 11.1802 34.9451 11.1803 34.943 11.1986C34.9653 11.2259 34.9896 11.2348 35.014 11.2437C35.014 11.2437 35.0077 11.2438 35.0066 11.2616C35.0293 11.2887 35.0532 11.2979 35.0771 11.307C35.0771 11.307 35.0707 11.307 35.0695 11.3249C35.0923 11.3518 35.1162 11.361 35.1401 11.3701C35.1401 11.3701 35.1337 11.3701 35.1326 11.3879C35.1554 11.4149 35.1793 11.4241 35.2032 11.4332C35.2032 11.4332 35.1968 11.4332 35.1957 11.4509C35.2183 11.4781 35.242 11.4875 35.2658 11.4969C35.2658 11.4969 35.2591 11.4969 35.2595 11.5139C35.2829 11.5406 35.306 11.5503 35.329 11.56C35.329 11.56 35.3224 11.5601 35.3216 11.578C35.3446 11.6045 35.3686 11.6131 35.3925 11.6217C35.3925 11.6217 35.3869 11.6217 35.3836 11.6412C35.4055 11.6681 35.4307 11.6755 35.4559 11.6829C35.4559 11.6829 35.4516 11.6832 35.4458 11.7037C35.4663 11.7314 35.4924 11.7385 35.5186 11.7455C35.5186 11.7455 35.5145 11.7468 35.5068 11.7678C35.5234 11.8083 35.5477 11.8277 35.572 11.8471C35.572 11.8471 35.5708 11.8453 35.5869 11.8596C35.6176 11.8963 35.6323 11.9188 35.6469 11.9413C35.669 11.9421 35.6851 11.9522 35.7099 11.997C35.7532 12.0525 35.7819 12.0828 35.8106 12.1131C36.2172 12.6944 36.684 13.2434 37.0173 13.864C37.6223 14.9906 38.181 16.146 38.2949 17.4565C38.358 18.183 38.4721 18.9052 38.5295 19.632C38.5547 19.9513 38.5125 20.2794 38.4718 20.5997C38.3607 21.4743 38.3056 22.3681 37.9577 23.1877C37.5899 24.0544 37.2121 24.9269 36.7313 25.7327C36.3083 26.4416 35.7845 27.1066 35.217 27.7078C34.7179 28.2365 34.1196 28.6822 33.5231 29.1053C32.8924 29.5526 32.212 29.9299 31.511 30.2998C31.5839 29.1741 32.1693 28.2807 32.7565 27.4112C33.3553 26.5245 34.1007 25.7536 35.0256 25.1704C35.0023 25.1328 34.979 25.0951 34.9556 25.0575C34.5274 25.2075 34.0842 25.325 33.6739 25.5141C32.7383 25.9453 31.9234 26.5579 31.2744 27.3576C30.4792 28.3375 29.9514 29.4574 29.7169 30.7026C29.6614 30.9973 29.4445 31.014 29.2369 31.0408C29.196 31.0461 29.0758 30.8713 29.0891 30.797C29.2622 29.8353 29.6152 28.9341 30.0068 28.0416C30.4548 27.0202 30.9838 26.0474 31.6499 25.1562C32.0916 24.5652 32.5764 24.0054 33.0591 23.4465C33.4044 23.0467 33.7553 22.6463 34.1458 22.2926C34.5324 21.9424 34.9683 21.6458 35.389 21.3344C35.6783 21.1203 35.9787 20.921 36.2741 20.7151C36.2658 20.6889 36.2575 20.6626 36.2491 20.6364C36.0038 20.6795 35.7565 20.7139 35.5134 20.7672C34.5182 20.9855 33.5396 21.2795 32.6656 21.8015C31.8515 22.2877 31.0637 22.8332 30.3286 23.4316C29.7683 23.8877 29.2854 24.4476 28.812 24.999C28.4864 25.3781 28.2098 25.8065 27.9579 26.24C27.5471 26.9473 27.1147 27.6519 26.8016 28.4035C26.4648 29.2124 26.2546 30.074 25.9903 30.913C25.978 30.9523 25.9828 30.9969 25.9705 31.0362C25.9066 31.2397 25.7386 31.2964 25.574 31.2282C25.4995 31.1974 25.4292 31.0123 25.4499 30.9176C25.6881 29.8298 25.9788 28.7509 26.5326 27.7796C26.8149 27.2845 26.793 26.9019 26.4707 26.4541C25.9052 25.6684 25.3729 24.8636 24.6862 24.1681C23.9971 23.4703 23.2659 22.8299 22.4386 22.3083C21.154 21.4983 19.7706 20.924 18.2695 20.6548C18.1791 20.6386 18.0832 20.6527 17.9554 20.7084C18.1392 20.8472 18.3217 20.9879 18.5072 21.1245C18.8909 21.4068 19.3029 21.6571 19.6558 21.9736C20.6175 22.8361 21.5141 23.7583 22.303 24.7912C23.1614 25.915 23.8328 27.1401 24.3861 28.427C24.7129 29.1872 24.9183 30.0007 25.1554 30.797C25.186 30.8996 25.0789 31.0433 25.0357 31.1679C24.8765 31.0937 24.668 31.1551 24.6224 30.8502C24.5206 30.1698 24.3008 29.518 23.9356 28.9227C23.652 28.4603 23.4307 27.9506 23.0946 27.5319C22.7241 27.0703 22.2859 26.6479 21.8184 26.2838C21.3804 25.9427 20.8791 25.6734 20.3799 25.4239C20.0577 25.2628 19.6892 25.1943 19.3414 25.0842C19.3255 25.1173 19.3096 25.1503 19.2937 25.1834C19.5896 25.4334 19.8841 25.6849 20.1818 25.9326C20.3128 26.0415 20.4763 26.1217 20.5803 26.251C20.9912 26.762 21.4556 27.2484 21.7669 27.817C22.1954 28.5997 22.5091 29.4462 22.8588 30.2709C22.9471 30.4792 22.8327 30.5955 22.612 30.5372C22.4322 30.4897 22.2506 30.4304 22.0867 30.3442C21.2428 29.9006 20.383 29.4813 19.6505 28.8552C19.1775 28.4509 18.6767 28.0737 18.2431 27.6308C17.8634 27.243 17.5448 26.7914 17.2276 26.3477C16.952 25.9623 16.6982 25.5585 16.4687 25.144C16.2953 24.8308 16.174 24.4885 16.0319 24.1581C15.8931 23.8351 15.7266 23.5199 15.6277 23.1849C15.4977 22.7443 15.4162 22.2889 15.3244 21.8377C15.2453 21.449 15.1485 21.0597 15.1183 20.6661C15.0799 20.1665 15.098 19.6624 15.0981 19.1602C15.0981 19.0466 15.1389 18.9325 15.1355 18.8194C15.1133 18.0708 15.3343 17.359 15.4469 16.6303C15.5922 15.6897 16.0419 14.8702 16.4355 14.0347C16.6937 13.4869 17.097 13.0069 17.4415 12.5008C17.4788 12.446 17.5577 12.4195 17.6425 12.4008C17.9545 12.6575 18.24 12.8947 18.5283 13.1283C19.1636 13.643 19.8616 14.0974 20.4206 14.6844C21.0987 15.3965 21.6839 16.2024 22.2637 17.0009C22.6834 17.5789 23.0533 18.1972 23.4023 18.8217C24.1554 20.1695 24.6846 21.5985 24.8611 23.1443C24.8688 23.2125 24.918 23.276 24.9567 23.3611C24.9951 23.2989 25.0217 23.2742 25.0261 23.246C25.2536 21.8011 25.6658 20.4162 26.3954 19.1409C26.5202 18.9229 26.4891 18.7633 26.3668 18.5784C26.1912 18.313 26.039 18.0308 25.8487 17.7769C25.5324 17.3548 25.2033 16.9414 24.862 16.5393C24.4986 16.1111 24.1567 15.6499 23.7301 15.2934C23.0658 14.7382 22.3721 14.2005 21.6267 13.7653C20.9542 13.3726 20.2091 13.0891 19.4707 12.8293C18.8863 12.6237 18.2637 12.5272 17.658 12.3822C17.5699 12.0893 17.8384 11.9756 17.9717 11.8131C18.2325 11.4952 18.5163 11.1885 18.8299 10.9236C19.2421 10.5753 19.6746 10.244 20.1303 9.95596C20.7416 9.56956 21.3648 9.19219 22.0166 8.88202C22.9563 8.43493 23.954 8.14839 24.992 8.02176C25.2863 7.98585 25.5812 7.95464 25.9266 7.91868C26.4473 7.93264 26.9171 7.95288 27.387 7.96237C27.4708 7.96406 27.5555 7.92121 27.6398 7.89893ZM33.6543 14.2762C33.6725 14.2558 33.6906 14.2354 33.7279 14.1773C33.8911 14.0401 34.051 13.8986 34.2182 13.7664C34.5451 13.5079 34.875 13.2532 35.2057 12.9995C35.4176 12.8369 35.6333 12.679 35.8473 12.519C35.7315 12.4533 35.6558 12.4397 35.5867 12.4555C35.093 12.568 34.6021 12.6937 34.1074 12.8016C33.2095 12.9975 32.431 13.4783 31.6608 13.9269C30.9083 14.3651 30.2285 14.9476 29.5769 15.5336C29.0817 15.9791 28.6534 16.5084 28.2464 17.0396C27.8962 17.4967 27.6226 18.0121 27.3074 18.4967C26.6727 19.4724 26.2497 20.5434 25.9294 21.6524C25.723 22.3671 25.5821 23.1015 25.4327 23.8313C25.39 24.0402 25.4138 24.243 25.5755 24.4445C25.9697 24.9362 26.3304 25.4558 26.6854 25.9772C26.8141 26.1663 26.8883 26.3926 26.9723 26.5702C27.4409 25.9017 27.9015 25.2505 28.354 24.5937C28.4298 24.4837 28.5005 24.3548 28.5228 24.2259C28.6215 23.6547 28.6791 23.0758 28.7935 22.5081C29.0173 21.3977 29.3588 20.3246 29.8909 19.3176C30.1242 18.8761 30.3084 18.406 30.5689 17.9821C30.8947 17.4521 31.2594 16.9434 31.6387 16.4497C31.9361 16.0625 32.2813 15.7121 32.6436 15.3251C32.6514 15.2878 32.6591 15.2506 32.6696 15.2172C32.6696 15.2172 32.665 15.216 32.7071 15.2224C32.7159 15.1982 32.7247 15.1741 32.7338 15.1546C32.7338 15.1546 32.7291 15.1548 32.7705 15.157C32.779 15.1334 32.7875 15.1097 32.7961 15.0909C32.7961 15.0909 32.7912 15.0909 32.8333 15.0952C32.8419 15.0711 32.8504 15.047 32.8588 15.0275C32.8588 15.0275 32.8542 15.0274 32.8964 15.0324C32.905 15.0084 32.9136 14.9843 32.9222 14.9648C32.9222 14.9648 32.9177 14.9648 32.9593 14.9686C32.9681 14.9448 32.9769 14.921 32.9853 14.9017C32.9853 14.9017 32.9808 14.9013 33.0254 14.91C33.0751 14.8426 33.1248 14.7753 33.1749 14.7128C33.1749 14.7128 33.17 14.7132 33.2108 14.7146C33.2201 14.6914 33.2293 14.6682 33.2385 14.6503C33.2385 14.6503 33.2332 14.6502 33.2739 14.6515C33.2832 14.6283 33.2924 14.6051 33.3017 14.5872C33.3017 14.5872 33.2964 14.5872 33.3371 14.5884C33.3463 14.5651 33.3555 14.5419 33.3647 14.5241C33.3647 14.5241 33.3593 14.5241 33.3999 14.5252C33.4093 14.5022 33.4188 14.4791 33.4282 14.4616C33.4282 14.4616 33.4226 14.4616 33.4622 14.4608C33.4721 14.4383 33.482 14.4158 33.492 14.3991C33.492 14.3991 33.4862 14.3991 33.5253 14.3971C33.5353 14.3748 33.5452 14.3525 33.5551 14.336C33.5551 14.336 33.5493 14.336 33.5889 14.3344C33.5984 14.3118 33.6079 14.2892 33.6174 14.2718C33.6174 14.2718 33.6122 14.2717 33.6543 14.2762Z" fill="#177C2C"/>
<path d="M27.6398 7.89893C28.1996 7.9905 28.7564 8.12181 29.3199 8.16416C30.1244 8.22463 30.8212 8.60511 31.5482 8.8738C32.1441 9.09404 32.683 9.48036 33.2275 9.82414C33.5836 10.049 33.9047 10.3293 34.2665 10.6047C34.3187 10.6414 34.3458 10.6581 34.3729 10.6748C34.3953 10.6748 34.4132 10.6837 34.4364 10.7384C34.5301 10.8251 34.6141 10.8751 34.6981 10.925C34.6981 10.925 34.694 10.9259 34.6902 10.9456C34.7116 10.9737 34.7367 10.9821 34.7619 10.9905C34.7619 10.9905 34.7563 10.9906 34.7536 11.0095C34.7755 11.0368 34.8002 11.0453 34.8249 11.0538C34.8249 11.0538 34.8192 11.0538 34.8168 11.0725C34.8389 11.0998 34.8635 11.1084 34.888 11.1171C34.888 11.1171 34.8821 11.1171 34.8799 11.1357C34.9021 11.1629 34.9266 11.1716 34.951 11.1802C34.951 11.1802 34.9451 11.1803 34.943 11.1986C34.9653 11.2259 34.9896 11.2348 35.014 11.2437C35.014 11.2437 35.0077 11.2438 35.0066 11.2616C35.0293 11.2887 35.0532 11.2979 35.0771 11.307C35.0771 11.307 35.0707 11.307 35.0695 11.3249C35.0923 11.3518 35.1162 11.361 35.1401 11.3701C35.1401 11.3701 35.1337 11.3701 35.1326 11.3879C35.1554 11.4149 35.1793 11.4241 35.2032 11.4332C35.2032 11.4332 35.1968 11.4332 35.1957 11.4509C35.2183 11.4781 35.242 11.4875 35.2658 11.4969C35.2658 11.4969 35.2591 11.4969 35.2595 11.5139C35.2829 11.5406 35.306 11.5503 35.329 11.56C35.329 11.56 35.3224 11.5601 35.3216 11.578C35.3446 11.6045 35.3686 11.6131 35.3925 11.6217C35.3925 11.6217 35.3869 11.6217 35.3836 11.6412C35.4055 11.6681 35.4307 11.6755 35.4559 11.6829C35.4559 11.6829 35.4516 11.6832 35.4458 11.7037C35.4663 11.7314 35.4924 11.7385 35.5186 11.7455C35.5186 11.7455 35.5145 11.7468 35.5068 11.7678C35.5234 11.8083 35.5477 11.8277 35.572 11.8471C35.572 11.8471 35.5708 11.8453 35.5869 11.8596C35.6176 11.8963 35.6323 11.9188 35.6469 11.9413C35.669 11.9421 35.6851 11.9522 35.7099 11.997C35.7532 12.0525 35.7819 12.0828 35.8106 12.1131C36.2172 12.6944 36.684 13.2434 37.0173 13.864C37.6223 14.9906 38.181 16.146 38.2949 17.4565C38.358 18.183 38.4721 18.9052 38.5295 19.632C38.5547 19.9513 38.5125 20.2794 38.4718 20.5997C38.3607 21.4743 38.3056 22.3681 37.9577 23.1877C37.5899 24.0544 37.2121 24.9269 36.7313 25.7327C36.3083 26.4416 35.7845 27.1066 35.217 27.7078C34.7179 28.2365 34.1196 28.6822 33.5231 29.1053C32.8924 29.5526 32.212 29.9299 31.511 30.2998C31.5839 29.1741 32.1693 28.2807 32.7565 27.4112C33.3553 26.5245 34.1007 25.7536 35.0256 25.1704C35.0023 25.1328 34.979 25.0951 34.9556 25.0575C34.5274 25.2075 34.0842 25.325 33.6739 25.5141C32.7383 25.9453 31.9234 26.5579 31.2744 27.3576C30.4792 28.3375 29.9514 29.4574 29.7169 30.7026C29.6614 30.9973 29.4445 31.014 29.2369 31.0408C29.196 31.0461 29.0758 30.8713 29.0891 30.797C29.2622 29.8353 29.6152 28.9341 30.0068 28.0416C30.4548 27.0202 30.9838 26.0474 31.6499 25.1562C32.0916 24.5652 32.5764 24.0054 33.0591 23.4465C33.4044 23.0467 33.7553 22.6463 34.1458 22.2926C34.5324 21.9424 34.9683 21.6458 35.389 21.3344C35.6783 21.1203 35.9787 20.921 36.2741 20.7151C36.2658 20.6889 36.2575 20.6626 36.2491 20.6364C36.0038 20.6795 35.7565 20.7139 35.5134 20.7672C34.5182 20.9855 33.5396 21.2795 32.6656 21.8015C31.8515 22.2877 31.0637 22.8332 30.3286 23.4316C29.7683 23.8877 29.2854 24.4476 28.812 24.999C28.4864 25.3781 28.2098 25.8065 27.9579 26.24C27.5471 26.9473 27.1147 27.6519 26.8016 28.4035C26.4648 29.2124 26.2546 30.074 25.9903 30.913C25.978 30.9523 25.9828 30.9969 25.9705 31.0362C25.9066 31.2397 25.7386 31.2964 25.574 31.2282C25.4995 31.1974 25.4292 31.0123 25.4499 30.9176C25.6881 29.8298 25.9788 28.7509 26.5326 27.7796C26.8149 27.2845 26.793 26.9019 26.4707 26.4541C25.9052 25.6684 25.3729 24.8636 24.6862 24.1681C23.9971 23.4703 23.2659 22.8299 22.4386 22.3083C21.154 21.4983 19.7706 20.924 18.2695 20.6548C18.1791 20.6386 18.0832 20.6527 17.9554 20.7084C18.1392 20.8472 18.3217 20.9879 18.5072 21.1245C18.8909 21.4068 19.3029 21.6571 19.6558 21.9736C20.6175 22.8361 21.5141 23.7583 22.303 24.7912C23.1614 25.915 23.8328 27.1401 24.3861 28.427C24.7129 29.1872 24.9183 30.0007 25.1554 30.797C25.186 30.8996 25.0789 31.0433 25.0357 31.1679C24.8765 31.0937 24.668 31.1551 24.6224 30.8502C24.5206 30.1698 24.3008 29.518 23.9356 28.9227C23.652 28.4603 23.4307 27.9506 23.0946 27.5319C22.7241 27.0703 22.2859 26.6479 21.8184 26.2838C21.3804 25.9427 20.8791 25.6734 20.3799 25.4239C20.0577 25.2628 19.6892 25.1943 19.3414 25.0842C19.3255 25.1173 19.3096 25.1503 19.2937 25.1834C19.5896 25.4334 19.8841 25.6849 20.1818 25.9326C20.3128 26.0415 20.4763 26.1217 20.5803 26.251C20.9912 26.762 21.4556 27.2484 21.7669 27.817C22.1954 28.5997 22.5091 29.4462 22.8588 30.2709C22.9471 30.4792 22.8327 30.5955 22.612 30.5372C22.4322 30.4897 22.2506 30.4304 22.0867 30.3442C21.2428 29.9006 20.383 29.4813 19.6505 28.8552C19.1775 28.4509 18.6767 28.0737 18.2431 27.6308C17.8634 27.243 17.5448 26.7914 17.2276 26.3477C16.952 25.9623 16.6982 25.5585 16.4687 25.144C16.2953 24.8308 16.174 24.4885 16.0319 24.1581C15.8931 23.8351 15.7266 23.5199 15.6277 23.1849C15.4977 22.7443 15.4162 22.2889 15.3244 21.8377C15.2453 21.449 15.1485 21.0597 15.1183 20.6661C15.0799 20.1665 15.098 19.6624 15.0981 19.1602C15.0981 19.0466 15.1389 18.9325 15.1355 18.8194C15.1133 18.0708 15.3343 17.359 15.4469 16.6303C15.5922 15.6897 16.0419 14.8702 16.4355 14.0347C16.6937 13.4869 17.097 13.0069 17.4415 12.5008C17.4788 12.446 17.5577 12.4195 17.6425 12.4008C17.9545 12.6575 18.24 12.8947 18.5283 13.1283C19.1636 13.643 19.8616 14.0974 20.4206 14.6844C21.0987 15.3965 21.6839 16.2024 22.2637 17.0009C22.6834 17.5789 23.0533 18.1972 23.4023 18.8217C24.1554 20.1695 24.6846 21.5985 24.8611 23.1443C24.8688 23.2125 24.918 23.276 24.9567 23.3611C24.9951 23.2989 25.0217 23.2742 25.0261 23.246C25.2536 21.8011 25.6658 20.4162 26.3954 19.1409C26.5202 18.9229 26.4891 18.7633 26.3668 18.5784C26.1912 18.313 26.039 18.0308 25.8487 17.7769C25.5324 17.3548 25.2033 16.9414 24.862 16.5393C24.4986 16.1111 24.1567 15.6499 23.7301 15.2934C23.0658 14.7382 22.3721 14.2005 21.6267 13.7653C20.9542 13.3726 20.2091 13.0891 19.4707 12.8293C18.8863 12.6237 18.2637 12.5272 17.658 12.3822C17.5699 12.0893 17.8384 11.9756 17.9717 11.8131C18.2325 11.4952 18.5163 11.1885 18.8299 10.9236C19.2421 10.5753 19.6746 10.244 20.1303 9.95596C20.7416 9.56956 21.3648 9.19219 22.0166 8.88202C22.9563 8.43493 23.954 8.14839 24.992 8.02176C25.2863 7.98585 25.5812 7.95464 25.9266 7.91868C26.4473 7.93264 26.9171 7.95288 27.387 7.96237C27.4708 7.96406 27.5555 7.92121 27.6398 7.89893ZM33.6543 14.2762C33.6725 14.2558 33.6906 14.2354 33.7279 14.1773C33.8911 14.0401 34.051 13.8986 34.2182 13.7664C34.5451 13.5079 34.875 13.2532 35.2057 12.9995C35.4176 12.8369 35.6333 12.679 35.8473 12.519C35.7315 12.4533 35.6558 12.4397 35.5867 12.4555C35.093 12.568 34.6021 12.6937 34.1074 12.8016C33.2095 12.9975 32.431 13.4783 31.6608 13.9269C30.9083 14.3651 30.2285 14.9476 29.5769 15.5336C29.0817 15.9791 28.6534 16.5084 28.2464 17.0396C27.8962 17.4967 27.6226 18.0121 27.3074 18.4967C26.6727 19.4724 26.2497 20.5434 25.9294 21.6524C25.723 22.3671 25.5821 23.1015 25.4327 23.8313C25.39 24.0402 25.4138 24.243 25.5755 24.4445C25.9697 24.9362 26.3304 25.4558 26.6854 25.9772C26.8141 26.1663 26.8883 26.3926 26.9723 26.5702C27.4409 25.9017 27.9015 25.2505 28.354 24.5937C28.4298 24.4837 28.5005 24.3548 28.5228 24.2259C28.6215 23.6547 28.6791 23.0758 28.7935 22.5081C29.0173 21.3977 29.3588 20.3246 29.8909 19.3176C30.1242 18.8761 30.3084 18.406 30.5689 17.9821C30.8947 17.4521 31.2594 16.9434 31.6387 16.4497C31.9361 16.0625 32.2813 15.7121 32.6436 15.3251C32.6514 15.2878 32.6591 15.2506 32.6696 15.2172C32.6696 15.2172 32.665 15.216 32.7071 15.2224C32.7159 15.1982 32.7247 15.1741 32.7338 15.1546C32.7338 15.1546 32.7291 15.1548 32.7705 15.157C32.779 15.1334 32.7875 15.1097 32.7961 15.0909C32.7961 15.0909 32.7912 15.0909 32.8333 15.0952C32.8419 15.0711 32.8504 15.047 32.8588 15.0275C32.8588 15.0275 32.8542 15.0274 32.8964 15.0324C32.905 15.0084 32.9136 14.9843 32.9222 14.9648C32.9222 14.9648 32.9177 14.9648 32.9593 14.9686C32.9681 14.9448 32.9769 14.921 32.9853 14.9017C32.9853 14.9017 32.9808 14.9013 33.0254 14.91C33.0751 14.8426 33.1248 14.7753 33.1749 14.7128C33.1749 14.7128 33.17 14.7132 33.2108 14.7146C33.2201 14.6914 33.2293 14.6682 33.2385 14.6503C33.2385 14.6503 33.2332 14.6502 33.2739 14.6515C33.2832 14.6283 33.2924 14.6051 33.3017 14.5872C33.3017 14.5872 33.2964 14.5872 33.3371 14.5884C33.3463 14.5651 33.3555 14.5419 33.3647 14.5241C33.3647 14.5241 33.3593 14.5241 33.3999 14.5252C33.4093 14.5022 33.4188 14.4791 33.4282 14.4616C33.4282 14.4616 33.4226 14.4616 33.4622 14.4608C33.4721 14.4383 33.482 14.4158 33.492 14.3991C33.492 14.3991 33.4862 14.3991 33.5253 14.3971C33.5353 14.3748 33.5452 14.3525 33.5551 14.336C33.5551 14.336 33.5493 14.336 33.5889 14.3344C33.5984 14.3118 33.6079 14.2892 33.6174 14.2718C33.6174 14.2718 33.6122 14.2717 33.6543 14.2762Z" fill="black" fill-opacity="0.2"/>
<path d="M27.6398 7.89893C28.1996 7.9905 28.7564 8.12181 29.3199 8.16416C30.1244 8.22463 30.8212 8.60511 31.5482 8.8738C32.1441 9.09404 32.683 9.48036 33.2275 9.82414C33.5836 10.049 33.9047 10.3293 34.2665 10.6047C34.3187 10.6414 34.3458 10.6581 34.3729 10.6748C34.3953 10.6748 34.4132 10.6837 34.4364 10.7384C34.5301 10.8251 34.6141 10.8751 34.6981 10.925C34.6981 10.925 34.694 10.9259 34.6902 10.9456C34.7116 10.9737 34.7367 10.9821 34.7619 10.9905C34.7619 10.9905 34.7563 10.9906 34.7536 11.0095C34.7755 11.0368 34.8002 11.0453 34.8249 11.0538C34.8249 11.0538 34.8192 11.0538 34.8168 11.0725C34.8389 11.0998 34.8635 11.1084 34.888 11.1171C34.888 11.1171 34.8821 11.1171 34.8799 11.1357C34.9021 11.1629 34.9266 11.1716 34.951 11.1802C34.951 11.1802 34.9451 11.1803 34.943 11.1986C34.9653 11.2259 34.9896 11.2348 35.014 11.2437C35.014 11.2437 35.0077 11.2438 35.0066 11.2616C35.0293 11.2887 35.0532 11.2979 35.0771 11.307C35.0771 11.307 35.0707 11.307 35.0695 11.3249C35.0923 11.3518 35.1162 11.361 35.1401 11.3701C35.1401 11.3701 35.1337 11.3701 35.1326 11.3879C35.1554 11.4149 35.1793 11.4241 35.2032 11.4332C35.2032 11.4332 35.1968 11.4332 35.1957 11.4509C35.2183 11.4781 35.242 11.4875 35.2658 11.4969C35.2658 11.4969 35.2591 11.4969 35.2595 11.5139C35.2829 11.5406 35.306 11.5503 35.329 11.56C35.329 11.56 35.3224 11.5601 35.3216 11.578C35.3446 11.6045 35.3686 11.6131 35.3925 11.6217C35.3925 11.6217 35.3869 11.6217 35.3836 11.6412C35.4055 11.6681 35.4307 11.6755 35.4559 11.6829C35.4559 11.6829 35.4516 11.6832 35.4458 11.7037C35.4663 11.7314 35.4924 11.7385 35.5186 11.7455C35.5186 11.7455 35.5145 11.7468 35.5068 11.7678C35.5234 11.8083 35.5477 11.8277 35.572 11.8471C35.572 11.8471 35.5708 11.8453 35.5869 11.8596C35.6176 11.8963 35.6323 11.9188 35.6469 11.9413C35.669 11.9421 35.6851 11.9522 35.7099 11.997C35.7532 12.0525 35.7819 12.0828 35.8106 12.1131C36.2172 12.6944 36.684 13.2434 37.0173 13.864C37.6223 14.9906 38.181 16.146 38.2949 17.4565C38.358 18.183 38.4721 18.9052 38.5295 19.632C38.5547 19.9513 38.5125 20.2794 38.4718 20.5997C38.3607 21.4743 38.3056 22.3681 37.9577 23.1877C37.5899 24.0544 37.2121 24.9269 36.7313 25.7327C36.3083 26.4416 35.7845 27.1066 35.217 27.7078C34.7179 28.2365 34.1196 28.6822 33.5231 29.1053C32.8924 29.5526 32.212 29.9299 31.511 30.2998C31.5839 29.1741 32.1693 28.2807 32.7565 27.4112C33.3553 26.5245 34.1007 25.7536 35.0256 25.1704C35.0023 25.1328 34.979 25.0951 34.9556 25.0575C34.5274 25.2075 34.0842 25.325 33.6739 25.5141C32.7383 25.9453 31.9234 26.5579 31.2744 27.3576C30.4792 28.3375 29.9514 29.4574 29.7169 30.7026C29.6614 30.9973 29.4445 31.014 29.2369 31.0408C29.196 31.0461 29.0758 30.8713 29.0891 30.797C29.2622 29.8353 29.6152 28.9341 30.0068 28.0416C30.4548 27.0202 30.9838 26.0474 31.6499 25.1562C32.0916 24.5652 32.5764 24.0054 33.0591 23.4465C33.4044 23.0467 33.7553 22.6463 34.1458 22.2926C34.5324 21.9424 34.9683 21.6458 35.389 21.3344C35.6783 21.1203 35.9787 20.921 36.2741 20.7151C36.2658 20.6889 36.2575 20.6626 36.2491 20.6364C36.0038 20.6795 35.7565 20.7139 35.5134 20.7672C34.5182 20.9855 33.5396 21.2795 32.6656 21.8015C31.8515 22.2877 31.0637 22.8332 30.3286 23.4316C29.7683 23.8877 29.2854 24.4476 28.812 24.999C28.4864 25.3781 28.2098 25.8065 27.9579 26.24C27.5471 26.9473 27.1147 27.6519 26.8016 28.4035C26.4648 29.2124 26.2546 30.074 25.9903 30.913C25.978 30.9523 25.9828 30.9969 25.9705 31.0362C25.9066 31.2397 25.7386 31.2964 25.574 31.2282C25.4995 31.1974 25.4292 31.0123 25.4499 30.9176C25.6881 29.8298 25.9788 28.7509 26.5326 27.7796C26.8149 27.2845 26.793 26.9019 26.4707 26.4541C25.9052 25.6684 25.3729 24.8636 24.6862 24.1681C23.9971 23.4703 23.2659 22.8299 22.4386 22.3083C21.154 21.4983 19.7706 20.924 18.2695 20.6548C18.1791 20.6386 18.0832 20.6527 17.9554 20.7084C18.1392 20.8472 18.3217 20.9879 18.5072 21.1245C18.8909 21.4068 19.3029 21.6571 19.6558 21.9736C20.6175 22.8361 21.5141 23.7583 22.303 24.7912C23.1614 25.915 23.8328 27.1401 24.3861 28.427C24.7129 29.1872 24.9183 30.0007 25.1554 30.797C25.186 30.8996 25.0789 31.0433 25.0357 31.1679C24.8765 31.0937 24.668 31.1551 24.6224 30.8502C24.5206 30.1698 24.3008 29.518 23.9356 28.9227C23.652 28.4603 23.4307 27.9506 23.0946 27.5319C22.7241 27.0703 22.2859 26.6479 21.8184 26.2838C21.3804 25.9427 20.8791 25.6734 20.3799 25.4239C20.0577 25.2628 19.6892 25.1943 19.3414 25.0842C19.3255 25.1173 19.3096 25.1503 19.2937 25.1834C19.5896 25.4334 19.8841 25.6849 20.1818 25.9326C20.3128 26.0415 20.4763 26.1217 20.5803 26.251C20.9912 26.762 21.4556 27.2484 21.7669 27.817C22.1954 28.5997 22.5091 29.4462 22.8588 30.2709C22.9471 30.4792 22.8327 30.5955 22.612 30.5372C22.4322 30.4897 22.2506 30.4304 22.0867 30.3442C21.2428 29.9006 20.383 29.4813 19.6505 28.8552C19.1775 28.4509 18.6767 28.0737 18.2431 27.6308C17.8634 27.243 17.5448 26.7914 17.2276 26.3477C16.952 25.9623 16.6982 25.5585 16.4687 25.144C16.2953 24.8308 16.174 24.4885 16.0319 24.1581C15.8931 23.8351 15.7266 23.5199 15.6277 23.1849C15.4977 22.7443 15.4162 22.2889 15.3244 21.8377C15.2453 21.449 15.1485 21.0597 15.1183 20.6661C15.0799 20.1665 15.098 19.6624 15.0981 19.1602C15.0981 19.0466 15.1389 18.9325 15.1355 18.8194C15.1133 18.0708 15.3343 17.359 15.4469 16.6303C15.5922 15.6897 16.0419 14.8702 16.4355 14.0347C16.6937 13.4869 17.097 13.0069 17.4415 12.5008C17.4788 12.446 17.5577 12.4195 17.6425 12.4008C17.9545 12.6575 18.24 12.8947 18.5283 13.1283C19.1636 13.643 19.8616 14.0974 20.4206 14.6844C21.0987 15.3965 21.6839 16.2024 22.2637 17.0009C22.6834 17.5789 23.0533 18.1972 23.4023 18.8217C24.1554 20.1695 24.6846 21.5985 24.8611 23.1443C24.8688 23.2125 24.918 23.276 24.9567 23.3611C24.9951 23.2989 25.0217 23.2742 25.0261 23.246C25.2536 21.8011 25.6658 20.4162 26.3954 19.1409C26.5202 18.9229 26.4891 18.7633 26.3668 18.5784C26.1912 18.313 26.039 18.0308 25.8487 17.7769C25.5324 17.3548 25.2033 16.9414 24.862 16.5393C24.4986 16.1111 24.1567 15.6499 23.7301 15.2934C23.0658 14.7382 22.3721 14.2005 21.6267 13.7653C20.9542 13.3726 20.2091 13.0891 19.4707 12.8293C18.8863 12.6237 18.2637 12.5272 17.658 12.3822C17.5699 12.0893 17.8384 11.9756 17.9717 11.8131C18.2325 11.4952 18.5163 11.1885 18.8299 10.9236C19.2421 10.5753 19.6746 10.244 20.1303 9.95596C20.7416 9.56956 21.3648 9.19219 22.0166 8.88202C22.9563 8.43493 23.954 8.14839 24.992 8.02176C25.2863 7.98585 25.5812 7.95464 25.9266 7.91868C26.4473 7.93264 26.9171 7.95288 27.387 7.96237C27.4708 7.96406 27.5555 7.92121 27.6398 7.89893ZM33.6543 14.2762C33.6725 14.2558 33.6906 14.2354 33.7279 14.1773C33.8911 14.0401 34.051 13.8986 34.2182 13.7664C34.5451 13.5079 34.875 13.2532 35.2057 12.9995C35.4176 12.8369 35.6333 12.679 35.8473 12.519C35.7315 12.4533 35.6558 12.4397 35.5867 12.4555C35.093 12.568 34.6021 12.6937 34.1074 12.8016C33.2095 12.9975 32.431 13.4783 31.6608 13.9269C30.9083 14.3651 30.2285 14.9476 29.5769 15.5336C29.0817 15.9791 28.6534 16.5084 28.2464 17.0396C27.8962 17.4967 27.6226 18.0121 27.3074 18.4967C26.6727 19.4724 26.2497 20.5434 25.9294 21.6524C25.723 22.3671 25.5821 23.1015 25.4327 23.8313C25.39 24.0402 25.4138 24.243 25.5755 24.4445C25.9697 24.9362 26.3304 25.4558 26.6854 25.9772C26.8141 26.1663 26.8883 26.3926 26.9723 26.5702C27.4409 25.9017 27.9015 25.2505 28.354 24.5937C28.4298 24.4837 28.5005 24.3548 28.5228 24.2259C28.6215 23.6547 28.6791 23.0758 28.7935 22.5081C29.0173 21.3977 29.3588 20.3246 29.8909 19.3176C30.1242 18.8761 30.3084 18.406 30.5689 17.9821C30.8947 17.4521 31.2594 16.9434 31.6387 16.4497C31.9361 16.0625 32.2813 15.7121 32.6436 15.3251C32.6514 15.2878 32.6591 15.2506 32.6696 15.2172C32.6696 15.2172 32.665 15.216 32.7071 15.2224C32.7159 15.1982 32.7247 15.1741 32.7338 15.1546C32.7338 15.1546 32.7291 15.1548 32.7705 15.157C32.779 15.1334 32.7875 15.1097 32.7961 15.0909C32.7961 15.0909 32.7912 15.0909 32.8333 15.0952C32.8419 15.0711 32.8504 15.047 32.8588 15.0275C32.8588 15.0275 32.8542 15.0274 32.8964 15.0324C32.905 15.0084 32.9136 14.9843 32.9222 14.9648C32.9222 14.9648 32.9177 14.9648 32.9593 14.9686C32.9681 14.9448 32.9769 14.921 32.9853 14.9017C32.9853 14.9017 32.9808 14.9013 33.0254 14.91C33.0751 14.8426 33.1248 14.7753 33.1749 14.7128C33.1749 14.7128 33.17 14.7132 33.2108 14.7146C33.2201 14.6914 33.2293 14.6682 33.2385 14.6503C33.2385 14.6503 33.2332 14.6502 33.2739 14.6515C33.2832 14.6283 33.2924 14.6051 33.3017 14.5872C33.3017 14.5872 33.2964 14.5872 33.3371 14.5884C33.3463 14.5651 33.3555 14.5419 33.3647 14.5241C33.3647 14.5241 33.3593 14.5241 33.3999 14.5252C33.4093 14.5022 33.4188 14.4791 33.4282 14.4616C33.4282 14.4616 33.4226 14.4616 33.4622 14.4608C33.4721 14.4383 33.482 14.4158 33.492 14.3991C33.492 14.3991 33.4862 14.3991 33.5253 14.3971C33.5353 14.3748 33.5452 14.3525 33.5551 14.336C33.5551 14.336 33.5493 14.336 33.5889 14.3344C33.5984 14.3118 33.6079 14.2892 33.6174 14.2718C33.6174 14.2718 33.6122 14.2717 33.6543 14.2762Z" stroke="white" stroke-width="20" mask="url(#path-1-inside-1_52_136)"/>
<path d="M32.6053 15.3456C32.2813 15.7123 31.9361 16.0627 31.6387 16.4499C31.2594 16.9436 30.8947 17.4523 30.5689 17.9823C30.3084 18.4062 30.1242 18.8763 29.8909 19.3178C29.3588 20.3248 29.0173 21.3979 28.7935 22.5083C28.6791 23.076 28.6215 23.6549 28.5228 24.2261C28.5005 24.355 28.4298 24.4839 28.354 24.5939C27.9015 25.2507 27.4409 25.9019 26.9723 26.5704C26.8883 26.3928 26.8141 26.1665 26.6854 25.9774C26.3304 25.456 25.9697 24.9364 25.5755 24.4447C25.4138 24.2432 25.39 24.0404 25.4327 23.8315C25.5821 23.1017 25.723 22.3673 25.9294 21.6526C26.2497 20.5436 26.6727 19.4726 27.3074 18.4969C27.6226 18.0123 27.8962 17.4969 28.2464 17.0398C28.6534 16.5086 29.0817 15.9793 29.5769 15.5338C30.2285 14.9478 30.9083 14.3653 31.6608 13.9271C32.431 13.4785 33.2095 12.9977 34.1074 12.8018C34.6021 12.6939 35.093 12.5682 35.5867 12.4557C35.6558 12.4399 35.7315 12.4535 35.8473 12.5192C35.6333 12.6792 35.4176 12.8371 35.2057 12.9997C34.875 13.2534 34.5451 13.5081 34.2182 13.7666C34.051 13.8988 33.8911 14.0403 33.6966 14.195C33.6476 14.2323 33.6299 14.2521 33.6122 14.2719C33.6122 14.2719 33.6174 14.272 33.6004 14.2745C33.5721 14.2967 33.5607 14.3164 33.5493 14.3362C33.5493 14.3362 33.5551 14.3362 33.538 14.3382C33.5094 14.3599 33.4978 14.3796 33.4862 14.3993C33.4862 14.3993 33.492 14.3993 33.4749 14.4011C33.4461 14.4225 33.4344 14.4422 33.4226 14.4618C33.4226 14.4618 33.4282 14.4618 33.4108 14.4631C33.3821 14.4844 33.3707 14.5044 33.3593 14.5243C33.3593 14.5243 33.3647 14.5243 33.3474 14.526C33.3189 14.5476 33.3076 14.5675 33.2964 14.5874C33.2964 14.5874 33.3017 14.5874 33.2844 14.5891C33.2558 14.6107 33.2445 14.6305 33.2332 14.6504C33.2332 14.6504 33.2385 14.6505 33.2213 14.6521C33.1927 14.6736 33.1814 14.6935 33.17 14.7134C33.17 14.7134 33.1749 14.713 33.152 14.7116C33.0797 14.774 33.0302 14.8377 32.9808 14.9015C32.9808 14.9015 32.9853 14.9019 32.9682 14.9037C32.94 14.9253 32.9288 14.9452 32.9177 14.965C32.9177 14.965 32.9223 14.965 32.9049 14.9666C32.8765 14.988 32.8654 15.0078 32.8542 15.0276C32.8542 15.0276 32.8588 15.0277 32.8415 15.0294C32.8132 15.0511 32.8022 15.0711 32.7912 15.0911C32.7912 15.0911 32.7961 15.0911 32.779 15.0932C32.751 15.1153 32.74 15.1351 32.7291 15.155C32.7291 15.155 32.7338 15.1548 32.7168 15.1567C32.6883 15.1778 32.6767 15.197 32.665 15.2162C32.665 15.2162 32.6696 15.2174 32.6481 15.2213C32.6195 15.2653 32.6124 15.3054 32.6053 15.3456Z" fill="#177C2C"/>
<path d="M17.6592 12.381C18.2636 12.5271 18.8862 12.6236 19.4706 12.8292C20.209 13.0889 20.9541 13.3725 21.6266 13.7651C22.372 14.2004 23.0657 14.738 23.73 15.2932C24.1566 15.6498 24.4985 16.1109 24.8619 16.5392C25.2032 16.9413 25.5323 17.3547 25.8486 17.7768C26.0389 18.0307 26.1911 18.3129 26.3667 18.5783C26.489 18.7632 26.5201 18.9227 26.3953 19.1408C25.6657 20.416 25.2535 21.801 25.026 23.2459C25.0216 23.2741 24.995 23.2987 24.9566 23.361C24.9179 23.2759 24.8687 23.2124 24.861 23.1442C24.6846 21.5984 24.1553 20.1694 23.4022 18.8216C23.0533 18.1971 22.6833 17.5788 22.2636 17.0008C21.6838 16.2023 21.0986 15.3964 20.4205 14.6843C19.8615 14.0973 19.1635 13.6429 18.5282 13.1282C18.2399 12.8946 17.9544 12.6573 17.6651 12.3996C17.6625 12.3775 17.6604 12.38 17.6592 12.381Z" fill="#177C2C"/>
<path d="M49.456 18.384C48.8587 17.3173 48.56 16.4533 48.56 15.792C48.56 15.1093 48.7413 14.672 49.104 14.48C50.32 13.9467 51.984 13.68 54.096 13.68C56.2293 13.68 57.7333 14.1813 58.608 15.184C59.4827 16.1653 59.92 17.6267 59.92 19.568V24.624H61.008C61.3707 24.624 61.648 24.8373 61.84 25.264C62.0533 25.6907 62.16 26.2773 62.16 27.024C62.16 27.7707 61.968 28.5067 61.584 29.232C61.2213 29.9573 60.72 30.32 60.08 30.32C58.928 30.32 58 30.0107 57.296 29.392C56.976 29.136 56.7307 28.8267 56.56 28.464C55.5787 29.7013 54.0533 30.32 51.984 30.32C50.4267 30.32 49.1147 29.7653 48.048 28.656C46.9813 27.5467 46.448 26.2347 46.448 24.72C46.448 21.2427 48.528 19.504 52.688 19.504H54.448V19.184C54.448 18.6293 54.352 18.2773 54.16 18.128C53.9893 17.9573 53.5733 17.872 52.912 17.872C52.1013 17.872 50.9493 18.0427 49.456 18.384ZM52.016 24.272C52.016 24.7413 52.144 25.104 52.4 25.36C52.656 25.5947 52.976 25.712 53.36 25.712C53.7653 25.712 54.128 25.552 54.448 25.232V22.768H53.552C52.528 22.768 52.016 23.2693 52.016 24.272ZM69.8593 30C67.7899 30 66.1899 29.3387 65.0593 28.016C63.9286 26.672 63.3633 24.6987 63.3633 22.096C63.3633 19.472 64.0993 17.424 65.5713 15.952C67.0646 14.4587 69.0379 13.712 71.4913 13.712C73.9659 13.712 76.0033 14.256 77.6033 15.344V31.28C77.6033 32.8587 76.9633 34.064 75.6833 34.896C74.4033 35.7493 72.7606 36.176 70.7552 36.176C68.7499 36.176 66.9579 35.92 65.3793 35.408C65.1659 34.896 65.0593 34.4373 65.0593 34.032C65.0593 32.6667 65.2833 31.664 65.7313 31.024C67.1606 31.6427 68.6859 31.952 70.3073 31.952C71.4806 31.952 72.0673 31.536 72.0673 30.704V29.744C71.1499 29.9147 70.4139 30 69.8593 30ZM71.3313 18.928C69.9019 18.928 69.1873 20.0053 69.1873 22.16C69.1873 23.504 69.4646 24.3787 70.0193 24.784C70.3819 25.0613 70.7446 25.2 71.1073 25.2C71.4699 25.2 71.7899 25.168 72.0673 25.104V19.024C71.8113 18.96 71.5659 18.928 71.3313 18.928ZM87.4792 29.968C87.4792 30.1173 86.5086 30.192 84.5673 30.192C82.6259 30.1493 81.6553 30.064 81.6553 29.936V19.312H80.7913C80.4499 19.312 80.1726 19.1093 79.9593 18.704C79.7673 18.2773 79.6713 17.7547 79.6713 17.136C79.6713 14.832 80.3539 13.68 81.7193 13.68C82.6793 13.68 83.4793 13.9787 84.1193 14.576C84.7593 15.152 85.0793 15.8133 85.0793 16.56C85.5273 15.6853 86.1246 14.992 86.8713 14.48C87.6393 13.9467 88.4179 13.68 89.2073 13.68C90.4446 13.68 91.1913 14 91.4473 14.64C91.5113 14.8107 91.5433 15.0667 91.5433 15.408C91.5433 15.728 91.4366 16.3147 91.2233 17.168C91.0313 18.0213 90.8286 18.64 90.6153 19.024C90.4019 19.408 90.2739 19.6 90.2313 19.6C90.1886 19.6 89.9859 19.5253 89.6233 19.376C89.2819 19.2053 88.9726 19.12 88.6953 19.12C87.8846 19.12 87.4792 19.76 87.4792 21.04V29.968ZM94.5348 28.112C93.2121 26.64 92.5508 24.6027 92.5508 22C92.5508 19.3973 93.2121 17.36 94.5348 15.888C95.8788 14.416 97.6814 13.68 99.9427 13.68C102.204 13.68 103.996 14.416 105.319 15.888C106.641 17.36 107.303 19.3973 107.303 22C107.303 24.6027 106.641 26.64 105.319 28.112C103.996 29.584 102.204 30.32 99.9427 30.32C97.6814 30.32 95.8788 29.584 94.5348 28.112ZM99.9427 19.024C98.7481 19.024 98.1508 20.0053 98.1508 21.968C98.1508 23.9307 98.7481 24.912 99.9427 24.912C101.159 24.912 101.767 23.9307 101.767 21.968C101.767 20.0053 101.159 19.024 99.9427 19.024ZM109.725 7.696C109.725 7.44 110.642 7.312 112.477 7.312C114.333 7.312 115.261 7.45067 115.261 7.728V13.936C116.178 13.7653 116.829 13.68 117.213 13.68C121.693 13.68 123.933 16.2507 123.933 21.392C123.933 24.2507 123.24 26.4587 121.853 28.016C120.488 29.552 118.536 30.32 115.997 30.32C113.48 30.32 111.389 29.7547 109.725 28.624V7.696ZM116.317 18.672C115.954 18.672 115.602 18.7893 115.261 19.024V25.136C115.56 25.264 115.869 25.328 116.189 25.328C116.53 25.328 116.872 25.2 117.213 24.944C117.81 24.5173 118.109 23.5253 118.109 21.968C118.109 19.7707 117.512 18.672 116.317 18.672ZM127.566 28.112C126.243 26.64 125.582 24.6027 125.582 22C125.582 19.3973 126.243 17.36 127.566 15.888C128.91 14.416 130.713 13.68 132.974 13.68C135.235 13.68 137.027 14.416 138.35 15.888C139.673 17.36 140.334 19.3973 140.334 22C140.334 24.6027 139.673 26.64 138.35 28.112C137.027 29.584 135.235 30.32 132.974 30.32C130.713 30.32 128.91 29.584 127.566 28.112ZM132.974 19.024C131.779 19.024 131.182 20.0053 131.182 21.968C131.182 23.9307 131.779 24.912 132.974 24.912C134.19 24.912 134.798 23.9307 134.798 21.968C134.798 20.0053 134.19 19.024 132.974 19.024ZM144.612 18.384C144.015 17.3173 143.716 16.4533 143.716 15.792C143.716 15.1093 143.898 14.672 144.26 14.48C145.476 13.9467 147.14 13.68 149.252 13.68C151.386 13.68 152.89 14.1813 153.764 15.184C154.639 16.1653 155.076 17.6267 155.076 19.568V24.624H156.164C156.527 24.624 156.804 24.8373 156.996 25.264C157.21 25.6907 157.316 26.2773 157.316 27.024C157.316 27.7707 157.124 28.5067 156.74 29.232C156.378 29.9573 155.876 30.32 155.236 30.32C154.084 30.32 153.156 30.0107 152.452 29.392C152.132 29.136 151.887 28.8267 151.716 28.464C150.735 29.7013 149.21 30.32 147.14 30.32C145.583 30.32 144.271 29.7653 143.204 28.656C142.138 27.5467 141.604 26.2347 141.604 24.72C141.604 21.2427 143.684 19.504 147.844 19.504H149.604V19.184C149.604 18.6293 149.508 18.2773 149.316 18.128C149.146 17.9573 148.73 17.872 148.068 17.872C147.258 17.872 146.106 18.0427 144.612 18.384ZM147.172 24.272C147.172 24.7413 147.3 25.104 147.556 25.36C147.812 25.5947 148.132 25.712 148.516 25.712C148.922 25.712 149.284 25.552 149.604 25.232V22.768H148.708C147.684 22.768 147.172 23.2693 147.172 24.272ZM166.135 29.968C166.135 30.1173 165.165 30.192 163.224 30.192C161.282 30.1493 160.312 30.064 160.312 29.936V19.312H159.448C159.106 19.312 158.829 19.1093 158.616 18.704C158.424 18.2773 158.328 17.7547 158.328 17.136C158.328 14.832 159.01 13.68 160.376 13.68C161.336 13.68 162.136 13.9787 162.776 14.576C163.416 15.152 163.736 15.8133 163.736 16.56C164.184 15.6853 164.781 14.992 165.528 14.48C166.296 13.9467 167.074 13.68 167.864 13.68C169.101 13.68 169.848 14 170.104 14.64C170.168 14.8107 170.2 15.0667 170.2 15.408C170.2 15.728 170.093 16.3147 169.88 17.168C169.688 18.0213 169.485 18.64 169.272 19.024C169.058 19.408 168.93 19.6 168.888 19.6C168.845 19.6 168.642 19.5253 168.28 19.376C167.938 19.2053 167.629 19.12 167.352 19.12C166.541 19.12 166.135 19.76 166.135 21.04V29.968ZM179.911 7.792C179.911 7.472 180.754 7.312 182.439 7.312C183.015 7.312 183.676 7.35467 184.423 7.44C185.191 7.504 185.575 7.6 185.575 7.728V24.592H186.695C187.228 24.592 187.58 25.072 187.751 26.032C187.794 26.3093 187.815 26.6933 187.815 27.184C187.815 27.6533 187.666 28.2293 187.367 28.912C186.94 29.8507 186.258 30.32 185.319 30.32C184.615 30.32 183.986 30.1813 183.431 29.904C182.898 29.6267 182.535 29.3387 182.343 29.04L182.055 28.624C180.882 29.7547 179.41 30.32 177.639 30.32C175.868 30.32 174.354 29.584 173.095 28.112C171.836 26.64 171.207 24.592 171.207 21.968C171.207 19.3227 171.868 17.2853 173.191 15.856C174.514 14.4053 176.167 13.68 178.151 13.68C178.727 13.68 179.314 13.744 179.911 13.872V7.792ZM178.855 18.8C177.66 18.8 177.063 19.8773 177.063 22.032C177.063 23.12 177.234 23.9093 177.575 24.4C177.916 24.8693 178.29 25.104 178.695 25.104C179.122 25.104 179.527 24.9227 179.911 24.56V19.12C179.548 18.9067 179.196 18.8 178.855 18.8Z" fill="white"/>
</svg>
