<svg width="256" height="256" viewBox="0 0 256 256" fill="none" xmlns="http://www.w3.org/2000/svg">
<path d="M128 256C111.191 256 94.5462 252.689 79.0165 246.257C63.4868 239.824 49.3762 230.396 37.4903 218.51C25.6044 206.624 16.176 192.513 9.74342 176.983C3.31082 161.454 0 144.809 0 128C0 111.191 3.31082 94.5462 9.74342 79.0165C16.176 63.4868 25.6044 49.3762 37.4903 37.4903C49.3762 25.6044 63.4868 16.176 79.0165 9.74342C94.5462 3.31081 111.191 -1.46951e-06 128 0V47.5454C117.435 47.5454 106.973 49.6264 97.2114 53.6696C87.4502 57.7129 78.5809 63.6391 71.11 71.11C63.6391 78.5809 57.7129 87.4501 53.6696 97.2114C49.6264 106.973 47.5454 117.435 47.5454 128C47.5454 138.565 49.6264 149.027 53.6696 158.789C57.7129 168.55 63.6391 177.419 71.11 184.89C78.5809 192.361 87.4501 198.287 97.2114 202.33C106.973 206.374 117.435 208.455 128 208.455V256Z" fill="#3F9651"/>
<path d="M128 256C111.191 256 94.5462 252.689 79.0165 246.257C63.4868 239.824 49.3762 230.396 37.4903 218.51C25.6044 206.624 16.176 192.513 9.74342 176.983C3.31082 161.454 0 144.809 0 128L47.5454 128C47.5454 138.565 49.6264 149.027 53.6696 158.789C57.7129 168.55 63.6391 177.419 71.11 184.89C78.5809 192.361 87.4501 198.287 97.2114 202.33C106.973 206.374 117.435 208.455 128 208.455V256Z" fill="#3F3D56"/>
<path d="M128 256C144.809 256 161.454 252.689 176.983 246.257C192.513 239.824 206.624 230.396 218.51 218.51C230.396 206.624 239.824 192.513 246.257 176.983C252.689 161.454 256 144.809 256 128C256 111.191 252.689 94.5462 246.257 79.0165C239.824 63.4868 230.396 49.3762 218.51 37.4903C206.624 25.6044 192.513 16.176 176.983 9.74342C161.454 3.31081 144.809 -1.46951e-06 128 0L128 47.5454C138.565 47.5454 149.027 49.6264 158.789 53.6696C168.55 57.7129 177.419 63.6391 184.89 71.11C192.361 78.5809 198.287 87.4501 202.33 97.2114C206.374 106.973 208.455 117.435 208.455 128C208.455 138.565 206.374 149.027 202.33 158.789C198.287 168.55 192.361 177.419 184.89 184.89C177.419 192.361 168.55 198.287 158.789 202.33C149.027 206.374 138.565 208.455 128 208.455L128 256Z" fill="#3F3D56"/>
<path d="M128 256C144.809 256 161.454 252.689 176.983 246.257C192.513 239.824 206.624 230.396 218.51 218.51C230.396 206.624 239.824 192.513 246.257 176.983C252.689 161.454 256 144.809 256 128L208.455 128C208.455 138.565 206.374 149.027 202.33 158.789C198.287 168.55 192.361 177.419 184.89 184.89C177.419 192.361 168.55 198.287 158.789 202.33C149.027 206.374 138.565 208.455 128 208.455L128 256Z" fill="#3F9651"/>
</svg>
