<svg width="361" height="361" viewBox="0 0 361 361" fill="none" xmlns="http://www.w3.org/2000/svg">
<circle cx="180.5" cy="180.5" r="180.5" fill="#D9D9D9" fill-opacity="0.25"/>
<path d="M276.781 216.683H268.13L268.099 216.652C266.561 215.02 265.869 212.722 266.251 210.515C266.372 209.8 266.601 209.107 266.934 208.456L269.564 203.307L268.521 184.869C268.503 184.527 268.62 184.203 268.854 183.952C269.088 183.704 269.407 183.565 269.749 183.565H271.367C272.033 183.565 272.572 184.086 272.599 184.747L273.305 202.97L276.947 208.662C277.257 209.148 277.509 209.665 277.689 210.2C278.404 212.273 278.143 214.525 276.97 216.378L276.776 216.679H276.781V216.683Z" fill="#3F3D56"/>
<path d="M276.035 215.406C275.954 215.537 275.81 215.613 275.657 215.613H269.075C268.949 215.613 268.823 215.559 268.742 215.465C267.632 214.201 267.142 212.542 267.335 210.928C267.358 210.753 267.488 210.604 267.659 210.56C269.035 210.195 270.694 209.989 272.479 209.989C273.877 209.989 275.194 210.119 276.363 210.348C276.525 210.38 276.656 210.497 276.701 210.654C277.168 212.237 276.948 213.972 276.04 215.406H276.035Z" fill="white"/>
<path d="M345.478 220.581H15.5512C15.3039 220.581 15.1016 220.379 15.1016 220.132C15.1016 219.884 15.3039 219.682 15.5512 219.682H345.478C345.725 219.682 345.927 219.884 345.927 220.132C345.927 220.379 345.725 220.581 345.478 220.581Z" fill="#3F3D56"/>
<path d="M111.97 137.07C107.136 135.622 103.962 131.954 104.884 128.878C105.806 125.803 110.473 124.481 115.306 125.929C117.244 126.482 119.024 127.489 120.494 128.869L140.902 135.258L137.701 144.772L117.923 137.461C115.935 137.808 113.894 137.673 111.97 137.066L111.97 137.07Z" fill="#A0616A"/>
<path d="M202.5 139.57L202.747 156.372C202.747 156.372 181.625 156.093 174.233 156.673C166.841 157.258 120.778 140.397 120.778 140.397L128.431 129.548L179.246 141.814L202.5 139.565V139.57Z" fill="#E6E6E6"/>
<path d="M113.477 116.72H110.33V159.434H113.477V116.72Z" fill="white"/>
<path d="M124.84 220.132H106.635L106.567 220.06C103.33 216.62 101.873 211.791 102.674 207.142C102.93 205.641 103.411 204.184 104.112 202.813L109.652 191.981L107.453 153.18C107.413 152.46 107.664 151.777 108.159 151.255C108.653 150.734 109.323 150.446 110.043 150.446H113.446C114.845 150.446 115.987 151.539 116.041 152.937L117.52 191.289L125.19 203.267C125.847 204.292 126.373 205.38 126.755 206.504C128.257 210.865 127.708 215.604 125.244 219.502L124.84 220.136L124.84 220.132Z" fill="#3F3D56"/>
<path d="M123.274 217.447C123.103 217.717 122.802 217.883 122.479 217.883H108.621C108.356 217.883 108.095 217.771 107.92 217.573C105.582 214.911 104.552 211.427 104.957 208.028C105.002 207.655 105.276 207.349 105.64 207.255C108.532 206.49 112.025 206.05 115.784 206.05C118.724 206.05 121.503 206.324 123.958 206.805C124.295 206.872 124.574 207.115 124.668 207.443C125.648 210.771 125.185 214.426 123.274 217.447Z" fill="white"/>
<path d="M189.012 115.821L191.709 134.255L170.128 136.503L171.477 112.674L189.012 115.821Z" fill="#A0616A"/>
<path d="M168.496 121.311C176.534 121.311 183.05 114.795 183.05 106.757C183.05 98.7192 176.534 92.2031 168.496 92.2031C160.458 92.2031 153.942 98.7192 153.942 106.757C153.942 114.795 160.458 121.311 168.496 121.311Z" fill="#A0616A"/>
<path d="M123.148 172.792C119.029 169.096 113.733 168.264 111.314 170.935C108.895 173.606 110.271 178.767 114.389 182.463C116.013 183.965 117.982 185.044 120.135 185.615L137.783 201.05L145.062 192.458L126.893 178.156C126.102 176.083 124.816 174.244 123.148 172.792Z" fill="#A0616A"/>
<path d="M171.477 132.007L193.508 128.86L206.547 138.752L207.895 193.155L220.485 279.93L136.856 280.829C136.856 280.829 143.151 224.628 146.298 221.48C149.446 218.333 151.694 203.946 151.694 203.946L157.988 141.899L171.477 132.007Z" fill="#E6E6E6"/>
<path d="M163.159 141.674C163.159 141.674 151.469 140.775 148.771 148.868C146.073 156.961 142.926 183.488 142.926 183.488L135.732 184.388L129.438 177.643L122.693 193.829C122.693 193.829 146.523 219.907 155.515 208.217C164.507 196.527 163.159 141.674 163.159 141.674Z" fill="#E6E6E6"/>
<path d="M193.283 114.27C193.283 114.27 193.283 99.8601 194.632 95.3639C195.981 90.8678 188.337 85.9221 186.089 81.4259C183.841 76.9298 169.903 83.2244 164.058 84.1236C158.213 85.0228 158.663 88.6197 155.066 94.4647C151.469 100.31 158.663 109.302 164.058 110.201C169.453 111.1 167.655 115.147 171.355 119.643C175.056 124.139 186.88 119.643 186.88 119.643L188.337 121.891C188.337 121.891 185.19 134.48 191.035 145.271L206.322 149.318C201.826 135.829 206.771 135.829 209.59 128.86C212.41 121.891 193.283 114.27 193.283 114.27Z" fill="#2F2E41"/>
<path d="M300.206 216.229H292.194V202.795H300.206C301.118 202.795 301.851 202.053 301.851 201.14C301.851 200.227 301.114 199.499 300.206 199.494H244.346C243.433 199.494 242.7 200.236 242.7 201.149C242.7 202.062 243.438 202.79 244.346 202.795H251.18V216.229H244.346C243.433 216.229 242.7 216.971 242.7 217.884C242.7 218.796 243.438 219.525 244.346 219.529H300.206C301.118 219.529 301.851 218.787 301.851 217.875C301.851 216.962 301.114 216.233 300.206 216.229ZM254.48 216.229L258.248 206.194L288.889 202.795V216.229H254.48Z" fill="#F2F2F2"/>
</svg>
