<svg width="323" height="323" viewBox="0 0 323 323" fill="none" xmlns="http://www.w3.org/2000/svg">
<path d="M170.735 147.664C165.58 142.509 162.684 135.518 162.684 128.228C162.684 120.937 165.58 113.946 170.735 108.791C175.89 103.636 182.882 100.74 190.172 100.74C197.462 100.74 204.454 103.636 209.609 108.791C214.764 113.946 217.66 120.937 217.66 128.228C217.66 135.518 214.764 142.509 209.609 147.664C204.454 152.819 197.462 155.715 190.172 155.715C182.882 155.715 175.89 152.819 170.735 147.664Z" stroke="url(#paint0_linear_128_2746)" stroke-width="4" stroke-linecap="round" stroke-linejoin="round"/>
<path d="M92.9936 186.542L131.867 225.416L215.999 181.343C227.821 175.153 237.963 166.188 245.557 155.215C253.151 144.243 257.968 131.592 259.596 118.348L266.642 60.961C266.795 59.7169 266.663 58.4543 266.255 57.269C265.848 56.0837 265.175 55.007 264.289 54.1207C263.402 53.2343 262.326 52.5617 261.14 52.154C259.955 51.7462 258.692 51.614 257.448 51.7674L200.061 58.8132C186.817 60.4412 174.166 65.2587 163.194 72.8523C152.222 80.4459 143.256 90.5886 137.067 102.41L92.9936 186.542ZM92.9936 186.542L44.4016 176.824C44.4016 176.824 63.8384 118.513 122.149 128.232M63.8384 215.697C44.4016 235.134 54.12 264.289 54.12 264.289C54.12 264.289 83.2752 274.008 102.712 254.571M194.366 200.449C204.085 258.76 145.774 278.196 145.774 278.196L136.056 229.604" stroke="url(#paint1_linear_128_2746)" stroke-width="4" stroke-linecap="round" stroke-linejoin="round"/>
<defs>
<linearGradient id="paint0_linear_128_2746" x1="209.609" y1="108.791" x2="170.735" y2="147.664" gradientUnits="userSpaceOnUse">
<stop stop-color="#EDF7EF"/>
<stop offset="1" stop-color="#3F9651"/>
</linearGradient>
<linearGradient id="paint1_linear_128_2746" x1="266.383" y1="56.215" x2="56.2143" y2="266.384" gradientUnits="userSpaceOnUse">
<stop stop-color="#EDF7EF"/>
<stop offset="1" stop-color="#3F9651"/>
</linearGradient>
</defs>
</svg>
