<svg width="32" height="33" viewBox="0 0 32 33" fill="none" xmlns="http://www.w3.org/2000/svg">
<g clip-path="url(#clip0_87_877)">
<path d="M15.9999 32.2337C24.8363 32.2337 31.9997 25.018 31.9997 16.1169C31.9997 7.21577 24.8363 0 15.9999 0C7.16338 0 0 7.21577 0 16.1169C0 25.018 7.16338 32.2337 15.9999 32.2337Z" fill="white"/>
<path d="M25.8001 11.5828C25.1145 11.889 24.3769 12.0962 23.6034 12.1887C24.3932 11.7121 24.9992 10.9579 25.2853 10.0578C24.5463 10.4994 23.7275 10.8197 22.8567 10.9924C22.1591 10.244 21.1651 9.77625 20.0645 9.77625C17.9528 9.77625 16.2401 11.5015 16.2401 13.6286C16.2401 13.9306 16.274 14.2245 16.3396 14.5066C13.1612 14.346 10.343 12.8124 8.45661 10.481C8.12748 11.0498 7.93867 11.7121 7.93867 12.418C7.93867 13.7542 8.61433 14.9338 9.63996 15.6245C9.01335 15.6047 8.42324 15.4314 7.90786 15.1421C7.90758 15.1585 7.90758 15.1749 7.90758 15.191C7.90758 17.0575 9.2264 18.6144 10.9756 18.9681C10.655 19.0566 10.3165 19.1034 9.96824 19.1034C9.72124 19.1034 9.48195 19.0795 9.24865 19.0347C9.73522 20.5649 11.1473 21.6787 12.8212 21.7101C11.5121 22.7435 9.86328 23.3591 8.071 23.3591C7.76297 23.3591 7.4578 23.341 7.15918 23.3051C8.85078 24.3986 10.8615 25.0361 13.0212 25.0361C20.0556 25.0361 23.9026 19.166 23.9026 14.0748C23.9026 13.9079 23.8989 13.7415 23.8915 13.5766C24.6393 13.0336 25.2876 12.3553 25.8001 11.5828Z" fill="#177C2C"/>
</g>
<defs>
<clipPath id="clip0_87_877">
<rect width="32" height="32.234" fill="white"/>
</clipPath>
</defs>
</svg>
