<svg width="361" height="361" viewBox="0 0 361 361" fill="none" xmlns="http://www.w3.org/2000/svg">
<circle cx="180.5" cy="180.5" r="180.5" fill="#D9D9D9" fill-opacity="0.25"/>
<path d="M314.298 249.477C311.748 249.371 309.424 248.342 308.373 246.747C308.324 246.672 308.277 246.597 308.234 246.52C307.85 245.84 307.73 245.059 308.15 244.39C308.569 243.72 309.618 243.212 310.67 243.317C311.723 243.423 312.545 244.263 312.109 244.927C312.012 243.584 311.932 242.173 313.015 241.004C313.611 240.393 314.389 239.991 315.232 239.858C317.414 239.475 318.862 240.708 319.152 241.954C319.367 242.874 319.071 243.809 318.776 244.718C319.684 243.645 321.842 243.167 323.495 243.674C325.148 244.181 326.065 245.601 325.5 246.779C324.835 248.167 322.617 248.885 320.557 249.264C318.856 249.577 316.305 249.56 314.298 249.477Z" fill="#F2F2F2"/>
<path d="M225.496 249.477C222.946 249.371 220.622 248.342 219.571 246.747C219.522 246.672 219.475 246.597 219.432 246.52C219.048 245.84 218.928 245.059 219.348 244.39C219.768 243.72 220.816 243.212 221.869 243.317C222.921 243.423 223.743 244.263 223.307 244.927C223.21 243.584 223.131 242.173 224.213 241.004C224.809 240.393 225.587 239.991 226.43 239.858C228.612 239.475 230.061 240.708 230.351 241.954C230.565 242.874 230.269 243.809 229.975 244.718C230.882 243.645 233.04 243.167 234.693 243.674C236.346 244.181 237.263 245.601 236.698 246.779C236.033 248.167 233.815 248.885 231.755 249.264C230.054 249.577 227.503 249.56 225.496 249.477Z" fill="#F2F2F2"/>
<path d="M143.78 169.446H125.488C124.033 169.445 122.638 168.866 121.609 167.837C120.58 166.808 120.002 165.413 120 163.959V129.702C120.002 128.248 120.58 126.853 121.609 125.824C122.638 124.795 124.033 124.216 125.488 124.215H143.78C145.235 124.216 146.629 124.795 147.658 125.824C148.687 126.853 149.266 128.248 149.267 129.702V163.959C149.266 165.413 148.687 166.808 147.658 167.837C146.629 168.866 145.235 169.445 143.78 169.446Z" fill="#F2F2F2"/>
<path d="M256.127 245.833H252.05L250.11 230.106L256.128 230.106L256.127 245.833Z" fill="#FFB8B8"/>
<path d="M257.169 249.785L244.021 249.785V249.619C244.021 248.947 244.154 248.281 244.411 247.66C244.668 247.04 245.045 246.475 245.52 246C245.995 245.525 246.56 245.148 247.18 244.891C247.801 244.634 248.467 244.501 249.139 244.501H249.139L257.169 244.502L257.169 249.785Z" fill="#2F2E41"/>
<path d="M301.678 242.018L297.834 243.379L290.755 229.202L296.427 227.193L301.678 242.018Z" fill="#FFB8B8"/>
<path d="M303.977 245.397L291.584 249.785L291.529 249.629C291.305 248.995 291.207 248.324 291.242 247.653C291.277 246.982 291.444 246.324 291.734 245.718C292.023 245.111 292.429 244.567 292.928 244.118C293.428 243.668 294.011 243.321 294.644 243.097L302.214 240.416L303.977 245.397Z" fill="#2F2E41"/>
<path d="M256.014 240.553C255.923 240.553 255.831 240.544 255.741 240.528L250.755 239.622C250.416 239.559 250.108 239.381 249.885 239.118C249.661 238.856 249.534 238.524 249.526 238.179C248.801 204.617 252.364 182.063 260.116 165.897C260.254 165.611 260.48 165.376 260.761 165.228C261.041 165.079 261.362 165.025 261.676 165.072L279.606 167.66C279.934 167.708 280.236 167.862 280.466 168.1C280.697 168.337 280.842 168.644 280.879 168.973L282.461 182.909C282.469 182.984 282.485 183.059 282.508 183.131L299.699 234.638C299.816 235.012 299.782 235.418 299.604 235.768C299.426 236.118 299.118 236.385 298.745 236.51L294.1 238.059C293.758 238.171 293.387 238.157 293.055 238.02C292.722 237.882 292.45 237.63 292.288 237.308L269.034 193.462C268.988 193.369 268.914 193.294 268.823 193.245C268.732 193.196 268.629 193.177 268.526 193.19C268.424 193.203 268.328 193.247 268.252 193.316C268.176 193.386 268.123 193.477 268.101 193.578L257.471 239.376C257.399 239.709 257.215 240.008 256.95 240.222C256.685 240.436 256.355 240.553 256.014 240.553Z" fill="#2F2E41"/>
<path d="M241.845 138.714C241.886 138.894 241.913 139.076 241.925 139.26L256.212 147.502L259.684 145.503L263.386 150.349L257.583 154.486C257.114 154.82 256.549 154.993 255.974 154.979C255.398 154.965 254.842 154.765 254.39 154.408L239.658 142.786C238.993 143.032 238.269 143.07 237.582 142.894C236.895 142.719 236.278 142.338 235.813 141.804C235.347 141.269 235.056 140.605 234.977 139.901C234.898 139.196 235.035 138.484 235.371 137.86C235.706 137.235 236.224 136.727 236.855 136.404C237.486 136.081 238.2 135.958 238.903 136.051C239.606 136.143 240.264 136.448 240.79 136.924C241.315 137.4 241.683 138.024 241.845 138.714Z" fill="#FFB8B8"/>
<path d="M256.407 146.678C256.45 146.467 256.538 146.268 256.665 146.095C256.792 145.921 256.955 145.777 257.143 145.672L263.699 142.006C264.57 141.334 265.672 141.034 266.764 141.173C267.856 141.312 268.848 141.878 269.522 142.747C270.197 143.617 270.5 144.718 270.364 145.81C270.227 146.902 269.664 147.895 268.796 148.573L263.569 154.001C263.42 154.156 263.239 154.277 263.039 154.355C262.839 154.434 262.624 154.469 262.409 154.457C262.195 154.445 261.985 154.387 261.795 154.287C261.604 154.187 261.438 154.047 261.306 153.877L256.689 147.892C256.557 147.722 256.464 147.525 256.416 147.316C256.367 147.106 256.364 146.889 256.407 146.678Z" fill="white"/>
<path d="M271.674 137.893C276.186 137.893 279.843 134.236 279.843 129.724C279.843 125.213 276.186 121.556 271.674 121.556C267.163 121.556 263.506 125.213 263.506 129.724C263.506 134.236 267.163 137.893 271.674 137.893Z" fill="#FFB8B8"/>
<path d="M279.629 169.402C279.548 169.402 279.467 169.396 279.387 169.383L261.709 166.485C261.509 166.452 261.318 166.379 261.147 166.27C260.977 166.162 260.83 166.019 260.715 165.852C260.601 165.685 260.522 165.497 260.483 165.298C260.443 165.1 260.445 164.895 260.487 164.697L261.347 160.643C260.907 159.986 257.322 154.275 261.688 148.911C261.604 147.005 262.268 145.142 263.537 143.718C264.806 142.294 266.581 141.422 268.484 141.287L277.62 140.593C278.795 140.504 279.974 140.699 281.059 141.16C282.143 141.622 283.101 142.337 283.851 143.246C284.602 144.155 285.123 145.231 285.371 146.383C285.619 147.535 285.586 148.73 285.276 149.867L281.088 168.238C281.012 168.569 280.826 168.864 280.561 169.075C280.297 169.286 279.968 169.402 279.629 169.402Z" fill="white"/>
<path d="M296.137 184.764C296.437 184.337 296.639 183.849 296.73 183.334C296.82 182.82 296.797 182.292 296.662 181.787C296.526 181.283 296.282 180.814 295.946 180.414C295.61 180.015 295.19 179.693 294.716 179.473L284.651 148.527L278.818 151.295L289.831 181.427C289.514 182.247 289.509 183.155 289.817 183.979C290.125 184.803 290.724 185.485 291.501 185.896C292.279 186.308 293.18 186.42 294.034 186.211C294.888 186.002 295.637 185.488 296.137 184.764Z" fill="#FFB8B8"/>
<path d="M286.878 153.679L279.133 156.019C278.913 156.085 278.68 156.104 278.452 156.072C278.224 156.041 278.006 155.961 277.811 155.838C277.617 155.714 277.451 155.551 277.326 155.357C277.201 155.164 277.118 154.947 277.085 154.719L275.909 146.738C275.574 145.609 275.701 144.393 276.262 143.357C276.823 142.32 277.772 141.549 278.901 141.212C280.029 140.874 281.246 140.998 282.283 141.557C283.321 142.115 284.094 143.062 284.434 144.19L287.864 151.463C287.962 151.671 288.014 151.898 288.017 152.128C288.019 152.358 287.972 152.586 287.879 152.797C287.785 153.007 287.647 153.195 287.475 153.347C287.302 153.499 287.099 153.612 286.878 153.679Z" fill="white"/>
<path d="M263.734 130.039C265.548 130.73 267.521 130.886 269.421 130.487C271.32 130.088 273.065 129.152 274.447 127.79C273.59 130.053 273.83 139.654 273.83 139.654C273.83 139.654 281.428 136.047 282.459 135.416C288.548 131.689 280.15 115.48 273.164 118.036C271.981 118.469 270.993 118.979 270.514 120.144C269.471 118.857 267.497 118.578 265.978 119.239C264.459 119.9 263.379 121.332 262.799 122.884C262.341 124.135 262.162 125.473 262.277 126.801C262.391 128.129 262.796 129.416 263.462 130.571L263.734 130.039Z" fill="black"/>
<path d="M228.089 110.745H41.1774C38.2675 110.748 35.4775 111.905 33.4199 113.963C31.3622 116.02 30.205 118.81 30.2021 121.72V172.938C30.205 175.848 31.3622 178.638 33.4199 180.696C35.4775 182.753 38.2675 183.911 41.1774 183.913H228.089C230.999 183.911 233.789 182.753 235.847 180.696C237.904 178.638 239.062 175.848 239.065 172.938V121.72C239.062 118.81 237.904 116.02 235.847 113.963C233.789 111.905 230.999 110.748 228.089 110.745ZM238.399 172.938C238.396 175.672 237.309 178.292 235.376 180.225C233.443 182.157 230.823 183.245 228.089 183.248H41.1774C38.4441 183.245 35.8237 182.157 33.8909 180.225C31.9582 178.292 30.8708 175.672 30.8673 172.938V121.72C30.8708 118.987 31.9582 116.367 33.8909 114.434C35.8237 112.501 38.4441 111.414 41.1774 111.41H228.089C230.823 111.414 233.443 112.501 235.376 114.434C237.309 116.367 238.396 118.987 238.399 121.72V172.938Z" fill="#3F3D56"/>
<path d="M59.7195 159.136C58.9302 159.136 58.1586 158.902 57.5022 158.464C56.8459 158.025 56.3344 157.402 56.0323 156.673C55.7302 155.943 55.6512 155.141 55.8052 154.367C55.9592 153.593 56.3393 152.881 56.8975 152.323C57.4556 151.765 58.1667 151.385 58.9409 151.231C59.7151 151.077 60.5175 151.156 61.2468 151.458C61.9761 151.76 62.5994 152.272 63.0379 152.928C63.4765 153.584 63.7105 154.356 63.7105 155.145C63.7093 156.203 63.2884 157.218 62.5402 157.966C61.792 158.714 60.7776 159.135 59.7195 159.136ZM59.7195 151.819C59.0617 151.819 58.4187 152.015 57.8718 152.38C57.3249 152.745 56.8986 153.265 56.6469 153.873C56.3951 154.48 56.3293 155.149 56.4576 155.794C56.5859 156.439 56.9027 157.032 57.3678 157.497C57.8329 157.962 58.4255 158.279 59.0707 158.407C59.7158 158.536 60.3845 158.47 60.9923 158.218C61.6 157.966 62.1194 157.54 62.4848 156.993C62.8503 156.446 63.0454 155.803 63.0454 155.145C63.0444 154.264 62.6936 153.418 62.0701 152.795C61.4466 152.171 60.6013 151.82 59.7195 151.819Z" fill="#3F3D56"/>
<path d="M59.5875 150.156C59.4993 150.156 59.4147 150.121 59.3523 150.058C59.2899 149.996 59.2549 149.912 59.2549 149.823V145.999C59.2549 145.91 59.2899 145.826 59.3523 145.763C59.4147 145.701 59.4993 145.666 59.5875 145.666C59.6757 145.666 59.7603 145.701 59.8226 145.763C59.885 145.826 59.92 145.91 59.92 145.999V149.823C59.92 149.912 59.885 149.996 59.8226 150.058C59.7603 150.121 59.6757 150.156 59.5875 150.156Z" fill="#3F3D56"/>
<path d="M54.3985 155.347H50.5738C50.4856 155.347 50.401 155.312 50.3386 155.25C50.2763 155.187 50.2412 155.103 50.2412 155.014C50.2412 154.926 50.2763 154.842 50.3386 154.779C50.401 154.717 50.4856 154.682 50.5738 154.682H54.3985C54.4867 154.682 54.5713 154.717 54.6337 154.779C54.696 154.842 54.7311 154.926 54.7311 155.014C54.7311 155.103 54.696 155.187 54.6337 155.25C54.5713 155.312 54.4867 155.347 54.3985 155.347Z" fill="#3F3D56"/>
<path d="M68.3663 155.347H64.5416C64.4534 155.347 64.3688 155.312 64.3064 155.25C64.244 155.187 64.209 155.103 64.209 155.014C64.209 154.926 64.244 154.842 64.3064 154.779C64.3688 154.717 64.4534 154.682 64.5416 154.682H68.3663C68.4545 154.682 68.5391 154.717 68.6014 154.779C68.6638 154.842 68.6989 154.926 68.6989 155.014C68.6989 155.103 68.6638 155.187 68.6014 155.25C68.5391 155.312 68.4545 155.347 68.3663 155.347Z" fill="#3F3D56"/>
<path d="M64.4361 151.71C64.3699 151.71 64.3052 151.69 64.2503 151.653C64.1954 151.616 64.1527 151.564 64.1279 151.502C64.103 151.441 64.097 151.373 64.1107 151.309C64.1243 151.244 64.157 151.185 64.2045 151.139L65.8062 149.585C65.8695 149.523 65.9547 149.489 66.0428 149.491C66.131 149.492 66.2151 149.528 66.2765 149.592C66.3379 149.655 66.3717 149.74 66.3703 149.828C66.369 149.917 66.3327 150.001 66.2694 150.062L64.6677 151.616C64.6057 151.676 64.5226 151.71 64.4361 151.71Z" fill="#3F3D56"/>
<path d="M54.6696 151.71C54.5832 151.71 54.5001 151.676 54.4381 151.616L52.8364 150.062C52.805 150.032 52.78 149.995 52.7626 149.955C52.7453 149.915 52.7361 149.872 52.7354 149.828C52.7347 149.785 52.7427 149.741 52.7588 149.701C52.7749 149.66 52.7988 149.623 52.8292 149.592C52.8596 149.56 52.8959 149.535 52.936 149.518C52.9761 149.501 53.0192 149.491 53.0629 149.491C53.1066 149.49 53.1499 149.498 53.1905 149.514C53.2311 149.53 53.2682 149.554 53.2995 149.585L54.9012 151.139C54.9487 151.185 54.9814 151.244 54.9951 151.309C55.0087 151.373 55.0027 151.441 54.9779 151.502C54.953 151.564 54.9104 151.616 54.8555 151.653C54.8005 151.69 54.7358 151.71 54.6696 151.71Z" fill="#3F3D56"/>
<path d="M53.399 160.799C53.3336 160.799 53.2697 160.78 53.2152 160.744C53.1608 160.707 53.1181 160.656 53.0927 160.596C53.0672 160.536 53.0601 160.469 53.0721 160.405C53.0841 160.341 53.1148 160.282 53.1603 160.235L54.762 158.585C54.8235 158.522 54.9076 158.486 54.9958 158.484C55.084 158.483 55.1691 158.517 55.2324 158.578C55.2957 158.64 55.332 158.724 55.3333 158.812C55.3346 158.9 55.3008 158.985 55.2393 159.049L53.6376 160.698C53.6066 160.73 53.5695 160.756 53.5285 160.773C53.4875 160.79 53.4435 160.799 53.399 160.799Z" fill="#3F3D56"/>
<path d="M66.3703 161.131C66.3259 161.132 66.282 161.123 66.2411 161.105C66.2002 161.088 66.1632 161.063 66.1323 161.031L64.198 159.049C64.1675 159.018 64.1435 158.981 64.1273 158.94C64.1111 158.9 64.103 158.856 64.1035 158.813C64.1041 158.769 64.1132 158.726 64.1304 158.686C64.1476 158.646 64.1726 158.609 64.2038 158.579C64.2351 158.548 64.272 158.524 64.3126 158.508C64.3531 158.492 64.3964 158.484 64.4401 158.484C64.4838 158.485 64.5269 158.494 64.567 158.511C64.6072 158.528 64.6435 158.553 64.674 158.585L66.6083 160.567C66.654 160.614 66.6849 160.673 66.6971 160.737C66.7093 160.801 66.7022 160.868 66.6768 160.928C66.6514 160.988 66.6088 161.04 66.5543 161.076C66.4997 161.112 66.4357 161.132 66.3703 161.131Z" fill="#3F3D56"/>
<path d="M59.5875 164.457C59.4993 164.457 59.4147 164.422 59.3523 164.36C59.2899 164.297 59.2549 164.213 59.2549 164.125V160.3C59.2549 160.212 59.2899 160.127 59.3523 160.065C59.4147 160.002 59.4993 159.967 59.5875 159.967C59.6757 159.967 59.7603 160.002 59.8226 160.065C59.885 160.127 59.92 160.212 59.92 160.3V164.125C59.92 164.213 59.885 164.297 59.8226 164.36C59.7603 164.422 59.6757 164.457 59.5875 164.457Z" fill="#3F3D56"/>
<path d="M103.092 161.464H91.9893C90.8553 161.445 89.7742 160.981 88.9791 160.172C88.1839 159.364 87.7383 158.275 87.7383 157.141C87.7383 156.006 88.1839 154.918 88.9791 154.109C89.7742 153.3 90.8553 152.836 91.9893 152.817H92.8384C93.2596 151.925 93.9247 151.171 94.7569 150.641C95.589 150.111 96.5541 149.828 97.5405 149.824C98.8817 149.836 100.168 150.359 101.138 151.285C102.107 152.212 102.688 153.473 102.761 154.812H103.092C103.964 154.827 104.796 155.184 105.408 155.806C106.02 156.428 106.363 157.266 106.363 158.138C106.363 159.011 106.02 159.849 105.408 160.471C104.796 161.093 103.964 161.45 103.092 161.464ZM91.9893 153.482C91.0318 153.501 90.1199 153.895 89.4495 154.579C88.779 155.263 88.4035 156.183 88.4035 157.141C88.4035 158.098 88.779 159.018 89.4495 159.702C90.1199 160.386 91.0318 160.78 91.9893 160.799H103.092C103.788 160.785 104.45 160.498 104.938 160.001C105.425 159.503 105.698 158.835 105.698 158.138C105.698 157.442 105.425 156.773 104.938 156.276C104.45 155.779 103.788 155.492 103.092 155.478H102.439C102.35 155.478 102.266 155.443 102.203 155.38C102.141 155.318 102.106 155.233 102.106 155.145C102.116 153.923 101.642 152.746 100.786 151.873C99.93 151 98.7629 150.502 97.5405 150.489C96.6466 150.494 95.7738 150.761 95.0303 151.257C94.2868 151.753 93.7055 152.457 93.3583 153.281C93.3327 153.341 93.29 153.391 93.2357 153.427C93.1814 153.463 93.1178 153.482 93.0527 153.482H91.9893Z" fill="#3F3D56"/>
<path d="M140.179 155.163L139.92 154.551C140.423 154.338 140.866 154.005 141.21 153.58C141.553 153.156 141.787 152.653 141.891 152.117C141.994 151.581 141.964 151.027 141.803 150.505C141.642 149.983 141.354 149.509 140.967 149.124C140.579 148.74 140.102 148.457 139.579 148.3C139.055 148.143 138.502 148.118 137.966 148.226C137.431 148.334 136.93 148.573 136.509 148.92C136.087 149.267 135.758 149.713 135.549 150.218L134.935 149.965C135.185 149.359 135.58 148.824 136.086 148.407C136.591 147.99 137.192 147.704 137.834 147.574C138.477 147.444 139.141 147.475 139.769 147.663C140.397 147.851 140.969 148.191 141.435 148.652C141.9 149.113 142.245 149.682 142.438 150.309C142.632 150.935 142.668 151.599 142.544 152.243C142.42 152.886 142.139 153.489 141.727 153.999C141.314 154.508 140.783 154.908 140.179 155.163Z" fill="#3F3D56"/>
<path d="M140.676 161.464H129.573C128.439 161.445 127.358 160.981 126.563 160.172C125.768 159.364 125.322 158.275 125.322 157.141C125.322 156.006 125.768 154.918 126.563 154.109C127.358 153.3 128.439 152.836 129.573 152.817H130.422C130.844 151.925 131.509 151.171 132.341 150.641C133.173 150.111 134.138 149.828 135.124 149.824C136.466 149.836 137.752 150.359 138.722 151.285C139.691 152.212 140.272 153.473 140.345 154.812H140.676C141.548 154.827 142.38 155.184 142.992 155.806C143.604 156.428 143.947 157.266 143.947 158.138C143.947 159.011 143.604 159.849 142.992 160.471C142.38 161.093 141.548 161.45 140.676 161.464ZM129.573 153.482C128.616 153.501 127.704 153.895 127.033 154.579C126.363 155.263 125.988 156.183 125.988 157.141C125.988 158.098 126.363 159.018 127.033 159.702C127.704 160.386 128.616 160.78 129.573 160.799H140.676C141.372 160.785 142.034 160.498 142.522 160.001C143.009 159.503 143.282 158.835 143.282 158.138C143.282 157.442 143.009 156.773 142.522 156.276C142.034 155.779 141.372 155.492 140.676 155.478H140.023C139.934 155.478 139.85 155.443 139.787 155.38C139.725 155.318 139.69 155.233 139.69 155.145C139.7 153.923 139.226 152.746 138.37 151.873C137.514 151 136.347 150.502 135.124 150.489C134.231 150.494 133.358 150.761 132.614 151.257C131.871 151.753 131.289 152.457 130.942 153.281C130.917 153.341 130.874 153.391 130.82 153.427C130.765 153.463 130.702 153.482 130.637 153.482H129.573Z" fill="#3F3D56"/>
<path d="M178.257 159.802H176.922C176.833 159.802 176.749 159.767 176.686 159.704C176.624 159.642 176.589 159.557 176.589 159.469C176.589 159.381 176.624 159.296 176.686 159.234C176.749 159.171 176.833 159.136 176.922 159.136H178.257C178.953 159.122 179.616 158.835 180.103 158.338C180.59 157.841 180.863 157.172 180.863 156.476C180.863 155.779 180.59 155.111 180.103 154.613C179.616 154.116 178.953 153.829 178.257 153.815H177.604C177.515 153.815 177.431 153.78 177.368 153.718C177.306 153.655 177.271 153.571 177.271 153.482C177.281 152.26 176.807 151.083 175.951 150.21C175.095 149.338 173.928 148.84 172.705 148.826C171.812 148.831 170.939 149.098 170.195 149.594C169.452 150.091 168.871 150.794 168.523 151.618C168.498 151.678 168.455 151.729 168.401 151.765C168.346 151.8 168.283 151.82 168.218 151.82H167.154C166.197 151.839 165.285 152.233 164.615 152.917C163.944 153.601 163.569 154.52 163.569 155.478C163.569 156.436 163.944 157.355 164.615 158.039C165.285 158.723 166.197 159.117 167.154 159.136H168.185C168.274 159.136 168.358 159.171 168.421 159.234C168.483 159.296 168.518 159.381 168.518 159.469C168.518 159.557 168.483 159.642 168.421 159.704C168.358 159.767 168.274 159.802 168.185 159.802H167.154C166.02 159.782 164.939 159.318 164.144 158.51C163.349 157.701 162.903 156.612 162.903 155.478C162.903 154.344 163.349 153.255 164.144 152.446C164.939 151.638 166.02 151.174 167.154 151.154H168.003C168.425 150.262 169.09 149.508 169.922 148.978C170.754 148.448 171.719 148.165 172.705 148.161C174.047 148.173 175.333 148.696 176.303 149.623C177.272 150.549 177.853 151.811 177.926 153.15H178.257C179.129 153.164 179.961 153.521 180.573 154.143C181.185 154.765 181.528 155.603 181.528 156.476C181.528 157.348 181.185 158.186 180.573 158.808C179.961 159.43 179.129 159.787 178.257 159.802Z" fill="#3F3D56"/>
<path d="M172.651 161.236C172.563 161.236 172.478 161.201 172.416 161.139C172.353 161.077 172.318 160.992 172.318 160.904V157.079C172.318 156.991 172.353 156.906 172.416 156.844C172.478 156.782 172.563 156.747 172.651 156.747C172.739 156.747 172.824 156.782 172.886 156.844C172.948 156.906 172.984 156.991 172.984 157.079V160.904C172.984 160.992 172.948 161.077 172.886 161.139C172.824 161.201 172.739 161.236 172.651 161.236Z" fill="#3F3D56"/>
<path d="M170.322 163.232C170.234 163.232 170.149 163.197 170.087 163.135C170.024 163.072 169.989 162.988 169.989 162.899V159.075C169.989 158.987 170.024 158.902 170.087 158.84C170.149 158.777 170.234 158.742 170.322 158.742C170.41 158.742 170.495 158.777 170.557 158.84C170.619 158.902 170.654 158.987 170.654 159.075V162.899C170.654 162.988 170.619 163.072 170.557 163.135C170.495 163.197 170.41 163.232 170.322 163.232Z" fill="#3F3D56"/>
<path d="M174.977 164.23C174.889 164.23 174.804 164.195 174.742 164.133C174.68 164.07 174.645 163.986 174.645 163.898V160.073C174.645 159.985 174.68 159.9 174.742 159.838C174.804 159.775 174.889 159.74 174.977 159.74C175.065 159.74 175.15 159.775 175.212 159.838C175.275 159.9 175.31 159.985 175.31 160.073V163.898C175.31 163.986 175.275 164.07 175.212 164.133C175.15 164.195 175.065 164.23 174.977 164.23Z" fill="#3F3D56"/>
<path d="M215.838 159.802H214.503C214.415 159.802 214.33 159.767 214.268 159.704C214.205 159.642 214.17 159.557 214.17 159.469C214.17 159.381 214.205 159.296 214.268 159.234C214.33 159.171 214.415 159.136 214.503 159.136H215.838C216.534 159.122 217.197 158.835 217.684 158.338C218.171 157.841 218.444 157.172 218.444 156.476C218.444 155.779 218.171 155.111 217.684 154.613C217.197 154.116 216.534 153.829 215.838 153.815H215.185C215.096 153.815 215.012 153.78 214.949 153.718C214.887 153.655 214.852 153.571 214.852 153.482C214.863 152.26 214.388 151.083 213.532 150.21C212.676 149.338 211.509 148.84 210.287 148.826C209.393 148.831 208.52 149.098 207.776 149.594C207.033 150.091 206.452 150.794 206.104 151.618C206.079 151.678 206.036 151.729 205.982 151.765C205.927 151.8 205.864 151.82 205.799 151.82H204.735C203.778 151.839 202.866 152.233 202.196 152.917C201.525 153.601 201.15 154.52 201.15 155.478C201.15 156.436 201.525 157.355 202.196 158.039C202.866 158.723 203.778 159.117 204.735 159.136H205.766C205.855 159.136 205.939 159.171 206.002 159.234C206.064 159.296 206.099 159.381 206.099 159.469C206.099 159.557 206.064 159.642 206.002 159.704C205.939 159.767 205.855 159.802 205.766 159.802H204.735C203.601 159.782 202.52 159.318 201.725 158.51C200.93 157.701 200.484 156.612 200.484 155.478C200.484 154.344 200.93 153.255 201.725 152.446C202.52 151.638 203.601 151.174 204.735 151.154H205.585C206.006 150.262 206.671 149.508 207.503 148.978C208.335 148.448 209.3 148.165 210.287 148.161C211.628 148.173 212.914 148.696 213.884 149.623C214.854 150.549 215.434 151.811 215.507 153.15H215.838C216.71 153.164 217.542 153.521 218.154 154.143C218.766 154.765 219.109 155.603 219.109 156.476C219.109 157.348 218.766 158.186 218.154 158.808C217.542 159.43 216.71 159.787 215.838 159.802Z" fill="#3F3D56"/>
<path d="M209.714 158.97C210.127 158.97 210.462 158.635 210.462 158.221C210.462 157.808 210.127 157.473 209.714 157.473C209.301 157.473 208.966 157.808 208.966 158.221C208.966 158.635 209.301 158.97 209.714 158.97Z" fill="#3F3D56"/>
<path d="M212.208 159.967C212.622 159.967 212.957 159.632 212.957 159.219C212.957 158.806 212.622 158.471 212.208 158.471C211.795 158.471 211.46 158.806 211.46 159.219C211.46 159.632 211.795 159.967 212.208 159.967Z" fill="#3F3D56"/>
<path d="M208.051 161.131C208.464 161.131 208.799 160.796 208.799 160.383C208.799 159.97 208.464 159.635 208.051 159.635C207.638 159.635 207.303 159.97 207.303 160.383C207.303 160.796 207.638 161.131 208.051 161.131Z" fill="#3F3D56"/>
<path d="M210.712 162.794C211.125 162.794 211.46 162.459 211.46 162.046C211.46 161.633 211.125 161.298 210.712 161.298C210.299 161.298 209.964 161.633 209.964 162.046C209.964 162.459 210.299 162.794 210.712 162.794Z" fill="#3F3D56"/>
<path d="M69.1146 134.525H49.8247C49.1191 134.525 48.4423 134.245 47.9434 133.746C47.4444 133.247 47.1641 132.57 47.1641 131.864C47.1641 131.159 47.4444 130.482 47.9434 129.983C48.4423 129.484 49.1191 129.204 49.8247 129.204H69.1146C69.8202 129.204 70.497 129.484 70.9959 129.983C71.4949 130.482 71.7752 131.159 71.7752 131.864C71.7752 132.57 71.4949 133.247 70.9959 133.746C70.497 134.245 69.8202 134.525 69.1146 134.525Z" fill="white"/>
<path d="M106.697 134.525H87.4068C86.7011 134.525 86.0244 134.245 85.5254 133.746C85.0264 133.247 84.7461 132.57 84.7461 131.864C84.7461 131.159 85.0264 130.482 85.5254 129.983C86.0244 129.484 86.7011 129.204 87.4068 129.204H106.697C107.402 129.204 108.079 129.484 108.578 129.983C109.077 130.482 109.357 131.159 109.357 131.864C109.357 132.57 109.077 133.247 108.578 133.746C108.079 134.245 107.402 134.525 106.697 134.525Z" fill="white"/>
<path d="M144.279 134.525H124.989C124.283 134.525 123.606 134.245 123.107 133.746C122.608 133.247 122.328 132.57 122.328 131.864C122.328 131.159 122.608 130.482 123.107 129.983C123.606 129.484 124.283 129.204 124.989 129.204H144.279C144.984 129.204 145.661 129.484 146.16 129.983C146.659 130.482 146.939 131.159 146.939 131.864C146.939 132.57 146.659 133.247 146.16 133.746C145.661 134.245 144.984 134.525 144.279 134.525Z" fill="white"/>
<path d="M181.86 134.525H162.57C161.864 134.525 161.187 134.245 160.688 133.746C160.189 133.247 159.909 132.57 159.909 131.864C159.909 131.159 160.189 130.482 160.688 129.983C161.187 129.484 161.864 129.204 162.57 129.204H181.86C182.565 129.204 183.242 129.484 183.741 129.983C184.24 130.482 184.52 131.159 184.52 131.864C184.52 132.57 184.24 133.247 183.741 133.746C183.242 134.245 182.565 134.525 181.86 134.525Z" fill="white"/>
<path d="M219.443 134.525H200.153C199.447 134.525 198.77 134.245 198.271 133.746C197.773 133.247 197.492 132.57 197.492 131.864C197.492 131.159 197.773 130.482 198.271 129.983C198.77 129.484 199.447 129.204 200.153 129.204H219.443C220.148 129.204 220.825 129.484 221.324 129.983C221.823 130.482 222.103 131.159 222.103 131.864C222.103 132.57 221.823 133.247 221.324 133.746C220.825 134.245 220.148 134.525 219.443 134.525Z" fill="white"/>
<path d="M77.4283 165.788C77.3401 165.788 77.2555 165.753 77.1931 165.691C77.1307 165.628 77.0957 165.544 77.0957 165.456V140.179C77.0957 140.091 77.1307 140.006 77.1931 139.944C77.2555 139.882 77.3401 139.847 77.4283 139.847C77.5165 139.847 77.6011 139.882 77.6635 139.944C77.7258 140.006 77.7609 140.091 77.7609 140.179V165.456C77.7609 165.544 77.7258 165.628 77.6635 165.691C77.6011 165.753 77.5165 165.788 77.4283 165.788Z" fill="#E6E6E6"/>
<path d="M115.01 165.455C114.922 165.455 114.838 165.42 114.775 165.358C114.713 165.295 114.678 165.211 114.678 165.123V139.846C114.678 139.758 114.713 139.673 114.775 139.611C114.838 139.549 114.922 139.514 115.01 139.514C115.099 139.514 115.183 139.549 115.245 139.611C115.308 139.673 115.343 139.758 115.343 139.846V165.123C115.343 165.211 115.308 165.295 115.245 165.358C115.183 165.42 115.099 165.455 115.01 165.455Z" fill="#E6E6E6"/>
<path d="M154.588 165.455C154.5 165.455 154.416 165.42 154.353 165.358C154.291 165.295 154.256 165.211 154.256 165.123V139.846C154.256 139.758 154.291 139.673 154.353 139.611C154.416 139.549 154.5 139.514 154.588 139.514C154.677 139.514 154.761 139.549 154.824 139.611C154.886 139.673 154.921 139.758 154.921 139.846V165.123C154.921 165.211 154.886 165.295 154.824 165.358C154.761 165.42 154.677 165.455 154.588 165.455Z" fill="#E6E6E6"/>
<path d="M192.171 165.455C192.083 165.455 191.999 165.42 191.936 165.358C191.874 165.295 191.839 165.211 191.839 165.123V139.846C191.839 139.758 191.874 139.673 191.936 139.611C191.999 139.549 192.083 139.514 192.171 139.514C192.26 139.514 192.344 139.549 192.407 139.611C192.469 139.673 192.504 139.758 192.504 139.846V165.123C192.504 165.211 192.469 165.295 192.407 165.358C192.344 165.42 192.26 165.455 192.171 165.455Z" fill="#E6E6E6"/>
<path d="M330.463 250.098H203.749C203.66 250.098 203.576 250.063 203.513 250C203.451 249.938 203.416 249.853 203.416 249.765C203.416 249.677 203.451 249.592 203.513 249.53C203.576 249.467 203.66 249.432 203.749 249.432H330.463C330.551 249.432 330.636 249.467 330.698 249.53C330.76 249.592 330.795 249.677 330.795 249.765C330.795 249.853 330.76 249.938 330.698 250C330.636 250.063 330.551 250.098 330.463 250.098Z" fill="#3F3D56"/>
</svg>
